G04 #@! TF.GenerationSoftware,KiCad,Pcbnew,5.1.5*
G04 #@! TF.CreationDate,2020-04-17T15:56:53+02:00*
G04 #@! TF.ProjectId,rpi_mrf_radio_shield,7270695f-6d72-4665-9f72-6164696f5f73,rev?*
G04 #@! TF.SameCoordinates,Original*
G04 #@! TF.FileFunction,Soldermask,Bot*
G04 #@! TF.FilePolarity,Negative*
%FSLAX46Y46*%
G04 Gerber Fmt 4.6, Leading zero omitted, Abs format (unit mm)*
G04 Created by KiCad (PCBNEW 5.1.5) date 2020-04-17 15:56:53*
%MOMM*%
%LPD*%
G04 APERTURE LIST*
%ADD10R,1.801600X1.801600*%
%ADD11O,1.801600X1.801600*%
G04 APERTURE END LIST*
D10*
X162001100Y-136113600D03*
D11*
X164541100Y-136113600D03*
X167081100Y-136113600D03*
X169621100Y-136113600D03*
X172161100Y-136113600D03*
X174701100Y-136113600D03*
D10*
X146176900Y-115793600D03*
D11*
X146176900Y-118333600D03*
X146176900Y-120873600D03*
X146176900Y-123413600D03*
X146176900Y-125953600D03*
X146176900Y-128493600D03*
X163956900Y-115793600D03*
X163956900Y-118333600D03*
X163956900Y-120873600D03*
X163956900Y-123413600D03*
X163956900Y-125953600D03*
D10*
X163956900Y-128493600D03*
D11*
X159969100Y-94076600D03*
D10*
X159969100Y-91536600D03*
X139141100Y-136113600D03*
D11*
X141681100Y-136113600D03*
X144221100Y-136113600D03*
X146761100Y-136113600D03*
X149301100Y-136113600D03*
X151841100Y-136113600D03*
X154381100Y-136113600D03*
X156921100Y-136113600D03*
D10*
X153111100Y-87853600D03*
D11*
X150571100Y-87853600D03*
X148031100Y-87853600D03*
X145491100Y-87853600D03*
X142951100Y-87853600D03*
X140411100Y-87853600D03*
X137871100Y-87853600D03*
X135331100Y-87853600D03*
X132791100Y-87853600D03*
X130251100Y-87853600D03*
D10*
X174701100Y-87853600D03*
D11*
X172161100Y-87853600D03*
X169621100Y-87853600D03*
X167081100Y-87853600D03*
X164541100Y-87853600D03*
X162001100Y-87853600D03*
X159461100Y-87853600D03*
X156921100Y-87853600D03*
D10*
X148729600Y-100299600D03*
D11*
X148729600Y-97759600D03*
X151269600Y-100299600D03*
X151269600Y-97759600D03*
X153809600Y-100299600D03*
X153809600Y-97759600D03*
X156349600Y-100299600D03*
X156349600Y-97759600D03*
X158889600Y-100299600D03*
X158889600Y-97759600D03*
X161429600Y-100299600D03*
X161429600Y-97759600D03*
X163829900Y-94076600D03*
D10*
X163829900Y-91536600D03*
X153285100Y-132430600D03*
D11*
X155825100Y-132430600D03*
X158365100Y-132430600D03*
M02*
