G04 #@! TF.GenerationSoftware,KiCad,Pcbnew,5.1.5*
G04 #@! TF.CreationDate,2020-04-17T15:56:53+02:00*
G04 #@! TF.ProjectId,rpi_mrf_radio_shield,7270695f-6d72-4665-9f72-6164696f5f73,rev?*
G04 #@! TF.SameCoordinates,Original*
G04 #@! TF.FileFunction,Copper,L1,Top*
G04 #@! TF.FilePolarity,Positive*
%FSLAX46Y46*%
G04 Gerber Fmt 4.6, Leading zero omitted, Abs format (unit mm)*
G04 Created by KiCad (PCBNEW 5.1.5) date 2020-04-17 15:56:53*
%MOMM*%
%LPD*%
G04 APERTURE LIST*
%ADD10R,1.700000X1.700000*%
%ADD11O,1.700000X1.700000*%
%ADD12R,0.650000X1.220000*%
%ADD13R,1.500000X1.300000*%
%ADD14R,1.300000X1.500000*%
%ADD15C,0.685800*%
%ADD16C,0.800000*%
%ADD17C,0.203200*%
%ADD18C,0.304800*%
%ADD19C,0.152400*%
%ADD20C,0.254000*%
G04 APERTURE END LIST*
D10*
X162001100Y-136113600D03*
D11*
X164541100Y-136113600D03*
X167081100Y-136113600D03*
X169621100Y-136113600D03*
X172161100Y-136113600D03*
X174701100Y-136113600D03*
D10*
X146176900Y-115793600D03*
D11*
X146176900Y-118333600D03*
X146176900Y-120873600D03*
X146176900Y-123413600D03*
X146176900Y-125953600D03*
X146176900Y-128493600D03*
X163956900Y-115793600D03*
X163956900Y-118333600D03*
X163956900Y-120873600D03*
X163956900Y-123413600D03*
X163956900Y-125953600D03*
D10*
X163956900Y-128493600D03*
D12*
X156145100Y-126120600D03*
X158045100Y-126120600D03*
X157095100Y-123500600D03*
D13*
X164287100Y-133192600D03*
X161587100Y-133192600D03*
D11*
X159969100Y-94076600D03*
D10*
X159969100Y-91536600D03*
D13*
X155524100Y-93822600D03*
X152824100Y-93822600D03*
X155524100Y-90647600D03*
X152824100Y-90647600D03*
D14*
X153793100Y-123460600D03*
X153793100Y-126160600D03*
X150571100Y-91710600D03*
X150571100Y-94410600D03*
X147015100Y-94410600D03*
X147015100Y-91710600D03*
D10*
X139141100Y-136113600D03*
D11*
X141681100Y-136113600D03*
X144221100Y-136113600D03*
X146761100Y-136113600D03*
X149301100Y-136113600D03*
X151841100Y-136113600D03*
X154381100Y-136113600D03*
X156921100Y-136113600D03*
D10*
X153111100Y-87853600D03*
D11*
X150571100Y-87853600D03*
X148031100Y-87853600D03*
X145491100Y-87853600D03*
X142951100Y-87853600D03*
X140411100Y-87853600D03*
X137871100Y-87853600D03*
X135331100Y-87853600D03*
X132791100Y-87853600D03*
X130251100Y-87853600D03*
D10*
X174701100Y-87853600D03*
D11*
X172161100Y-87853600D03*
X169621100Y-87853600D03*
X167081100Y-87853600D03*
X164541100Y-87853600D03*
X162001100Y-87853600D03*
X159461100Y-87853600D03*
X156921100Y-87853600D03*
D10*
X148729600Y-100299600D03*
D11*
X148729600Y-97759600D03*
X151269600Y-100299600D03*
X151269600Y-97759600D03*
X153809600Y-100299600D03*
X153809600Y-97759600D03*
X156349600Y-100299600D03*
X156349600Y-97759600D03*
X158889600Y-100299600D03*
X158889600Y-97759600D03*
X161429600Y-100299600D03*
X161429600Y-97759600D03*
X163829900Y-94076600D03*
D10*
X163829900Y-91536600D03*
D13*
X146093100Y-133192600D03*
X148793100Y-133192600D03*
D10*
X153285100Y-132430600D03*
D11*
X155825100Y-132430600D03*
X158365100Y-132430600D03*
D15*
X157603100Y-115666600D03*
X155317100Y-114904600D03*
X156841100Y-113126600D03*
X160905100Y-130398600D03*
X158619100Y-129382600D03*
X150745100Y-130906600D03*
X152523100Y-130144600D03*
X157095100Y-127604600D03*
X159889100Y-125064600D03*
X159889100Y-127604600D03*
X164207100Y-131160600D03*
X160181210Y-105760600D03*
X160524100Y-110967600D03*
X154605900Y-120238600D03*
X163829900Y-111983600D03*
X163829900Y-105379600D03*
X163829900Y-102204600D03*
X159384900Y-136240600D03*
X149932300Y-127503000D03*
X146430900Y-131287600D03*
X145922900Y-111602600D03*
X145922900Y-108427600D03*
X154685900Y-112745600D03*
X156590900Y-106903600D03*
X153415900Y-106014600D03*
X160625700Y-113710800D03*
X152526900Y-107665600D03*
X145922900Y-106141600D03*
X155905100Y-110967600D03*
D16*
X161670900Y-120365600D03*
X152526900Y-119673410D03*
X157429100Y-94203600D03*
X148475598Y-102331600D03*
X150317100Y-105633600D03*
X159635100Y-121762600D03*
X151278500Y-123362800D03*
X160654894Y-118333600D03*
D17*
X157990100Y-91536600D02*
X157101100Y-90647600D01*
X157101100Y-90647600D02*
X155524100Y-90647600D01*
X159969100Y-91536600D02*
X157990100Y-91536600D01*
X149428100Y-89250600D02*
X164715100Y-89250600D01*
X148031100Y-87853600D02*
X149428100Y-89250600D01*
X165223100Y-93314600D02*
X164461100Y-94076600D01*
X164715100Y-89250600D02*
X165223100Y-89758600D01*
X165223100Y-89758600D02*
X165223100Y-93314600D01*
X164461100Y-94076600D02*
X163829900Y-94076600D01*
X162699600Y-94076600D02*
X163829900Y-94076600D01*
X159016600Y-97759600D02*
X162699600Y-94076600D01*
X161670900Y-120931285D02*
X161670900Y-120365600D01*
X161670900Y-123667600D02*
X161670900Y-120931285D01*
X163956900Y-125953600D02*
X161670900Y-123667600D01*
X158889600Y-97759600D02*
X159016600Y-97759600D01*
X147878700Y-87853600D02*
X148031100Y-87853600D01*
X152526900Y-110586600D02*
X155066900Y-108046600D01*
X152526900Y-119673410D02*
X152526900Y-110586600D01*
X155066900Y-108046600D02*
X155066900Y-102156380D01*
X155066900Y-102156380D02*
X155066900Y-99042300D01*
X155066900Y-99042300D02*
X156349600Y-97759600D01*
X152653900Y-119546410D02*
X152526900Y-119673410D01*
X156349600Y-97759600D02*
X157429100Y-96680100D01*
X157429100Y-96680100D02*
X157429100Y-94769285D01*
X157429100Y-94769285D02*
X157429100Y-94203600D01*
X148716900Y-120873600D02*
X148716900Y-105049400D01*
X146176900Y-123413600D02*
X148716900Y-120873600D01*
X148716900Y-105049400D02*
X146697600Y-103030100D01*
X146697600Y-103030100D02*
X146697600Y-98077100D01*
X146697600Y-98077100D02*
X147015100Y-97759600D01*
X147015100Y-97759600D02*
X148729600Y-97759600D01*
X149478900Y-122651600D02*
X149478900Y-103334902D01*
X146176900Y-125953600D02*
X149478900Y-122651600D01*
X149478900Y-103334902D02*
X148475598Y-102331600D01*
X150317100Y-125572600D02*
X147396100Y-128493600D01*
X150317100Y-105633600D02*
X150317100Y-125572600D01*
X147396100Y-128493600D02*
X146176900Y-128493600D01*
X159635100Y-121762600D02*
X159584300Y-121534000D01*
X159584300Y-104736381D02*
X156349600Y-101501681D01*
X159584300Y-121534000D02*
X159584300Y-104736381D01*
X156349600Y-101501681D02*
X156349600Y-100299600D01*
X146824600Y-96299100D02*
X149809100Y-96299100D01*
X145999100Y-103347600D02*
X145999100Y-97124600D01*
X149809100Y-96299100D02*
X150419601Y-96909601D01*
X147954900Y-105303400D02*
X145999100Y-103347600D01*
X146176900Y-118333600D02*
X147954900Y-116555600D01*
X145999100Y-97124600D02*
X146824600Y-96299100D01*
X147954900Y-116555600D02*
X147954900Y-105303400D01*
X150419601Y-96909601D02*
X151269600Y-97759600D01*
D18*
X146761100Y-134911519D02*
X146093100Y-134243519D01*
X146761100Y-136113600D02*
X146761100Y-134911519D01*
X146093100Y-134243519D02*
X146093100Y-133192600D01*
X151278500Y-127579200D02*
X146093100Y-132764600D01*
D19*
X151278500Y-127433400D02*
X151278500Y-127579200D01*
D18*
X146093100Y-132764600D02*
X146093100Y-133192600D01*
X151278500Y-123928485D02*
X151278500Y-123362800D01*
X151278500Y-127433400D02*
X151278500Y-123928485D01*
X151269600Y-123353900D02*
X151278500Y-123362800D01*
X151269600Y-100299600D02*
X151269600Y-123353900D01*
D17*
X150571100Y-94410600D02*
X149717900Y-94410600D01*
X149717900Y-94410600D02*
X147015100Y-94410600D01*
X150709300Y-95981600D02*
X150571100Y-95843400D01*
X150571100Y-95843400D02*
X150571100Y-94410600D01*
X152539600Y-96235600D02*
X152539600Y-99029600D01*
X152539600Y-99029600D02*
X151269600Y-100299600D01*
X152285600Y-95981600D02*
X152539600Y-96235600D01*
X150709300Y-95981600D02*
X152285600Y-95981600D01*
D19*
X154555100Y-128841000D02*
X153793100Y-128079000D01*
X153793100Y-128079000D02*
X153793100Y-126160600D01*
X154555100Y-133446600D02*
X154555100Y-128841000D01*
X165430100Y-134462600D02*
X155571100Y-134462600D01*
X155571100Y-134462600D02*
X154555100Y-133446600D01*
X167081100Y-136113600D02*
X165430100Y-134462600D01*
D18*
X157151500Y-123286600D02*
X159680300Y-123286600D01*
X156937500Y-123500600D02*
X157151500Y-123286600D01*
X159680300Y-123286600D02*
X160654900Y-122312000D01*
X160654900Y-122312000D02*
X160654900Y-118333606D01*
X160654900Y-118333606D02*
X160654894Y-118333600D01*
X163956900Y-115793600D02*
X163956900Y-117063600D01*
X163956900Y-117063600D02*
X163956900Y-118333600D01*
X161683600Y-117304894D02*
X161683600Y-117063600D01*
X161683600Y-117063600D02*
X161683600Y-100553600D01*
X163956900Y-117063600D02*
X161683600Y-117063600D01*
X160654894Y-118333600D02*
X161683600Y-117304894D01*
X161683600Y-100553600D02*
X161429600Y-100299600D01*
D17*
X152824100Y-93107600D02*
X151427100Y-91710600D01*
X152824100Y-93822600D02*
X152824100Y-93107600D01*
X151427100Y-91710600D02*
X151424300Y-91710600D01*
X151424300Y-91710600D02*
X150571100Y-91710600D01*
X150571100Y-91790600D02*
X151079100Y-92298600D01*
X150571100Y-91710600D02*
X150571100Y-91790600D01*
X147015100Y-90757400D02*
X147632900Y-90139600D01*
X152316100Y-90139600D02*
X152824100Y-90647600D01*
X147015100Y-91710600D02*
X147015100Y-90757400D01*
X147632900Y-90139600D02*
X152316100Y-90139600D01*
X162776700Y-91536600D02*
X161506700Y-92806600D01*
X163829900Y-91536600D02*
X162776700Y-91536600D01*
X156079100Y-93822600D02*
X155524100Y-93822600D01*
X161506700Y-92806600D02*
X157095100Y-92806600D01*
X157095100Y-92806600D02*
X156079100Y-93822600D01*
D19*
X156145100Y-126120600D02*
X156145100Y-132110600D01*
X156145100Y-132110600D02*
X155825100Y-132430600D01*
X156145100Y-126405600D02*
X156145100Y-126120600D01*
X153793100Y-123460600D02*
X153793100Y-123560600D01*
X156145100Y-125912600D02*
X156145100Y-126120600D01*
X153793100Y-123560600D02*
X156145100Y-125912600D01*
X148793100Y-133192600D02*
X152523100Y-133192600D01*
X152523100Y-133192600D02*
X153285100Y-132430600D01*
X152777100Y-132938600D02*
X153285100Y-132430600D01*
X161587100Y-133192600D02*
X159127100Y-133192600D01*
X159127100Y-133192600D02*
X158365100Y-132430600D01*
D20*
G36*
X155826225Y-102025055D02*
G01*
X155854332Y-102048122D01*
X158847701Y-105041492D01*
X158847700Y-121086289D01*
X158831163Y-121102826D01*
X158717895Y-121272344D01*
X158639874Y-121460702D01*
X158600100Y-121660661D01*
X158600100Y-121864539D01*
X158639874Y-122064498D01*
X158717895Y-122252856D01*
X158831163Y-122422374D01*
X158907989Y-122499200D01*
X157920349Y-122499200D01*
X157871285Y-122439415D01*
X157774594Y-122360063D01*
X157664280Y-122301098D01*
X157544582Y-122264788D01*
X157420100Y-122252528D01*
X156770100Y-122252528D01*
X156645618Y-122264788D01*
X156525920Y-122301098D01*
X156415606Y-122360063D01*
X156318915Y-122439415D01*
X156239563Y-122536106D01*
X156180598Y-122646420D01*
X156144288Y-122766118D01*
X156132028Y-122890600D01*
X156132028Y-124110600D01*
X156144288Y-124235082D01*
X156180598Y-124354780D01*
X156239563Y-124465094D01*
X156318915Y-124561785D01*
X156415606Y-124641137D01*
X156525920Y-124700102D01*
X156645618Y-124736412D01*
X156770100Y-124748672D01*
X157420100Y-124748672D01*
X157544582Y-124736412D01*
X157664280Y-124700102D01*
X157774594Y-124641137D01*
X157871285Y-124561785D01*
X157950637Y-124465094D01*
X158009602Y-124354780D01*
X158045912Y-124235082D01*
X158058172Y-124110600D01*
X158058172Y-124074000D01*
X159641637Y-124074000D01*
X159680300Y-124077808D01*
X159718963Y-124074000D01*
X159718973Y-124074000D01*
X159834657Y-124062606D01*
X159983083Y-124017582D01*
X160119872Y-123944466D01*
X160239769Y-123846069D01*
X160264427Y-123816023D01*
X160934300Y-123146151D01*
X160934300Y-123631416D01*
X160930736Y-123667600D01*
X160934300Y-123703783D01*
X160934300Y-123703785D01*
X160944958Y-123811998D01*
X160987078Y-123950848D01*
X161025416Y-124022574D01*
X161055476Y-124078812D01*
X161120846Y-124158465D01*
X161147525Y-124190974D01*
X161175632Y-124214041D01*
X162521181Y-125559590D01*
X162471900Y-125807340D01*
X162471900Y-126099860D01*
X162528968Y-126386758D01*
X162640910Y-126657011D01*
X162803425Y-126900232D01*
X162935280Y-127032087D01*
X162862720Y-127054098D01*
X162752406Y-127113063D01*
X162655715Y-127192415D01*
X162576363Y-127289106D01*
X162517398Y-127399420D01*
X162481088Y-127519118D01*
X162468828Y-127643600D01*
X162468828Y-129343600D01*
X162481088Y-129468082D01*
X162517398Y-129587780D01*
X162576363Y-129698094D01*
X162655715Y-129794785D01*
X162752406Y-129874137D01*
X162862720Y-129933102D01*
X162982418Y-129969412D01*
X163106900Y-129981672D01*
X164806900Y-129981672D01*
X164931382Y-129969412D01*
X165051080Y-129933102D01*
X165152001Y-129879158D01*
X165152001Y-130584623D01*
X165152000Y-131600625D01*
X165148565Y-131635500D01*
X165152000Y-131670375D01*
X165152000Y-131670376D01*
X165162273Y-131774683D01*
X165202872Y-131908519D01*
X165216138Y-131933337D01*
X165161582Y-131916788D01*
X165037100Y-131904528D01*
X164572850Y-131907600D01*
X164414100Y-132066350D01*
X164414100Y-133065600D01*
X165513350Y-133065600D01*
X165672100Y-132906850D01*
X165675172Y-132542600D01*
X165665358Y-132442949D01*
X167049792Y-133827384D01*
X167072025Y-133854475D01*
X167180137Y-133943200D01*
X167303480Y-134009128D01*
X167437316Y-134049727D01*
X167541623Y-134060000D01*
X167541624Y-134060000D01*
X167576499Y-134063435D01*
X167611374Y-134060000D01*
X174653781Y-134060000D01*
X175092621Y-134103028D01*
X175481354Y-134220394D01*
X175839880Y-134411025D01*
X176154559Y-134667671D01*
X176413391Y-134980545D01*
X176606524Y-135337736D01*
X176726600Y-135725640D01*
X176769044Y-136129476D01*
X176732242Y-136533864D01*
X176617595Y-136923405D01*
X176429467Y-137283259D01*
X176175028Y-137599716D01*
X175863970Y-137860725D01*
X175508135Y-138056348D01*
X175121077Y-138179129D01*
X174685390Y-138228000D01*
X139163229Y-138228000D01*
X138724378Y-138184971D01*
X138335648Y-138067607D01*
X137977117Y-137876972D01*
X137662440Y-137620328D01*
X137403607Y-137307452D01*
X137210476Y-136950264D01*
X137090400Y-136562359D01*
X137047955Y-136158528D01*
X137084758Y-135754135D01*
X137199405Y-135364595D01*
X137387532Y-135004744D01*
X137641974Y-134688281D01*
X137953032Y-134427273D01*
X138308865Y-134231652D01*
X138695919Y-134108871D01*
X139131609Y-134060000D01*
X142522625Y-134060000D01*
X142557500Y-134063435D01*
X142592375Y-134060000D01*
X142592377Y-134060000D01*
X142696684Y-134049727D01*
X142830520Y-134009128D01*
X142953863Y-133943200D01*
X143061975Y-133854475D01*
X143084212Y-133827379D01*
X144749389Y-132162203D01*
X144776474Y-132139975D01*
X144798704Y-132112888D01*
X144798707Y-132112885D01*
X144865199Y-132031864D01*
X144865201Y-132031862D01*
X144931128Y-131908520D01*
X144971727Y-131774684D01*
X144982000Y-131670377D01*
X144982000Y-131670376D01*
X144985435Y-131635501D01*
X144982000Y-131600626D01*
X144982000Y-129378235D01*
X145023425Y-129440232D01*
X145230268Y-129647075D01*
X145473489Y-129809590D01*
X145743742Y-129921532D01*
X146030640Y-129978600D01*
X146323160Y-129978600D01*
X146610058Y-129921532D01*
X146880311Y-129809590D01*
X147123532Y-129647075D01*
X147330375Y-129440232D01*
X147473421Y-129226149D01*
X147540499Y-129219542D01*
X147679349Y-129177422D01*
X147807313Y-129109024D01*
X147919475Y-129016975D01*
X147942546Y-128988863D01*
X150491100Y-126440310D01*
X150491100Y-127253049D01*
X145839622Y-131904528D01*
X145343100Y-131904528D01*
X145218618Y-131916788D01*
X145098920Y-131953098D01*
X144988606Y-132012063D01*
X144891915Y-132091415D01*
X144812563Y-132188106D01*
X144753598Y-132298420D01*
X144717288Y-132418118D01*
X144705028Y-132542600D01*
X144705028Y-133842600D01*
X144717288Y-133967082D01*
X144753598Y-134086780D01*
X144812563Y-134197094D01*
X144891915Y-134293785D01*
X144988606Y-134373137D01*
X145098920Y-134432102D01*
X145218618Y-134468412D01*
X145342182Y-134480582D01*
X145362118Y-134546301D01*
X145435234Y-134683090D01*
X145533631Y-134802988D01*
X145563677Y-134827646D01*
X145755312Y-135019281D01*
X145607625Y-135166968D01*
X145491100Y-135341360D01*
X145374575Y-135166968D01*
X145167732Y-134960125D01*
X144924511Y-134797610D01*
X144654258Y-134685668D01*
X144367360Y-134628600D01*
X144074840Y-134628600D01*
X143787942Y-134685668D01*
X143517689Y-134797610D01*
X143274468Y-134960125D01*
X143067625Y-135166968D01*
X142951100Y-135341360D01*
X142834575Y-135166968D01*
X142627732Y-134960125D01*
X142384511Y-134797610D01*
X142114258Y-134685668D01*
X141827360Y-134628600D01*
X141534840Y-134628600D01*
X141247942Y-134685668D01*
X140977689Y-134797610D01*
X140734468Y-134960125D01*
X140602613Y-135091980D01*
X140580602Y-135019420D01*
X140521637Y-134909106D01*
X140442285Y-134812415D01*
X140345594Y-134733063D01*
X140235280Y-134674098D01*
X140115582Y-134637788D01*
X139991100Y-134625528D01*
X138291100Y-134625528D01*
X138166618Y-134637788D01*
X138046920Y-134674098D01*
X137936606Y-134733063D01*
X137839915Y-134812415D01*
X137760563Y-134909106D01*
X137701598Y-135019420D01*
X137665288Y-135139118D01*
X137653028Y-135263600D01*
X137653028Y-136963600D01*
X137665288Y-137088082D01*
X137701598Y-137207780D01*
X137760563Y-137318094D01*
X137839915Y-137414785D01*
X137936606Y-137494137D01*
X138046920Y-137553102D01*
X138166618Y-137589412D01*
X138291100Y-137601672D01*
X139991100Y-137601672D01*
X140115582Y-137589412D01*
X140235280Y-137553102D01*
X140345594Y-137494137D01*
X140442285Y-137414785D01*
X140521637Y-137318094D01*
X140580602Y-137207780D01*
X140602613Y-137135220D01*
X140734468Y-137267075D01*
X140977689Y-137429590D01*
X141247942Y-137541532D01*
X141534840Y-137598600D01*
X141827360Y-137598600D01*
X142114258Y-137541532D01*
X142384511Y-137429590D01*
X142627732Y-137267075D01*
X142834575Y-137060232D01*
X142951100Y-136885840D01*
X143067625Y-137060232D01*
X143274468Y-137267075D01*
X143517689Y-137429590D01*
X143787942Y-137541532D01*
X144074840Y-137598600D01*
X144367360Y-137598600D01*
X144654258Y-137541532D01*
X144924511Y-137429590D01*
X145167732Y-137267075D01*
X145374575Y-137060232D01*
X145491100Y-136885840D01*
X145607625Y-137060232D01*
X145814468Y-137267075D01*
X146057689Y-137429590D01*
X146327942Y-137541532D01*
X146614840Y-137598600D01*
X146907360Y-137598600D01*
X147194258Y-137541532D01*
X147464511Y-137429590D01*
X147707732Y-137267075D01*
X147914575Y-137060232D01*
X148031100Y-136885840D01*
X148147625Y-137060232D01*
X148354468Y-137267075D01*
X148597689Y-137429590D01*
X148867942Y-137541532D01*
X149154840Y-137598600D01*
X149447360Y-137598600D01*
X149734258Y-137541532D01*
X150004511Y-137429590D01*
X150247732Y-137267075D01*
X150454575Y-137060232D01*
X150576295Y-136878066D01*
X150645922Y-136994955D01*
X150840831Y-137211188D01*
X151074180Y-137385241D01*
X151337001Y-137510425D01*
X151484210Y-137555076D01*
X151714100Y-137433755D01*
X151714100Y-136240600D01*
X151968100Y-136240600D01*
X151968100Y-137433755D01*
X152197990Y-137555076D01*
X152345199Y-137510425D01*
X152608020Y-137385241D01*
X152841369Y-137211188D01*
X153036278Y-136994955D01*
X153111100Y-136869345D01*
X153185922Y-136994955D01*
X153380831Y-137211188D01*
X153614180Y-137385241D01*
X153877001Y-137510425D01*
X154024210Y-137555076D01*
X154254100Y-137433755D01*
X154254100Y-136240600D01*
X151968100Y-136240600D01*
X151714100Y-136240600D01*
X151694100Y-136240600D01*
X151694100Y-135986600D01*
X151714100Y-135986600D01*
X151714100Y-134793445D01*
X151968100Y-134793445D01*
X151968100Y-135986600D01*
X154254100Y-135986600D01*
X154254100Y-134793445D01*
X154024210Y-134672124D01*
X153877001Y-134716775D01*
X153614180Y-134841959D01*
X153380831Y-135016012D01*
X153185922Y-135232245D01*
X153111100Y-135357855D01*
X153036278Y-135232245D01*
X152841369Y-135016012D01*
X152608020Y-134841959D01*
X152345199Y-134716775D01*
X152197990Y-134672124D01*
X151968100Y-134793445D01*
X151714100Y-134793445D01*
X151484210Y-134672124D01*
X151337001Y-134716775D01*
X151074180Y-134841959D01*
X150840831Y-135016012D01*
X150645922Y-135232245D01*
X150576295Y-135349134D01*
X150454575Y-135166968D01*
X150247732Y-134960125D01*
X150004511Y-134797610D01*
X149734258Y-134685668D01*
X149447360Y-134628600D01*
X149154840Y-134628600D01*
X148867942Y-134685668D01*
X148597689Y-134797610D01*
X148354468Y-134960125D01*
X148147625Y-135166968D01*
X148031100Y-135341360D01*
X147914575Y-135166968D01*
X147707732Y-134960125D01*
X147546485Y-134852383D01*
X147537106Y-134757162D01*
X147492082Y-134608736D01*
X147418966Y-134471947D01*
X147395793Y-134443711D01*
X147345222Y-134382089D01*
X147345219Y-134382086D01*
X147320569Y-134352050D01*
X147290533Y-134327400D01*
X147273761Y-134310628D01*
X147294285Y-134293785D01*
X147373637Y-134197094D01*
X147432602Y-134086780D01*
X147443100Y-134052173D01*
X147453598Y-134086780D01*
X147512563Y-134197094D01*
X147591915Y-134293785D01*
X147688606Y-134373137D01*
X147798920Y-134432102D01*
X147918618Y-134468412D01*
X148043100Y-134480672D01*
X149543100Y-134480672D01*
X149667582Y-134468412D01*
X149787280Y-134432102D01*
X149897594Y-134373137D01*
X149994285Y-134293785D01*
X150073637Y-134197094D01*
X150132602Y-134086780D01*
X150168912Y-133967082D01*
X150175145Y-133903800D01*
X152302007Y-133903800D01*
X152310618Y-133906412D01*
X152435100Y-133918672D01*
X154022482Y-133918672D01*
X154049773Y-133951926D01*
X154076910Y-133974197D01*
X154790878Y-134688166D01*
X154737990Y-134672124D01*
X154508100Y-134793445D01*
X154508100Y-135986600D01*
X154528100Y-135986600D01*
X154528100Y-136240600D01*
X154508100Y-136240600D01*
X154508100Y-137433755D01*
X154737990Y-137555076D01*
X154885199Y-137510425D01*
X155148020Y-137385241D01*
X155381369Y-137211188D01*
X155576278Y-136994955D01*
X155645905Y-136878066D01*
X155767625Y-137060232D01*
X155974468Y-137267075D01*
X156217689Y-137429590D01*
X156487942Y-137541532D01*
X156774840Y-137598600D01*
X157067360Y-137598600D01*
X157354258Y-137541532D01*
X157624511Y-137429590D01*
X157867732Y-137267075D01*
X158074575Y-137060232D01*
X158237090Y-136817011D01*
X158349032Y-136546758D01*
X158406100Y-136259860D01*
X158406100Y-135967340D01*
X158349032Y-135680442D01*
X158237090Y-135410189D01*
X158079140Y-135173800D01*
X160521872Y-135173800D01*
X160513028Y-135263600D01*
X160513028Y-136963600D01*
X160525288Y-137088082D01*
X160561598Y-137207780D01*
X160620563Y-137318094D01*
X160699915Y-137414785D01*
X160796606Y-137494137D01*
X160906920Y-137553102D01*
X161026618Y-137589412D01*
X161151100Y-137601672D01*
X162851100Y-137601672D01*
X162975582Y-137589412D01*
X163095280Y-137553102D01*
X163205594Y-137494137D01*
X163302285Y-137414785D01*
X163381637Y-137318094D01*
X163440602Y-137207780D01*
X163462613Y-137135220D01*
X163594468Y-137267075D01*
X163837689Y-137429590D01*
X164107942Y-137541532D01*
X164394840Y-137598600D01*
X164687360Y-137598600D01*
X164974258Y-137541532D01*
X165244511Y-137429590D01*
X165487732Y-137267075D01*
X165694575Y-137060232D01*
X165811100Y-136885840D01*
X165927625Y-137060232D01*
X166134468Y-137267075D01*
X166377689Y-137429590D01*
X166647942Y-137541532D01*
X166934840Y-137598600D01*
X167227360Y-137598600D01*
X167514258Y-137541532D01*
X167784511Y-137429590D01*
X168027732Y-137267075D01*
X168234575Y-137060232D01*
X168351100Y-136885840D01*
X168467625Y-137060232D01*
X168674468Y-137267075D01*
X168917689Y-137429590D01*
X169187942Y-137541532D01*
X169474840Y-137598600D01*
X169767360Y-137598600D01*
X170054258Y-137541532D01*
X170324511Y-137429590D01*
X170567732Y-137267075D01*
X170774575Y-137060232D01*
X170891100Y-136885840D01*
X171007625Y-137060232D01*
X171214468Y-137267075D01*
X171457689Y-137429590D01*
X171727942Y-137541532D01*
X172014840Y-137598600D01*
X172307360Y-137598600D01*
X172594258Y-137541532D01*
X172864511Y-137429590D01*
X173107732Y-137267075D01*
X173314575Y-137060232D01*
X173431100Y-136885840D01*
X173547625Y-137060232D01*
X173754468Y-137267075D01*
X173997689Y-137429590D01*
X174267942Y-137541532D01*
X174554840Y-137598600D01*
X174847360Y-137598600D01*
X175134258Y-137541532D01*
X175404511Y-137429590D01*
X175647732Y-137267075D01*
X175854575Y-137060232D01*
X176017090Y-136817011D01*
X176129032Y-136546758D01*
X176186100Y-136259860D01*
X176186100Y-135967340D01*
X176129032Y-135680442D01*
X176017090Y-135410189D01*
X175854575Y-135166968D01*
X175647732Y-134960125D01*
X175404511Y-134797610D01*
X175134258Y-134685668D01*
X174847360Y-134628600D01*
X174554840Y-134628600D01*
X174267942Y-134685668D01*
X173997689Y-134797610D01*
X173754468Y-134960125D01*
X173547625Y-135166968D01*
X173431100Y-135341360D01*
X173314575Y-135166968D01*
X173107732Y-134960125D01*
X172864511Y-134797610D01*
X172594258Y-134685668D01*
X172307360Y-134628600D01*
X172014840Y-134628600D01*
X171727942Y-134685668D01*
X171457689Y-134797610D01*
X171214468Y-134960125D01*
X171007625Y-135166968D01*
X170891100Y-135341360D01*
X170774575Y-135166968D01*
X170567732Y-134960125D01*
X170324511Y-134797610D01*
X170054258Y-134685668D01*
X169767360Y-134628600D01*
X169474840Y-134628600D01*
X169187942Y-134685668D01*
X168917689Y-134797610D01*
X168674468Y-134960125D01*
X168467625Y-135166968D01*
X168351100Y-135341360D01*
X168234575Y-135166968D01*
X168027732Y-134960125D01*
X167784511Y-134797610D01*
X167514258Y-134685668D01*
X167227360Y-134628600D01*
X166934840Y-134628600D01*
X166657129Y-134683841D01*
X165957702Y-133984414D01*
X165935427Y-133957273D01*
X165827133Y-133868398D01*
X165703581Y-133802358D01*
X165674759Y-133793615D01*
X165672100Y-133478350D01*
X165513350Y-133319600D01*
X164414100Y-133319600D01*
X164414100Y-133339600D01*
X164160100Y-133339600D01*
X164160100Y-133319600D01*
X164140100Y-133319600D01*
X164140100Y-133065600D01*
X164160100Y-133065600D01*
X164160100Y-132066350D01*
X164001350Y-131907600D01*
X163537100Y-131904528D01*
X163412618Y-131916788D01*
X163292920Y-131953098D01*
X163182606Y-132012063D01*
X163085915Y-132091415D01*
X163006563Y-132188106D01*
X162947598Y-132298420D01*
X162937100Y-132333027D01*
X162926602Y-132298420D01*
X162867637Y-132188106D01*
X162788285Y-132091415D01*
X162691594Y-132012063D01*
X162581280Y-131953098D01*
X162461582Y-131916788D01*
X162337100Y-131904528D01*
X160837100Y-131904528D01*
X160712618Y-131916788D01*
X160592920Y-131953098D01*
X160482606Y-132012063D01*
X160385915Y-132091415D01*
X160306563Y-132188106D01*
X160247598Y-132298420D01*
X160211288Y-132418118D01*
X160205055Y-132481400D01*
X159850100Y-132481400D01*
X159850100Y-132284340D01*
X159793032Y-131997442D01*
X159681090Y-131727189D01*
X159518575Y-131483968D01*
X159311732Y-131277125D01*
X159068511Y-131114610D01*
X158798258Y-131002668D01*
X158511360Y-130945600D01*
X158218840Y-130945600D01*
X157931942Y-131002668D01*
X157661689Y-131114610D01*
X157418468Y-131277125D01*
X157211625Y-131483968D01*
X157095100Y-131658360D01*
X156978575Y-131483968D01*
X156856300Y-131361693D01*
X156856300Y-127235117D01*
X156921285Y-127181785D01*
X157000637Y-127085094D01*
X157059602Y-126974780D01*
X157095100Y-126857759D01*
X157130598Y-126974780D01*
X157189563Y-127085094D01*
X157268915Y-127181785D01*
X157365606Y-127261137D01*
X157475920Y-127320102D01*
X157595618Y-127356412D01*
X157720100Y-127368672D01*
X157759350Y-127365600D01*
X157918100Y-127206850D01*
X157918100Y-126247600D01*
X158172100Y-126247600D01*
X158172100Y-127206850D01*
X158330850Y-127365600D01*
X158370100Y-127368672D01*
X158494582Y-127356412D01*
X158614280Y-127320102D01*
X158724594Y-127261137D01*
X158821285Y-127181785D01*
X158900637Y-127085094D01*
X158959602Y-126974780D01*
X158995912Y-126855082D01*
X159008172Y-126730600D01*
X159005100Y-126406350D01*
X158846350Y-126247600D01*
X158172100Y-126247600D01*
X157918100Y-126247600D01*
X157898100Y-126247600D01*
X157898100Y-125993600D01*
X157918100Y-125993600D01*
X157918100Y-125034350D01*
X158172100Y-125034350D01*
X158172100Y-125993600D01*
X158846350Y-125993600D01*
X159005100Y-125834850D01*
X159008172Y-125510600D01*
X158995912Y-125386118D01*
X158959602Y-125266420D01*
X158900637Y-125156106D01*
X158821285Y-125059415D01*
X158724594Y-124980063D01*
X158614280Y-124921098D01*
X158494582Y-124884788D01*
X158370100Y-124872528D01*
X158330850Y-124875600D01*
X158172100Y-125034350D01*
X157918100Y-125034350D01*
X157759350Y-124875600D01*
X157720100Y-124872528D01*
X157595618Y-124884788D01*
X157475920Y-124921098D01*
X157365606Y-124980063D01*
X157268915Y-125059415D01*
X157189563Y-125156106D01*
X157130598Y-125266420D01*
X157095100Y-125383441D01*
X157059602Y-125266420D01*
X157000637Y-125156106D01*
X156921285Y-125059415D01*
X156824594Y-124980063D01*
X156714280Y-124921098D01*
X156594582Y-124884788D01*
X156470100Y-124872528D01*
X156110817Y-124872528D01*
X155081172Y-123842884D01*
X155081172Y-122710600D01*
X155068912Y-122586118D01*
X155032602Y-122466420D01*
X154973637Y-122356106D01*
X154894285Y-122259415D01*
X154797594Y-122180063D01*
X154687280Y-122121098D01*
X154567582Y-122084788D01*
X154443100Y-122072528D01*
X153143100Y-122072528D01*
X153018618Y-122084788D01*
X152898920Y-122121098D01*
X152788606Y-122180063D01*
X152691915Y-122259415D01*
X152612563Y-122356106D01*
X152553598Y-122466420D01*
X152517288Y-122586118D01*
X152505028Y-122710600D01*
X152505028Y-124210600D01*
X152517288Y-124335082D01*
X152553598Y-124454780D01*
X152612563Y-124565094D01*
X152691915Y-124661785D01*
X152788606Y-124741137D01*
X152898920Y-124800102D01*
X152933527Y-124810600D01*
X152898920Y-124821098D01*
X152788606Y-124880063D01*
X152691915Y-124959415D01*
X152612563Y-125056106D01*
X152553598Y-125166420D01*
X152517288Y-125286118D01*
X152505028Y-125410600D01*
X152505028Y-126910600D01*
X152517288Y-127035082D01*
X152553598Y-127154780D01*
X152612563Y-127265094D01*
X152691915Y-127361785D01*
X152788606Y-127441137D01*
X152898920Y-127500102D01*
X153018618Y-127536412D01*
X153081900Y-127542645D01*
X153081900Y-128044074D01*
X153078460Y-128079000D01*
X153081900Y-128113926D01*
X153081900Y-128113935D01*
X153092191Y-128218419D01*
X153132858Y-128352480D01*
X153198898Y-128476032D01*
X153287773Y-128584326D01*
X153314910Y-128606597D01*
X153843901Y-129135589D01*
X153843901Y-130942528D01*
X152435100Y-130942528D01*
X152310618Y-130954788D01*
X152190920Y-130991098D01*
X152080606Y-131050063D01*
X151983915Y-131129415D01*
X151904563Y-131226106D01*
X151845598Y-131336420D01*
X151809288Y-131456118D01*
X151797028Y-131580600D01*
X151797028Y-132481400D01*
X150175145Y-132481400D01*
X150168912Y-132418118D01*
X150132602Y-132298420D01*
X150073637Y-132188106D01*
X149994285Y-132091415D01*
X149897594Y-132012063D01*
X149787280Y-131953098D01*
X149667582Y-131916788D01*
X149543100Y-131904528D01*
X148066722Y-131904528D01*
X151862621Y-128108630D01*
X151936365Y-128018773D01*
X152009482Y-127881983D01*
X152054505Y-127733558D01*
X152069708Y-127579201D01*
X152062528Y-127506305D01*
X152065900Y-127472073D01*
X152065900Y-124039111D01*
X152082437Y-124022574D01*
X152195705Y-123853056D01*
X152273726Y-123664698D01*
X152313500Y-123464739D01*
X152313500Y-123260861D01*
X152273726Y-123060902D01*
X152195705Y-122872544D01*
X152082437Y-122703026D01*
X152057000Y-122677589D01*
X152057000Y-120599047D01*
X152225002Y-120668636D01*
X152424961Y-120708410D01*
X152628839Y-120708410D01*
X152828798Y-120668636D01*
X153017156Y-120590615D01*
X153186674Y-120477347D01*
X153330837Y-120333184D01*
X153444105Y-120163666D01*
X153522126Y-119975308D01*
X153561900Y-119775349D01*
X153561900Y-119571471D01*
X153522126Y-119371512D01*
X153444105Y-119183154D01*
X153330837Y-119013636D01*
X153263500Y-118946299D01*
X153263500Y-110891709D01*
X155562168Y-108593041D01*
X155590274Y-108569975D01*
X155682324Y-108457813D01*
X155750722Y-108329849D01*
X155792842Y-108190999D01*
X155803500Y-108082786D01*
X155803500Y-108082777D01*
X155807063Y-108046601D01*
X155803500Y-108010425D01*
X155803500Y-101997365D01*
X155826225Y-102025055D01*
G37*
X155826225Y-102025055D02*
X155854332Y-102048122D01*
X158847701Y-105041492D01*
X158847700Y-121086289D01*
X158831163Y-121102826D01*
X158717895Y-121272344D01*
X158639874Y-121460702D01*
X158600100Y-121660661D01*
X158600100Y-121864539D01*
X158639874Y-122064498D01*
X158717895Y-122252856D01*
X158831163Y-122422374D01*
X158907989Y-122499200D01*
X157920349Y-122499200D01*
X157871285Y-122439415D01*
X157774594Y-122360063D01*
X157664280Y-122301098D01*
X157544582Y-122264788D01*
X157420100Y-122252528D01*
X156770100Y-122252528D01*
X156645618Y-122264788D01*
X156525920Y-122301098D01*
X156415606Y-122360063D01*
X156318915Y-122439415D01*
X156239563Y-122536106D01*
X156180598Y-122646420D01*
X156144288Y-122766118D01*
X156132028Y-122890600D01*
X156132028Y-124110600D01*
X156144288Y-124235082D01*
X156180598Y-124354780D01*
X156239563Y-124465094D01*
X156318915Y-124561785D01*
X156415606Y-124641137D01*
X156525920Y-124700102D01*
X156645618Y-124736412D01*
X156770100Y-124748672D01*
X157420100Y-124748672D01*
X157544582Y-124736412D01*
X157664280Y-124700102D01*
X157774594Y-124641137D01*
X157871285Y-124561785D01*
X157950637Y-124465094D01*
X158009602Y-124354780D01*
X158045912Y-124235082D01*
X158058172Y-124110600D01*
X158058172Y-124074000D01*
X159641637Y-124074000D01*
X159680300Y-124077808D01*
X159718963Y-124074000D01*
X159718973Y-124074000D01*
X159834657Y-124062606D01*
X159983083Y-124017582D01*
X160119872Y-123944466D01*
X160239769Y-123846069D01*
X160264427Y-123816023D01*
X160934300Y-123146151D01*
X160934300Y-123631416D01*
X160930736Y-123667600D01*
X160934300Y-123703783D01*
X160934300Y-123703785D01*
X160944958Y-123811998D01*
X160987078Y-123950848D01*
X161025416Y-124022574D01*
X161055476Y-124078812D01*
X161120846Y-124158465D01*
X161147525Y-124190974D01*
X161175632Y-124214041D01*
X162521181Y-125559590D01*
X162471900Y-125807340D01*
X162471900Y-126099860D01*
X162528968Y-126386758D01*
X162640910Y-126657011D01*
X162803425Y-126900232D01*
X162935280Y-127032087D01*
X162862720Y-127054098D01*
X162752406Y-127113063D01*
X162655715Y-127192415D01*
X162576363Y-127289106D01*
X162517398Y-127399420D01*
X162481088Y-127519118D01*
X162468828Y-127643600D01*
X162468828Y-129343600D01*
X162481088Y-129468082D01*
X162517398Y-129587780D01*
X162576363Y-129698094D01*
X162655715Y-129794785D01*
X162752406Y-129874137D01*
X162862720Y-129933102D01*
X162982418Y-129969412D01*
X163106900Y-129981672D01*
X164806900Y-129981672D01*
X164931382Y-129969412D01*
X165051080Y-129933102D01*
X165152001Y-129879158D01*
X165152001Y-130584623D01*
X165152000Y-131600625D01*
X165148565Y-131635500D01*
X165152000Y-131670375D01*
X165152000Y-131670376D01*
X165162273Y-131774683D01*
X165202872Y-131908519D01*
X165216138Y-131933337D01*
X165161582Y-131916788D01*
X165037100Y-131904528D01*
X164572850Y-131907600D01*
X164414100Y-132066350D01*
X164414100Y-133065600D01*
X165513350Y-133065600D01*
X165672100Y-132906850D01*
X165675172Y-132542600D01*
X165665358Y-132442949D01*
X167049792Y-133827384D01*
X167072025Y-133854475D01*
X167180137Y-133943200D01*
X167303480Y-134009128D01*
X167437316Y-134049727D01*
X167541623Y-134060000D01*
X167541624Y-134060000D01*
X167576499Y-134063435D01*
X167611374Y-134060000D01*
X174653781Y-134060000D01*
X175092621Y-134103028D01*
X175481354Y-134220394D01*
X175839880Y-134411025D01*
X176154559Y-134667671D01*
X176413391Y-134980545D01*
X176606524Y-135337736D01*
X176726600Y-135725640D01*
X176769044Y-136129476D01*
X176732242Y-136533864D01*
X176617595Y-136923405D01*
X176429467Y-137283259D01*
X176175028Y-137599716D01*
X175863970Y-137860725D01*
X175508135Y-138056348D01*
X175121077Y-138179129D01*
X174685390Y-138228000D01*
X139163229Y-138228000D01*
X138724378Y-138184971D01*
X138335648Y-138067607D01*
X137977117Y-137876972D01*
X137662440Y-137620328D01*
X137403607Y-137307452D01*
X137210476Y-136950264D01*
X137090400Y-136562359D01*
X137047955Y-136158528D01*
X137084758Y-135754135D01*
X137199405Y-135364595D01*
X137387532Y-135004744D01*
X137641974Y-134688281D01*
X137953032Y-134427273D01*
X138308865Y-134231652D01*
X138695919Y-134108871D01*
X139131609Y-134060000D01*
X142522625Y-134060000D01*
X142557500Y-134063435D01*
X142592375Y-134060000D01*
X142592377Y-134060000D01*
X142696684Y-134049727D01*
X142830520Y-134009128D01*
X142953863Y-133943200D01*
X143061975Y-133854475D01*
X143084212Y-133827379D01*
X144749389Y-132162203D01*
X144776474Y-132139975D01*
X144798704Y-132112888D01*
X144798707Y-132112885D01*
X144865199Y-132031864D01*
X144865201Y-132031862D01*
X144931128Y-131908520D01*
X144971727Y-131774684D01*
X144982000Y-131670377D01*
X144982000Y-131670376D01*
X144985435Y-131635501D01*
X144982000Y-131600626D01*
X144982000Y-129378235D01*
X145023425Y-129440232D01*
X145230268Y-129647075D01*
X145473489Y-129809590D01*
X145743742Y-129921532D01*
X146030640Y-129978600D01*
X146323160Y-129978600D01*
X146610058Y-129921532D01*
X146880311Y-129809590D01*
X147123532Y-129647075D01*
X147330375Y-129440232D01*
X147473421Y-129226149D01*
X147540499Y-129219542D01*
X147679349Y-129177422D01*
X147807313Y-129109024D01*
X147919475Y-129016975D01*
X147942546Y-128988863D01*
X150491100Y-126440310D01*
X150491100Y-127253049D01*
X145839622Y-131904528D01*
X145343100Y-131904528D01*
X145218618Y-131916788D01*
X145098920Y-131953098D01*
X144988606Y-132012063D01*
X144891915Y-132091415D01*
X144812563Y-132188106D01*
X144753598Y-132298420D01*
X144717288Y-132418118D01*
X144705028Y-132542600D01*
X144705028Y-133842600D01*
X144717288Y-133967082D01*
X144753598Y-134086780D01*
X144812563Y-134197094D01*
X144891915Y-134293785D01*
X144988606Y-134373137D01*
X145098920Y-134432102D01*
X145218618Y-134468412D01*
X145342182Y-134480582D01*
X145362118Y-134546301D01*
X145435234Y-134683090D01*
X145533631Y-134802988D01*
X145563677Y-134827646D01*
X145755312Y-135019281D01*
X145607625Y-135166968D01*
X145491100Y-135341360D01*
X145374575Y-135166968D01*
X145167732Y-134960125D01*
X144924511Y-134797610D01*
X144654258Y-134685668D01*
X144367360Y-134628600D01*
X144074840Y-134628600D01*
X143787942Y-134685668D01*
X143517689Y-134797610D01*
X143274468Y-134960125D01*
X143067625Y-135166968D01*
X142951100Y-135341360D01*
X142834575Y-135166968D01*
X142627732Y-134960125D01*
X142384511Y-134797610D01*
X142114258Y-134685668D01*
X141827360Y-134628600D01*
X141534840Y-134628600D01*
X141247942Y-134685668D01*
X140977689Y-134797610D01*
X140734468Y-134960125D01*
X140602613Y-135091980D01*
X140580602Y-135019420D01*
X140521637Y-134909106D01*
X140442285Y-134812415D01*
X140345594Y-134733063D01*
X140235280Y-134674098D01*
X140115582Y-134637788D01*
X139991100Y-134625528D01*
X138291100Y-134625528D01*
X138166618Y-134637788D01*
X138046920Y-134674098D01*
X137936606Y-134733063D01*
X137839915Y-134812415D01*
X137760563Y-134909106D01*
X137701598Y-135019420D01*
X137665288Y-135139118D01*
X137653028Y-135263600D01*
X137653028Y-136963600D01*
X137665288Y-137088082D01*
X137701598Y-137207780D01*
X137760563Y-137318094D01*
X137839915Y-137414785D01*
X137936606Y-137494137D01*
X138046920Y-137553102D01*
X138166618Y-137589412D01*
X138291100Y-137601672D01*
X139991100Y-137601672D01*
X140115582Y-137589412D01*
X140235280Y-137553102D01*
X140345594Y-137494137D01*
X140442285Y-137414785D01*
X140521637Y-137318094D01*
X140580602Y-137207780D01*
X140602613Y-137135220D01*
X140734468Y-137267075D01*
X140977689Y-137429590D01*
X141247942Y-137541532D01*
X141534840Y-137598600D01*
X141827360Y-137598600D01*
X142114258Y-137541532D01*
X142384511Y-137429590D01*
X142627732Y-137267075D01*
X142834575Y-137060232D01*
X142951100Y-136885840D01*
X143067625Y-137060232D01*
X143274468Y-137267075D01*
X143517689Y-137429590D01*
X143787942Y-137541532D01*
X144074840Y-137598600D01*
X144367360Y-137598600D01*
X144654258Y-137541532D01*
X144924511Y-137429590D01*
X145167732Y-137267075D01*
X145374575Y-137060232D01*
X145491100Y-136885840D01*
X145607625Y-137060232D01*
X145814468Y-137267075D01*
X146057689Y-137429590D01*
X146327942Y-137541532D01*
X146614840Y-137598600D01*
X146907360Y-137598600D01*
X147194258Y-137541532D01*
X147464511Y-137429590D01*
X147707732Y-137267075D01*
X147914575Y-137060232D01*
X148031100Y-136885840D01*
X148147625Y-137060232D01*
X148354468Y-137267075D01*
X148597689Y-137429590D01*
X148867942Y-137541532D01*
X149154840Y-137598600D01*
X149447360Y-137598600D01*
X149734258Y-137541532D01*
X150004511Y-137429590D01*
X150247732Y-137267075D01*
X150454575Y-137060232D01*
X150576295Y-136878066D01*
X150645922Y-136994955D01*
X150840831Y-137211188D01*
X151074180Y-137385241D01*
X151337001Y-137510425D01*
X151484210Y-137555076D01*
X151714100Y-137433755D01*
X151714100Y-136240600D01*
X151968100Y-136240600D01*
X151968100Y-137433755D01*
X152197990Y-137555076D01*
X152345199Y-137510425D01*
X152608020Y-137385241D01*
X152841369Y-137211188D01*
X153036278Y-136994955D01*
X153111100Y-136869345D01*
X153185922Y-136994955D01*
X153380831Y-137211188D01*
X153614180Y-137385241D01*
X153877001Y-137510425D01*
X154024210Y-137555076D01*
X154254100Y-137433755D01*
X154254100Y-136240600D01*
X151968100Y-136240600D01*
X151714100Y-136240600D01*
X151694100Y-136240600D01*
X151694100Y-135986600D01*
X151714100Y-135986600D01*
X151714100Y-134793445D01*
X151968100Y-134793445D01*
X151968100Y-135986600D01*
X154254100Y-135986600D01*
X154254100Y-134793445D01*
X154024210Y-134672124D01*
X153877001Y-134716775D01*
X153614180Y-134841959D01*
X153380831Y-135016012D01*
X153185922Y-135232245D01*
X153111100Y-135357855D01*
X153036278Y-135232245D01*
X152841369Y-135016012D01*
X152608020Y-134841959D01*
X152345199Y-134716775D01*
X152197990Y-134672124D01*
X151968100Y-134793445D01*
X151714100Y-134793445D01*
X151484210Y-134672124D01*
X151337001Y-134716775D01*
X151074180Y-134841959D01*
X150840831Y-135016012D01*
X150645922Y-135232245D01*
X150576295Y-135349134D01*
X150454575Y-135166968D01*
X150247732Y-134960125D01*
X150004511Y-134797610D01*
X149734258Y-134685668D01*
X149447360Y-134628600D01*
X149154840Y-134628600D01*
X148867942Y-134685668D01*
X148597689Y-134797610D01*
X148354468Y-134960125D01*
X148147625Y-135166968D01*
X148031100Y-135341360D01*
X147914575Y-135166968D01*
X147707732Y-134960125D01*
X147546485Y-134852383D01*
X147537106Y-134757162D01*
X147492082Y-134608736D01*
X147418966Y-134471947D01*
X147395793Y-134443711D01*
X147345222Y-134382089D01*
X147345219Y-134382086D01*
X147320569Y-134352050D01*
X147290533Y-134327400D01*
X147273761Y-134310628D01*
X147294285Y-134293785D01*
X147373637Y-134197094D01*
X147432602Y-134086780D01*
X147443100Y-134052173D01*
X147453598Y-134086780D01*
X147512563Y-134197094D01*
X147591915Y-134293785D01*
X147688606Y-134373137D01*
X147798920Y-134432102D01*
X147918618Y-134468412D01*
X148043100Y-134480672D01*
X149543100Y-134480672D01*
X149667582Y-134468412D01*
X149787280Y-134432102D01*
X149897594Y-134373137D01*
X149994285Y-134293785D01*
X150073637Y-134197094D01*
X150132602Y-134086780D01*
X150168912Y-133967082D01*
X150175145Y-133903800D01*
X152302007Y-133903800D01*
X152310618Y-133906412D01*
X152435100Y-133918672D01*
X154022482Y-133918672D01*
X154049773Y-133951926D01*
X154076910Y-133974197D01*
X154790878Y-134688166D01*
X154737990Y-134672124D01*
X154508100Y-134793445D01*
X154508100Y-135986600D01*
X154528100Y-135986600D01*
X154528100Y-136240600D01*
X154508100Y-136240600D01*
X154508100Y-137433755D01*
X154737990Y-137555076D01*
X154885199Y-137510425D01*
X155148020Y-137385241D01*
X155381369Y-137211188D01*
X155576278Y-136994955D01*
X155645905Y-136878066D01*
X155767625Y-137060232D01*
X155974468Y-137267075D01*
X156217689Y-137429590D01*
X156487942Y-137541532D01*
X156774840Y-137598600D01*
X157067360Y-137598600D01*
X157354258Y-137541532D01*
X157624511Y-137429590D01*
X157867732Y-137267075D01*
X158074575Y-137060232D01*
X158237090Y-136817011D01*
X158349032Y-136546758D01*
X158406100Y-136259860D01*
X158406100Y-135967340D01*
X158349032Y-135680442D01*
X158237090Y-135410189D01*
X158079140Y-135173800D01*
X160521872Y-135173800D01*
X160513028Y-135263600D01*
X160513028Y-136963600D01*
X160525288Y-137088082D01*
X160561598Y-137207780D01*
X160620563Y-137318094D01*
X160699915Y-137414785D01*
X160796606Y-137494137D01*
X160906920Y-137553102D01*
X161026618Y-137589412D01*
X161151100Y-137601672D01*
X162851100Y-137601672D01*
X162975582Y-137589412D01*
X163095280Y-137553102D01*
X163205594Y-137494137D01*
X163302285Y-137414785D01*
X163381637Y-137318094D01*
X163440602Y-137207780D01*
X163462613Y-137135220D01*
X163594468Y-137267075D01*
X163837689Y-137429590D01*
X164107942Y-137541532D01*
X164394840Y-137598600D01*
X164687360Y-137598600D01*
X164974258Y-137541532D01*
X165244511Y-137429590D01*
X165487732Y-137267075D01*
X165694575Y-137060232D01*
X165811100Y-136885840D01*
X165927625Y-137060232D01*
X166134468Y-137267075D01*
X166377689Y-137429590D01*
X166647942Y-137541532D01*
X166934840Y-137598600D01*
X167227360Y-137598600D01*
X167514258Y-137541532D01*
X167784511Y-137429590D01*
X168027732Y-137267075D01*
X168234575Y-137060232D01*
X168351100Y-136885840D01*
X168467625Y-137060232D01*
X168674468Y-137267075D01*
X168917689Y-137429590D01*
X169187942Y-137541532D01*
X169474840Y-137598600D01*
X169767360Y-137598600D01*
X170054258Y-137541532D01*
X170324511Y-137429590D01*
X170567732Y-137267075D01*
X170774575Y-137060232D01*
X170891100Y-136885840D01*
X171007625Y-137060232D01*
X171214468Y-137267075D01*
X171457689Y-137429590D01*
X171727942Y-137541532D01*
X172014840Y-137598600D01*
X172307360Y-137598600D01*
X172594258Y-137541532D01*
X172864511Y-137429590D01*
X173107732Y-137267075D01*
X173314575Y-137060232D01*
X173431100Y-136885840D01*
X173547625Y-137060232D01*
X173754468Y-137267075D01*
X173997689Y-137429590D01*
X174267942Y-137541532D01*
X174554840Y-137598600D01*
X174847360Y-137598600D01*
X175134258Y-137541532D01*
X175404511Y-137429590D01*
X175647732Y-137267075D01*
X175854575Y-137060232D01*
X176017090Y-136817011D01*
X176129032Y-136546758D01*
X176186100Y-136259860D01*
X176186100Y-135967340D01*
X176129032Y-135680442D01*
X176017090Y-135410189D01*
X175854575Y-135166968D01*
X175647732Y-134960125D01*
X175404511Y-134797610D01*
X175134258Y-134685668D01*
X174847360Y-134628600D01*
X174554840Y-134628600D01*
X174267942Y-134685668D01*
X173997689Y-134797610D01*
X173754468Y-134960125D01*
X173547625Y-135166968D01*
X173431100Y-135341360D01*
X173314575Y-135166968D01*
X173107732Y-134960125D01*
X172864511Y-134797610D01*
X172594258Y-134685668D01*
X172307360Y-134628600D01*
X172014840Y-134628600D01*
X171727942Y-134685668D01*
X171457689Y-134797610D01*
X171214468Y-134960125D01*
X171007625Y-135166968D01*
X170891100Y-135341360D01*
X170774575Y-135166968D01*
X170567732Y-134960125D01*
X170324511Y-134797610D01*
X170054258Y-134685668D01*
X169767360Y-134628600D01*
X169474840Y-134628600D01*
X169187942Y-134685668D01*
X168917689Y-134797610D01*
X168674468Y-134960125D01*
X168467625Y-135166968D01*
X168351100Y-135341360D01*
X168234575Y-135166968D01*
X168027732Y-134960125D01*
X167784511Y-134797610D01*
X167514258Y-134685668D01*
X167227360Y-134628600D01*
X166934840Y-134628600D01*
X166657129Y-134683841D01*
X165957702Y-133984414D01*
X165935427Y-133957273D01*
X165827133Y-133868398D01*
X165703581Y-133802358D01*
X165674759Y-133793615D01*
X165672100Y-133478350D01*
X165513350Y-133319600D01*
X164414100Y-133319600D01*
X164414100Y-133339600D01*
X164160100Y-133339600D01*
X164160100Y-133319600D01*
X164140100Y-133319600D01*
X164140100Y-133065600D01*
X164160100Y-133065600D01*
X164160100Y-132066350D01*
X164001350Y-131907600D01*
X163537100Y-131904528D01*
X163412618Y-131916788D01*
X163292920Y-131953098D01*
X163182606Y-132012063D01*
X163085915Y-132091415D01*
X163006563Y-132188106D01*
X162947598Y-132298420D01*
X162937100Y-132333027D01*
X162926602Y-132298420D01*
X162867637Y-132188106D01*
X162788285Y-132091415D01*
X162691594Y-132012063D01*
X162581280Y-131953098D01*
X162461582Y-131916788D01*
X162337100Y-131904528D01*
X160837100Y-131904528D01*
X160712618Y-131916788D01*
X160592920Y-131953098D01*
X160482606Y-132012063D01*
X160385915Y-132091415D01*
X160306563Y-132188106D01*
X160247598Y-132298420D01*
X160211288Y-132418118D01*
X160205055Y-132481400D01*
X159850100Y-132481400D01*
X159850100Y-132284340D01*
X159793032Y-131997442D01*
X159681090Y-131727189D01*
X159518575Y-131483968D01*
X159311732Y-131277125D01*
X159068511Y-131114610D01*
X158798258Y-131002668D01*
X158511360Y-130945600D01*
X158218840Y-130945600D01*
X157931942Y-131002668D01*
X157661689Y-131114610D01*
X157418468Y-131277125D01*
X157211625Y-131483968D01*
X157095100Y-131658360D01*
X156978575Y-131483968D01*
X156856300Y-131361693D01*
X156856300Y-127235117D01*
X156921285Y-127181785D01*
X157000637Y-127085094D01*
X157059602Y-126974780D01*
X157095100Y-126857759D01*
X157130598Y-126974780D01*
X157189563Y-127085094D01*
X157268915Y-127181785D01*
X157365606Y-127261137D01*
X157475920Y-127320102D01*
X157595618Y-127356412D01*
X157720100Y-127368672D01*
X157759350Y-127365600D01*
X157918100Y-127206850D01*
X157918100Y-126247600D01*
X158172100Y-126247600D01*
X158172100Y-127206850D01*
X158330850Y-127365600D01*
X158370100Y-127368672D01*
X158494582Y-127356412D01*
X158614280Y-127320102D01*
X158724594Y-127261137D01*
X158821285Y-127181785D01*
X158900637Y-127085094D01*
X158959602Y-126974780D01*
X158995912Y-126855082D01*
X159008172Y-126730600D01*
X159005100Y-126406350D01*
X158846350Y-126247600D01*
X158172100Y-126247600D01*
X157918100Y-126247600D01*
X157898100Y-126247600D01*
X157898100Y-125993600D01*
X157918100Y-125993600D01*
X157918100Y-125034350D01*
X158172100Y-125034350D01*
X158172100Y-125993600D01*
X158846350Y-125993600D01*
X159005100Y-125834850D01*
X159008172Y-125510600D01*
X158995912Y-125386118D01*
X158959602Y-125266420D01*
X158900637Y-125156106D01*
X158821285Y-125059415D01*
X158724594Y-124980063D01*
X158614280Y-124921098D01*
X158494582Y-124884788D01*
X158370100Y-124872528D01*
X158330850Y-124875600D01*
X158172100Y-125034350D01*
X157918100Y-125034350D01*
X157759350Y-124875600D01*
X157720100Y-124872528D01*
X157595618Y-124884788D01*
X157475920Y-124921098D01*
X157365606Y-124980063D01*
X157268915Y-125059415D01*
X157189563Y-125156106D01*
X157130598Y-125266420D01*
X157095100Y-125383441D01*
X157059602Y-125266420D01*
X157000637Y-125156106D01*
X156921285Y-125059415D01*
X156824594Y-124980063D01*
X156714280Y-124921098D01*
X156594582Y-124884788D01*
X156470100Y-124872528D01*
X156110817Y-124872528D01*
X155081172Y-123842884D01*
X155081172Y-122710600D01*
X155068912Y-122586118D01*
X155032602Y-122466420D01*
X154973637Y-122356106D01*
X154894285Y-122259415D01*
X154797594Y-122180063D01*
X154687280Y-122121098D01*
X154567582Y-122084788D01*
X154443100Y-122072528D01*
X153143100Y-122072528D01*
X153018618Y-122084788D01*
X152898920Y-122121098D01*
X152788606Y-122180063D01*
X152691915Y-122259415D01*
X152612563Y-122356106D01*
X152553598Y-122466420D01*
X152517288Y-122586118D01*
X152505028Y-122710600D01*
X152505028Y-124210600D01*
X152517288Y-124335082D01*
X152553598Y-124454780D01*
X152612563Y-124565094D01*
X152691915Y-124661785D01*
X152788606Y-124741137D01*
X152898920Y-124800102D01*
X152933527Y-124810600D01*
X152898920Y-124821098D01*
X152788606Y-124880063D01*
X152691915Y-124959415D01*
X152612563Y-125056106D01*
X152553598Y-125166420D01*
X152517288Y-125286118D01*
X152505028Y-125410600D01*
X152505028Y-126910600D01*
X152517288Y-127035082D01*
X152553598Y-127154780D01*
X152612563Y-127265094D01*
X152691915Y-127361785D01*
X152788606Y-127441137D01*
X152898920Y-127500102D01*
X153018618Y-127536412D01*
X153081900Y-127542645D01*
X153081900Y-128044074D01*
X153078460Y-128079000D01*
X153081900Y-128113926D01*
X153081900Y-128113935D01*
X153092191Y-128218419D01*
X153132858Y-128352480D01*
X153198898Y-128476032D01*
X153287773Y-128584326D01*
X153314910Y-128606597D01*
X153843901Y-129135589D01*
X153843901Y-130942528D01*
X152435100Y-130942528D01*
X152310618Y-130954788D01*
X152190920Y-130991098D01*
X152080606Y-131050063D01*
X151983915Y-131129415D01*
X151904563Y-131226106D01*
X151845598Y-131336420D01*
X151809288Y-131456118D01*
X151797028Y-131580600D01*
X151797028Y-132481400D01*
X150175145Y-132481400D01*
X150168912Y-132418118D01*
X150132602Y-132298420D01*
X150073637Y-132188106D01*
X149994285Y-132091415D01*
X149897594Y-132012063D01*
X149787280Y-131953098D01*
X149667582Y-131916788D01*
X149543100Y-131904528D01*
X148066722Y-131904528D01*
X151862621Y-128108630D01*
X151936365Y-128018773D01*
X152009482Y-127881983D01*
X152054505Y-127733558D01*
X152069708Y-127579201D01*
X152062528Y-127506305D01*
X152065900Y-127472073D01*
X152065900Y-124039111D01*
X152082437Y-124022574D01*
X152195705Y-123853056D01*
X152273726Y-123664698D01*
X152313500Y-123464739D01*
X152313500Y-123260861D01*
X152273726Y-123060902D01*
X152195705Y-122872544D01*
X152082437Y-122703026D01*
X152057000Y-122677589D01*
X152057000Y-120599047D01*
X152225002Y-120668636D01*
X152424961Y-120708410D01*
X152628839Y-120708410D01*
X152828798Y-120668636D01*
X153017156Y-120590615D01*
X153186674Y-120477347D01*
X153330837Y-120333184D01*
X153444105Y-120163666D01*
X153522126Y-119975308D01*
X153561900Y-119775349D01*
X153561900Y-119571471D01*
X153522126Y-119371512D01*
X153444105Y-119183154D01*
X153330837Y-119013636D01*
X153263500Y-118946299D01*
X153263500Y-110891709D01*
X155562168Y-108593041D01*
X155590274Y-108569975D01*
X155682324Y-108457813D01*
X155750722Y-108329849D01*
X155792842Y-108190999D01*
X155803500Y-108082786D01*
X155803500Y-108082777D01*
X155807063Y-108046601D01*
X155803500Y-108010425D01*
X155803500Y-101997365D01*
X155826225Y-102025055D01*
G36*
X160276125Y-101246232D02*
G01*
X160482968Y-101453075D01*
X160726189Y-101615590D01*
X160896201Y-101686011D01*
X160896200Y-116978743D01*
X160576344Y-117298600D01*
X160552955Y-117298600D01*
X160352996Y-117338374D01*
X160320900Y-117351669D01*
X160320900Y-104772567D01*
X160324464Y-104736381D01*
X160310242Y-104591982D01*
X160268122Y-104453133D01*
X160268122Y-104453132D01*
X160199724Y-104325168D01*
X160107675Y-104213006D01*
X160079569Y-104189940D01*
X157319468Y-101429839D01*
X157503075Y-101246232D01*
X157619600Y-101071840D01*
X157736125Y-101246232D01*
X157942968Y-101453075D01*
X158186189Y-101615590D01*
X158456442Y-101727532D01*
X158743340Y-101784600D01*
X159035860Y-101784600D01*
X159322758Y-101727532D01*
X159593011Y-101615590D01*
X159836232Y-101453075D01*
X160043075Y-101246232D01*
X160159600Y-101071840D01*
X160276125Y-101246232D01*
G37*
X160276125Y-101246232D02*
X160482968Y-101453075D01*
X160726189Y-101615590D01*
X160896201Y-101686011D01*
X160896200Y-116978743D01*
X160576344Y-117298600D01*
X160552955Y-117298600D01*
X160352996Y-117338374D01*
X160320900Y-117351669D01*
X160320900Y-104772567D01*
X160324464Y-104736381D01*
X160310242Y-104591982D01*
X160268122Y-104453133D01*
X160268122Y-104453132D01*
X160199724Y-104325168D01*
X160107675Y-104213006D01*
X160079569Y-104189940D01*
X157319468Y-101429839D01*
X157503075Y-101246232D01*
X157619600Y-101071840D01*
X157736125Y-101246232D01*
X157942968Y-101453075D01*
X158186189Y-101615590D01*
X158456442Y-101727532D01*
X158743340Y-101784600D01*
X159035860Y-101784600D01*
X159322758Y-101727532D01*
X159593011Y-101615590D01*
X159836232Y-101453075D01*
X160043075Y-101246232D01*
X160159600Y-101071840D01*
X160276125Y-101246232D01*
G36*
X165152001Y-114909265D02*
G01*
X165110375Y-114846968D01*
X164903532Y-114640125D01*
X164660311Y-114477610D01*
X164390058Y-114365668D01*
X164103160Y-114308600D01*
X163810640Y-114308600D01*
X163523742Y-114365668D01*
X163253489Y-114477610D01*
X163010268Y-114640125D01*
X162803425Y-114846968D01*
X162640910Y-115090189D01*
X162528968Y-115360442D01*
X162471900Y-115647340D01*
X162471900Y-115939860D01*
X162528968Y-116226758D01*
X162549447Y-116276200D01*
X162471000Y-116276200D01*
X162471000Y-101358307D01*
X162583075Y-101246232D01*
X162745590Y-101003011D01*
X162857532Y-100732758D01*
X162914600Y-100445860D01*
X162914600Y-100153340D01*
X162857532Y-99866442D01*
X162745590Y-99596189D01*
X162583075Y-99352968D01*
X162376232Y-99146125D01*
X162201840Y-99029600D01*
X162376232Y-98913075D01*
X162583075Y-98706232D01*
X162745590Y-98463011D01*
X162857532Y-98192758D01*
X162914600Y-97905860D01*
X162914600Y-97613340D01*
X162857532Y-97326442D01*
X162745590Y-97056189D01*
X162583075Y-96812968D01*
X162376232Y-96606125D01*
X162133011Y-96443610D01*
X161862758Y-96331668D01*
X161575860Y-96274600D01*
X161543310Y-96274600D01*
X162735551Y-95082358D01*
X162883268Y-95230075D01*
X163126489Y-95392590D01*
X163396742Y-95504532D01*
X163683640Y-95561600D01*
X163976160Y-95561600D01*
X164263058Y-95504532D01*
X164533311Y-95392590D01*
X164776532Y-95230075D01*
X164983375Y-95023232D01*
X165145890Y-94780011D01*
X165152000Y-94765260D01*
X165152001Y-114909265D01*
G37*
X165152001Y-114909265D02*
X165110375Y-114846968D01*
X164903532Y-114640125D01*
X164660311Y-114477610D01*
X164390058Y-114365668D01*
X164103160Y-114308600D01*
X163810640Y-114308600D01*
X163523742Y-114365668D01*
X163253489Y-114477610D01*
X163010268Y-114640125D01*
X162803425Y-114846968D01*
X162640910Y-115090189D01*
X162528968Y-115360442D01*
X162471900Y-115647340D01*
X162471900Y-115939860D01*
X162528968Y-116226758D01*
X162549447Y-116276200D01*
X162471000Y-116276200D01*
X162471000Y-101358307D01*
X162583075Y-101246232D01*
X162745590Y-101003011D01*
X162857532Y-100732758D01*
X162914600Y-100445860D01*
X162914600Y-100153340D01*
X162857532Y-99866442D01*
X162745590Y-99596189D01*
X162583075Y-99352968D01*
X162376232Y-99146125D01*
X162201840Y-99029600D01*
X162376232Y-98913075D01*
X162583075Y-98706232D01*
X162745590Y-98463011D01*
X162857532Y-98192758D01*
X162914600Y-97905860D01*
X162914600Y-97613340D01*
X162857532Y-97326442D01*
X162745590Y-97056189D01*
X162583075Y-96812968D01*
X162376232Y-96606125D01*
X162133011Y-96443610D01*
X161862758Y-96331668D01*
X161575860Y-96274600D01*
X161543310Y-96274600D01*
X162735551Y-95082358D01*
X162883268Y-95230075D01*
X163126489Y-95392590D01*
X163396742Y-95504532D01*
X163683640Y-95561600D01*
X163976160Y-95561600D01*
X164263058Y-95504532D01*
X164533311Y-95392590D01*
X164776532Y-95230075D01*
X164983375Y-95023232D01*
X165145890Y-94780011D01*
X165152000Y-94765260D01*
X165152001Y-114909265D01*
G36*
X175092621Y-85843028D02*
G01*
X175481354Y-85960394D01*
X175839880Y-86151025D01*
X176154559Y-86407671D01*
X176413391Y-86720545D01*
X176606524Y-87077736D01*
X176726600Y-87465640D01*
X176769044Y-87869476D01*
X176732242Y-88273864D01*
X176617595Y-88663405D01*
X176429467Y-89023259D01*
X176175028Y-89339716D01*
X175863970Y-89600725D01*
X175508135Y-89796348D01*
X175121077Y-89919129D01*
X174685390Y-89968000D01*
X167611374Y-89968000D01*
X167576499Y-89964565D01*
X167541624Y-89968000D01*
X167541623Y-89968000D01*
X167437316Y-89978273D01*
X167303480Y-90018872D01*
X167180137Y-90084800D01*
X167072025Y-90173525D01*
X167049792Y-90200616D01*
X165959700Y-91290709D01*
X165959700Y-89794775D01*
X165963263Y-89758599D01*
X165959700Y-89722423D01*
X165959700Y-89722414D01*
X165949042Y-89614201D01*
X165906922Y-89475351D01*
X165838524Y-89347387D01*
X165746474Y-89235225D01*
X165718368Y-89212159D01*
X165500508Y-88994299D01*
X165694575Y-88800232D01*
X165811100Y-88625840D01*
X165927625Y-88800232D01*
X166134468Y-89007075D01*
X166377689Y-89169590D01*
X166647942Y-89281532D01*
X166934840Y-89338600D01*
X167227360Y-89338600D01*
X167514258Y-89281532D01*
X167784511Y-89169590D01*
X168027732Y-89007075D01*
X168234575Y-88800232D01*
X168351100Y-88625840D01*
X168467625Y-88800232D01*
X168674468Y-89007075D01*
X168917689Y-89169590D01*
X169187942Y-89281532D01*
X169474840Y-89338600D01*
X169767360Y-89338600D01*
X170054258Y-89281532D01*
X170324511Y-89169590D01*
X170567732Y-89007075D01*
X170774575Y-88800232D01*
X170891100Y-88625840D01*
X171007625Y-88800232D01*
X171214468Y-89007075D01*
X171457689Y-89169590D01*
X171727942Y-89281532D01*
X172014840Y-89338600D01*
X172307360Y-89338600D01*
X172594258Y-89281532D01*
X172864511Y-89169590D01*
X173107732Y-89007075D01*
X173239587Y-88875220D01*
X173261598Y-88947780D01*
X173320563Y-89058094D01*
X173399915Y-89154785D01*
X173496606Y-89234137D01*
X173606920Y-89293102D01*
X173726618Y-89329412D01*
X173851100Y-89341672D01*
X175551100Y-89341672D01*
X175675582Y-89329412D01*
X175795280Y-89293102D01*
X175905594Y-89234137D01*
X176002285Y-89154785D01*
X176081637Y-89058094D01*
X176140602Y-88947780D01*
X176176912Y-88828082D01*
X176189172Y-88703600D01*
X176189172Y-87003600D01*
X176176912Y-86879118D01*
X176140602Y-86759420D01*
X176081637Y-86649106D01*
X176002285Y-86552415D01*
X175905594Y-86473063D01*
X175795280Y-86414098D01*
X175675582Y-86377788D01*
X175551100Y-86365528D01*
X173851100Y-86365528D01*
X173726618Y-86377788D01*
X173606920Y-86414098D01*
X173496606Y-86473063D01*
X173399915Y-86552415D01*
X173320563Y-86649106D01*
X173261598Y-86759420D01*
X173239587Y-86831980D01*
X173107732Y-86700125D01*
X172864511Y-86537610D01*
X172594258Y-86425668D01*
X172307360Y-86368600D01*
X172014840Y-86368600D01*
X171727942Y-86425668D01*
X171457689Y-86537610D01*
X171214468Y-86700125D01*
X171007625Y-86906968D01*
X170891100Y-87081360D01*
X170774575Y-86906968D01*
X170567732Y-86700125D01*
X170324511Y-86537610D01*
X170054258Y-86425668D01*
X169767360Y-86368600D01*
X169474840Y-86368600D01*
X169187942Y-86425668D01*
X168917689Y-86537610D01*
X168674468Y-86700125D01*
X168467625Y-86906968D01*
X168351100Y-87081360D01*
X168234575Y-86906968D01*
X168027732Y-86700125D01*
X167784511Y-86537610D01*
X167514258Y-86425668D01*
X167227360Y-86368600D01*
X166934840Y-86368600D01*
X166647942Y-86425668D01*
X166377689Y-86537610D01*
X166134468Y-86700125D01*
X165927625Y-86906968D01*
X165811100Y-87081360D01*
X165694575Y-86906968D01*
X165487732Y-86700125D01*
X165244511Y-86537610D01*
X164974258Y-86425668D01*
X164687360Y-86368600D01*
X164394840Y-86368600D01*
X164107942Y-86425668D01*
X163837689Y-86537610D01*
X163594468Y-86700125D01*
X163387625Y-86906968D01*
X163271100Y-87081360D01*
X163154575Y-86906968D01*
X162947732Y-86700125D01*
X162704511Y-86537610D01*
X162434258Y-86425668D01*
X162147360Y-86368600D01*
X161854840Y-86368600D01*
X161567942Y-86425668D01*
X161297689Y-86537610D01*
X161054468Y-86700125D01*
X160847625Y-86906968D01*
X160731100Y-87081360D01*
X160614575Y-86906968D01*
X160407732Y-86700125D01*
X160164511Y-86537610D01*
X159894258Y-86425668D01*
X159607360Y-86368600D01*
X159314840Y-86368600D01*
X159027942Y-86425668D01*
X158757689Y-86537610D01*
X158514468Y-86700125D01*
X158307625Y-86906968D01*
X158191100Y-87081360D01*
X158074575Y-86906968D01*
X157867732Y-86700125D01*
X157624511Y-86537610D01*
X157354258Y-86425668D01*
X157067360Y-86368600D01*
X156774840Y-86368600D01*
X156487942Y-86425668D01*
X156217689Y-86537610D01*
X155974468Y-86700125D01*
X155767625Y-86906968D01*
X155605110Y-87150189D01*
X155493168Y-87420442D01*
X155436100Y-87707340D01*
X155436100Y-87999860D01*
X155493168Y-88286758D01*
X155587294Y-88514000D01*
X154599172Y-88514000D01*
X154599172Y-87003600D01*
X154586912Y-86879118D01*
X154550602Y-86759420D01*
X154491637Y-86649106D01*
X154412285Y-86552415D01*
X154315594Y-86473063D01*
X154205280Y-86414098D01*
X154085582Y-86377788D01*
X153961100Y-86365528D01*
X152261100Y-86365528D01*
X152136618Y-86377788D01*
X152016920Y-86414098D01*
X151906606Y-86473063D01*
X151809915Y-86552415D01*
X151730563Y-86649106D01*
X151671598Y-86759420D01*
X151649587Y-86831980D01*
X151517732Y-86700125D01*
X151274511Y-86537610D01*
X151004258Y-86425668D01*
X150717360Y-86368600D01*
X150424840Y-86368600D01*
X150137942Y-86425668D01*
X149867689Y-86537610D01*
X149624468Y-86700125D01*
X149417625Y-86906968D01*
X149301100Y-87081360D01*
X149184575Y-86906968D01*
X148977732Y-86700125D01*
X148734511Y-86537610D01*
X148464258Y-86425668D01*
X148177360Y-86368600D01*
X147884840Y-86368600D01*
X147597942Y-86425668D01*
X147327689Y-86537610D01*
X147084468Y-86700125D01*
X146877625Y-86906968D01*
X146761100Y-87081360D01*
X146644575Y-86906968D01*
X146437732Y-86700125D01*
X146194511Y-86537610D01*
X145924258Y-86425668D01*
X145637360Y-86368600D01*
X145344840Y-86368600D01*
X145057942Y-86425668D01*
X144787689Y-86537610D01*
X144544468Y-86700125D01*
X144337625Y-86906968D01*
X144221100Y-87081360D01*
X144104575Y-86906968D01*
X143897732Y-86700125D01*
X143654511Y-86537610D01*
X143384258Y-86425668D01*
X143097360Y-86368600D01*
X142804840Y-86368600D01*
X142517942Y-86425668D01*
X142247689Y-86537610D01*
X142004468Y-86700125D01*
X141797625Y-86906968D01*
X141681100Y-87081360D01*
X141564575Y-86906968D01*
X141357732Y-86700125D01*
X141114511Y-86537610D01*
X140844258Y-86425668D01*
X140557360Y-86368600D01*
X140264840Y-86368600D01*
X139977942Y-86425668D01*
X139707689Y-86537610D01*
X139464468Y-86700125D01*
X139257625Y-86906968D01*
X139135905Y-87089134D01*
X139066278Y-86972245D01*
X138871369Y-86756012D01*
X138638020Y-86581959D01*
X138375199Y-86456775D01*
X138227990Y-86412124D01*
X137998100Y-86533445D01*
X137998100Y-87726600D01*
X138018100Y-87726600D01*
X138018100Y-87980600D01*
X137998100Y-87980600D01*
X137998100Y-89173755D01*
X138227990Y-89295076D01*
X138375199Y-89250425D01*
X138638020Y-89125241D01*
X138871369Y-88951188D01*
X139066278Y-88734955D01*
X139135905Y-88618066D01*
X139257625Y-88800232D01*
X139464468Y-89007075D01*
X139707689Y-89169590D01*
X139977942Y-89281532D01*
X140264840Y-89338600D01*
X140557360Y-89338600D01*
X140844258Y-89281532D01*
X141114511Y-89169590D01*
X141357732Y-89007075D01*
X141564575Y-88800232D01*
X141681100Y-88625840D01*
X141797625Y-88800232D01*
X142004468Y-89007075D01*
X142247689Y-89169590D01*
X142517942Y-89281532D01*
X142804840Y-89338600D01*
X143097360Y-89338600D01*
X143384258Y-89281532D01*
X143654511Y-89169590D01*
X143897732Y-89007075D01*
X144104575Y-88800232D01*
X144221100Y-88625840D01*
X144337625Y-88800232D01*
X144544468Y-89007075D01*
X144787689Y-89169590D01*
X145057942Y-89281532D01*
X145344840Y-89338600D01*
X145637360Y-89338600D01*
X145924258Y-89281532D01*
X146194511Y-89169590D01*
X146437732Y-89007075D01*
X146644575Y-88800232D01*
X146761100Y-88625840D01*
X146877625Y-88800232D01*
X147084468Y-89007075D01*
X147327689Y-89169590D01*
X147597942Y-89281532D01*
X147884840Y-89338600D01*
X148177360Y-89338600D01*
X148425110Y-89289319D01*
X148538791Y-89403000D01*
X147669075Y-89403000D01*
X147632899Y-89399437D01*
X147596723Y-89403000D01*
X147596714Y-89403000D01*
X147488501Y-89413658D01*
X147349651Y-89455778D01*
X147221687Y-89524176D01*
X147205329Y-89537601D01*
X147169276Y-89567189D01*
X147109525Y-89616225D01*
X147086459Y-89644331D01*
X146519832Y-90210959D01*
X146491726Y-90234025D01*
X146468660Y-90262131D01*
X146468658Y-90262133D01*
X146419093Y-90322528D01*
X146365100Y-90322528D01*
X146240618Y-90334788D01*
X146120920Y-90371098D01*
X146010606Y-90430063D01*
X145913915Y-90509415D01*
X145834563Y-90606106D01*
X145775598Y-90716420D01*
X145739288Y-90836118D01*
X145727028Y-90960600D01*
X145727028Y-92460600D01*
X145739288Y-92585082D01*
X145775598Y-92704780D01*
X145834563Y-92815094D01*
X145913915Y-92911785D01*
X146010606Y-92991137D01*
X146120920Y-93050102D01*
X146155527Y-93060600D01*
X146120920Y-93071098D01*
X146010606Y-93130063D01*
X145913915Y-93209415D01*
X145834563Y-93306106D01*
X145775598Y-93416420D01*
X145739288Y-93536118D01*
X145727028Y-93660600D01*
X145727028Y-95160600D01*
X145739288Y-95285082D01*
X145775598Y-95404780D01*
X145834563Y-95515094D01*
X145913915Y-95611785D01*
X146010606Y-95691137D01*
X146120920Y-95750102D01*
X146240618Y-95786412D01*
X146288578Y-95791135D01*
X146278159Y-95803831D01*
X145503832Y-96578159D01*
X145475726Y-96601225D01*
X145452660Y-96629331D01*
X145452658Y-96629333D01*
X145386200Y-96710313D01*
X145383677Y-96713387D01*
X145315279Y-96841351D01*
X145274506Y-96975763D01*
X145273159Y-96980202D01*
X145258936Y-97124600D01*
X145262501Y-97160793D01*
X145262500Y-103311417D01*
X145258936Y-103347600D01*
X145262500Y-103383783D01*
X145262500Y-103383785D01*
X145273158Y-103491998D01*
X145315278Y-103630848D01*
X145383676Y-103758812D01*
X145475725Y-103870974D01*
X145503832Y-103894041D01*
X147218301Y-105608511D01*
X147218300Y-114338087D01*
X147151382Y-114317788D01*
X147026900Y-114305528D01*
X145326900Y-114305528D01*
X145202418Y-114317788D01*
X145082720Y-114354098D01*
X144982000Y-114407935D01*
X144982000Y-92427374D01*
X144985435Y-92392499D01*
X144977441Y-92311333D01*
X144971727Y-92253316D01*
X144931128Y-92119480D01*
X144865200Y-91996137D01*
X144776475Y-91888025D01*
X144749384Y-91865792D01*
X143084212Y-90200621D01*
X143061975Y-90173525D01*
X142953863Y-90084800D01*
X142830520Y-90018872D01*
X142696684Y-89978273D01*
X142592377Y-89968000D01*
X142592375Y-89968000D01*
X142557500Y-89964565D01*
X142522625Y-89968000D01*
X130273229Y-89968000D01*
X129834378Y-89924971D01*
X129445648Y-89807607D01*
X129087117Y-89616972D01*
X128772440Y-89360328D01*
X128513607Y-89047452D01*
X128320476Y-88690264D01*
X128200400Y-88302359D01*
X128157955Y-87898528D01*
X128175354Y-87707340D01*
X128766100Y-87707340D01*
X128766100Y-87999860D01*
X128823168Y-88286758D01*
X128935110Y-88557011D01*
X129097625Y-88800232D01*
X129304468Y-89007075D01*
X129547689Y-89169590D01*
X129817942Y-89281532D01*
X130104840Y-89338600D01*
X130397360Y-89338600D01*
X130684258Y-89281532D01*
X130954511Y-89169590D01*
X131197732Y-89007075D01*
X131404575Y-88800232D01*
X131521100Y-88625840D01*
X131637625Y-88800232D01*
X131844468Y-89007075D01*
X132087689Y-89169590D01*
X132357942Y-89281532D01*
X132644840Y-89338600D01*
X132937360Y-89338600D01*
X133224258Y-89281532D01*
X133494511Y-89169590D01*
X133737732Y-89007075D01*
X133944575Y-88800232D01*
X134061100Y-88625840D01*
X134177625Y-88800232D01*
X134384468Y-89007075D01*
X134627689Y-89169590D01*
X134897942Y-89281532D01*
X135184840Y-89338600D01*
X135477360Y-89338600D01*
X135764258Y-89281532D01*
X136034511Y-89169590D01*
X136277732Y-89007075D01*
X136484575Y-88800232D01*
X136606295Y-88618066D01*
X136675922Y-88734955D01*
X136870831Y-88951188D01*
X137104180Y-89125241D01*
X137367001Y-89250425D01*
X137514210Y-89295076D01*
X137744100Y-89173755D01*
X137744100Y-87980600D01*
X137724100Y-87980600D01*
X137724100Y-87726600D01*
X137744100Y-87726600D01*
X137744100Y-86533445D01*
X137514210Y-86412124D01*
X137367001Y-86456775D01*
X137104180Y-86581959D01*
X136870831Y-86756012D01*
X136675922Y-86972245D01*
X136606295Y-87089134D01*
X136484575Y-86906968D01*
X136277732Y-86700125D01*
X136034511Y-86537610D01*
X135764258Y-86425668D01*
X135477360Y-86368600D01*
X135184840Y-86368600D01*
X134897942Y-86425668D01*
X134627689Y-86537610D01*
X134384468Y-86700125D01*
X134177625Y-86906968D01*
X134061100Y-87081360D01*
X133944575Y-86906968D01*
X133737732Y-86700125D01*
X133494511Y-86537610D01*
X133224258Y-86425668D01*
X132937360Y-86368600D01*
X132644840Y-86368600D01*
X132357942Y-86425668D01*
X132087689Y-86537610D01*
X131844468Y-86700125D01*
X131637625Y-86906968D01*
X131521100Y-87081360D01*
X131404575Y-86906968D01*
X131197732Y-86700125D01*
X130954511Y-86537610D01*
X130684258Y-86425668D01*
X130397360Y-86368600D01*
X130104840Y-86368600D01*
X129817942Y-86425668D01*
X129547689Y-86537610D01*
X129304468Y-86700125D01*
X129097625Y-86906968D01*
X128935110Y-87150189D01*
X128823168Y-87420442D01*
X128766100Y-87707340D01*
X128175354Y-87707340D01*
X128194758Y-87494135D01*
X128309405Y-87104595D01*
X128497532Y-86744744D01*
X128751974Y-86428281D01*
X129063032Y-86167273D01*
X129418865Y-85971652D01*
X129805919Y-85848871D01*
X130241609Y-85800000D01*
X174653781Y-85800000D01*
X175092621Y-85843028D01*
G37*
X175092621Y-85843028D02*
X175481354Y-85960394D01*
X175839880Y-86151025D01*
X176154559Y-86407671D01*
X176413391Y-86720545D01*
X176606524Y-87077736D01*
X176726600Y-87465640D01*
X176769044Y-87869476D01*
X176732242Y-88273864D01*
X176617595Y-88663405D01*
X176429467Y-89023259D01*
X176175028Y-89339716D01*
X175863970Y-89600725D01*
X175508135Y-89796348D01*
X175121077Y-89919129D01*
X174685390Y-89968000D01*
X167611374Y-89968000D01*
X167576499Y-89964565D01*
X167541624Y-89968000D01*
X167541623Y-89968000D01*
X167437316Y-89978273D01*
X167303480Y-90018872D01*
X167180137Y-90084800D01*
X167072025Y-90173525D01*
X167049792Y-90200616D01*
X165959700Y-91290709D01*
X165959700Y-89794775D01*
X165963263Y-89758599D01*
X165959700Y-89722423D01*
X165959700Y-89722414D01*
X165949042Y-89614201D01*
X165906922Y-89475351D01*
X165838524Y-89347387D01*
X165746474Y-89235225D01*
X165718368Y-89212159D01*
X165500508Y-88994299D01*
X165694575Y-88800232D01*
X165811100Y-88625840D01*
X165927625Y-88800232D01*
X166134468Y-89007075D01*
X166377689Y-89169590D01*
X166647942Y-89281532D01*
X166934840Y-89338600D01*
X167227360Y-89338600D01*
X167514258Y-89281532D01*
X167784511Y-89169590D01*
X168027732Y-89007075D01*
X168234575Y-88800232D01*
X168351100Y-88625840D01*
X168467625Y-88800232D01*
X168674468Y-89007075D01*
X168917689Y-89169590D01*
X169187942Y-89281532D01*
X169474840Y-89338600D01*
X169767360Y-89338600D01*
X170054258Y-89281532D01*
X170324511Y-89169590D01*
X170567732Y-89007075D01*
X170774575Y-88800232D01*
X170891100Y-88625840D01*
X171007625Y-88800232D01*
X171214468Y-89007075D01*
X171457689Y-89169590D01*
X171727942Y-89281532D01*
X172014840Y-89338600D01*
X172307360Y-89338600D01*
X172594258Y-89281532D01*
X172864511Y-89169590D01*
X173107732Y-89007075D01*
X173239587Y-88875220D01*
X173261598Y-88947780D01*
X173320563Y-89058094D01*
X173399915Y-89154785D01*
X173496606Y-89234137D01*
X173606920Y-89293102D01*
X173726618Y-89329412D01*
X173851100Y-89341672D01*
X175551100Y-89341672D01*
X175675582Y-89329412D01*
X175795280Y-89293102D01*
X175905594Y-89234137D01*
X176002285Y-89154785D01*
X176081637Y-89058094D01*
X176140602Y-88947780D01*
X176176912Y-88828082D01*
X176189172Y-88703600D01*
X176189172Y-87003600D01*
X176176912Y-86879118D01*
X176140602Y-86759420D01*
X176081637Y-86649106D01*
X176002285Y-86552415D01*
X175905594Y-86473063D01*
X175795280Y-86414098D01*
X175675582Y-86377788D01*
X175551100Y-86365528D01*
X173851100Y-86365528D01*
X173726618Y-86377788D01*
X173606920Y-86414098D01*
X173496606Y-86473063D01*
X173399915Y-86552415D01*
X173320563Y-86649106D01*
X173261598Y-86759420D01*
X173239587Y-86831980D01*
X173107732Y-86700125D01*
X172864511Y-86537610D01*
X172594258Y-86425668D01*
X172307360Y-86368600D01*
X172014840Y-86368600D01*
X171727942Y-86425668D01*
X171457689Y-86537610D01*
X171214468Y-86700125D01*
X171007625Y-86906968D01*
X170891100Y-87081360D01*
X170774575Y-86906968D01*
X170567732Y-86700125D01*
X170324511Y-86537610D01*
X170054258Y-86425668D01*
X169767360Y-86368600D01*
X169474840Y-86368600D01*
X169187942Y-86425668D01*
X168917689Y-86537610D01*
X168674468Y-86700125D01*
X168467625Y-86906968D01*
X168351100Y-87081360D01*
X168234575Y-86906968D01*
X168027732Y-86700125D01*
X167784511Y-86537610D01*
X167514258Y-86425668D01*
X167227360Y-86368600D01*
X166934840Y-86368600D01*
X166647942Y-86425668D01*
X166377689Y-86537610D01*
X166134468Y-86700125D01*
X165927625Y-86906968D01*
X165811100Y-87081360D01*
X165694575Y-86906968D01*
X165487732Y-86700125D01*
X165244511Y-86537610D01*
X164974258Y-86425668D01*
X164687360Y-86368600D01*
X164394840Y-86368600D01*
X164107942Y-86425668D01*
X163837689Y-86537610D01*
X163594468Y-86700125D01*
X163387625Y-86906968D01*
X163271100Y-87081360D01*
X163154575Y-86906968D01*
X162947732Y-86700125D01*
X162704511Y-86537610D01*
X162434258Y-86425668D01*
X162147360Y-86368600D01*
X161854840Y-86368600D01*
X161567942Y-86425668D01*
X161297689Y-86537610D01*
X161054468Y-86700125D01*
X160847625Y-86906968D01*
X160731100Y-87081360D01*
X160614575Y-86906968D01*
X160407732Y-86700125D01*
X160164511Y-86537610D01*
X159894258Y-86425668D01*
X159607360Y-86368600D01*
X159314840Y-86368600D01*
X159027942Y-86425668D01*
X158757689Y-86537610D01*
X158514468Y-86700125D01*
X158307625Y-86906968D01*
X158191100Y-87081360D01*
X158074575Y-86906968D01*
X157867732Y-86700125D01*
X157624511Y-86537610D01*
X157354258Y-86425668D01*
X157067360Y-86368600D01*
X156774840Y-86368600D01*
X156487942Y-86425668D01*
X156217689Y-86537610D01*
X155974468Y-86700125D01*
X155767625Y-86906968D01*
X155605110Y-87150189D01*
X155493168Y-87420442D01*
X155436100Y-87707340D01*
X155436100Y-87999860D01*
X155493168Y-88286758D01*
X155587294Y-88514000D01*
X154599172Y-88514000D01*
X154599172Y-87003600D01*
X154586912Y-86879118D01*
X154550602Y-86759420D01*
X154491637Y-86649106D01*
X154412285Y-86552415D01*
X154315594Y-86473063D01*
X154205280Y-86414098D01*
X154085582Y-86377788D01*
X153961100Y-86365528D01*
X152261100Y-86365528D01*
X152136618Y-86377788D01*
X152016920Y-86414098D01*
X151906606Y-86473063D01*
X151809915Y-86552415D01*
X151730563Y-86649106D01*
X151671598Y-86759420D01*
X151649587Y-86831980D01*
X151517732Y-86700125D01*
X151274511Y-86537610D01*
X151004258Y-86425668D01*
X150717360Y-86368600D01*
X150424840Y-86368600D01*
X150137942Y-86425668D01*
X149867689Y-86537610D01*
X149624468Y-86700125D01*
X149417625Y-86906968D01*
X149301100Y-87081360D01*
X149184575Y-86906968D01*
X148977732Y-86700125D01*
X148734511Y-86537610D01*
X148464258Y-86425668D01*
X148177360Y-86368600D01*
X147884840Y-86368600D01*
X147597942Y-86425668D01*
X147327689Y-86537610D01*
X147084468Y-86700125D01*
X146877625Y-86906968D01*
X146761100Y-87081360D01*
X146644575Y-86906968D01*
X146437732Y-86700125D01*
X146194511Y-86537610D01*
X145924258Y-86425668D01*
X145637360Y-86368600D01*
X145344840Y-86368600D01*
X145057942Y-86425668D01*
X144787689Y-86537610D01*
X144544468Y-86700125D01*
X144337625Y-86906968D01*
X144221100Y-87081360D01*
X144104575Y-86906968D01*
X143897732Y-86700125D01*
X143654511Y-86537610D01*
X143384258Y-86425668D01*
X143097360Y-86368600D01*
X142804840Y-86368600D01*
X142517942Y-86425668D01*
X142247689Y-86537610D01*
X142004468Y-86700125D01*
X141797625Y-86906968D01*
X141681100Y-87081360D01*
X141564575Y-86906968D01*
X141357732Y-86700125D01*
X141114511Y-86537610D01*
X140844258Y-86425668D01*
X140557360Y-86368600D01*
X140264840Y-86368600D01*
X139977942Y-86425668D01*
X139707689Y-86537610D01*
X139464468Y-86700125D01*
X139257625Y-86906968D01*
X139135905Y-87089134D01*
X139066278Y-86972245D01*
X138871369Y-86756012D01*
X138638020Y-86581959D01*
X138375199Y-86456775D01*
X138227990Y-86412124D01*
X137998100Y-86533445D01*
X137998100Y-87726600D01*
X138018100Y-87726600D01*
X138018100Y-87980600D01*
X137998100Y-87980600D01*
X137998100Y-89173755D01*
X138227990Y-89295076D01*
X138375199Y-89250425D01*
X138638020Y-89125241D01*
X138871369Y-88951188D01*
X139066278Y-88734955D01*
X139135905Y-88618066D01*
X139257625Y-88800232D01*
X139464468Y-89007075D01*
X139707689Y-89169590D01*
X139977942Y-89281532D01*
X140264840Y-89338600D01*
X140557360Y-89338600D01*
X140844258Y-89281532D01*
X141114511Y-89169590D01*
X141357732Y-89007075D01*
X141564575Y-88800232D01*
X141681100Y-88625840D01*
X141797625Y-88800232D01*
X142004468Y-89007075D01*
X142247689Y-89169590D01*
X142517942Y-89281532D01*
X142804840Y-89338600D01*
X143097360Y-89338600D01*
X143384258Y-89281532D01*
X143654511Y-89169590D01*
X143897732Y-89007075D01*
X144104575Y-88800232D01*
X144221100Y-88625840D01*
X144337625Y-88800232D01*
X144544468Y-89007075D01*
X144787689Y-89169590D01*
X145057942Y-89281532D01*
X145344840Y-89338600D01*
X145637360Y-89338600D01*
X145924258Y-89281532D01*
X146194511Y-89169590D01*
X146437732Y-89007075D01*
X146644575Y-88800232D01*
X146761100Y-88625840D01*
X146877625Y-88800232D01*
X147084468Y-89007075D01*
X147327689Y-89169590D01*
X147597942Y-89281532D01*
X147884840Y-89338600D01*
X148177360Y-89338600D01*
X148425110Y-89289319D01*
X148538791Y-89403000D01*
X147669075Y-89403000D01*
X147632899Y-89399437D01*
X147596723Y-89403000D01*
X147596714Y-89403000D01*
X147488501Y-89413658D01*
X147349651Y-89455778D01*
X147221687Y-89524176D01*
X147205329Y-89537601D01*
X147169276Y-89567189D01*
X147109525Y-89616225D01*
X147086459Y-89644331D01*
X146519832Y-90210959D01*
X146491726Y-90234025D01*
X146468660Y-90262131D01*
X146468658Y-90262133D01*
X146419093Y-90322528D01*
X146365100Y-90322528D01*
X146240618Y-90334788D01*
X146120920Y-90371098D01*
X146010606Y-90430063D01*
X145913915Y-90509415D01*
X145834563Y-90606106D01*
X145775598Y-90716420D01*
X145739288Y-90836118D01*
X145727028Y-90960600D01*
X145727028Y-92460600D01*
X145739288Y-92585082D01*
X145775598Y-92704780D01*
X145834563Y-92815094D01*
X145913915Y-92911785D01*
X146010606Y-92991137D01*
X146120920Y-93050102D01*
X146155527Y-93060600D01*
X146120920Y-93071098D01*
X146010606Y-93130063D01*
X145913915Y-93209415D01*
X145834563Y-93306106D01*
X145775598Y-93416420D01*
X145739288Y-93536118D01*
X145727028Y-93660600D01*
X145727028Y-95160600D01*
X145739288Y-95285082D01*
X145775598Y-95404780D01*
X145834563Y-95515094D01*
X145913915Y-95611785D01*
X146010606Y-95691137D01*
X146120920Y-95750102D01*
X146240618Y-95786412D01*
X146288578Y-95791135D01*
X146278159Y-95803831D01*
X145503832Y-96578159D01*
X145475726Y-96601225D01*
X145452660Y-96629331D01*
X145452658Y-96629333D01*
X145386200Y-96710313D01*
X145383677Y-96713387D01*
X145315279Y-96841351D01*
X145274506Y-96975763D01*
X145273159Y-96980202D01*
X145258936Y-97124600D01*
X145262501Y-97160793D01*
X145262500Y-103311417D01*
X145258936Y-103347600D01*
X145262500Y-103383783D01*
X145262500Y-103383785D01*
X145273158Y-103491998D01*
X145315278Y-103630848D01*
X145383676Y-103758812D01*
X145475725Y-103870974D01*
X145503832Y-103894041D01*
X147218301Y-105608511D01*
X147218300Y-114338087D01*
X147151382Y-114317788D01*
X147026900Y-114305528D01*
X145326900Y-114305528D01*
X145202418Y-114317788D01*
X145082720Y-114354098D01*
X144982000Y-114407935D01*
X144982000Y-92427374D01*
X144985435Y-92392499D01*
X144977441Y-92311333D01*
X144971727Y-92253316D01*
X144931128Y-92119480D01*
X144865200Y-91996137D01*
X144776475Y-91888025D01*
X144749384Y-91865792D01*
X143084212Y-90200621D01*
X143061975Y-90173525D01*
X142953863Y-90084800D01*
X142830520Y-90018872D01*
X142696684Y-89978273D01*
X142592377Y-89968000D01*
X142592375Y-89968000D01*
X142557500Y-89964565D01*
X142522625Y-89968000D01*
X130273229Y-89968000D01*
X129834378Y-89924971D01*
X129445648Y-89807607D01*
X129087117Y-89616972D01*
X128772440Y-89360328D01*
X128513607Y-89047452D01*
X128320476Y-88690264D01*
X128200400Y-88302359D01*
X128157955Y-87898528D01*
X128175354Y-87707340D01*
X128766100Y-87707340D01*
X128766100Y-87999860D01*
X128823168Y-88286758D01*
X128935110Y-88557011D01*
X129097625Y-88800232D01*
X129304468Y-89007075D01*
X129547689Y-89169590D01*
X129817942Y-89281532D01*
X130104840Y-89338600D01*
X130397360Y-89338600D01*
X130684258Y-89281532D01*
X130954511Y-89169590D01*
X131197732Y-89007075D01*
X131404575Y-88800232D01*
X131521100Y-88625840D01*
X131637625Y-88800232D01*
X131844468Y-89007075D01*
X132087689Y-89169590D01*
X132357942Y-89281532D01*
X132644840Y-89338600D01*
X132937360Y-89338600D01*
X133224258Y-89281532D01*
X133494511Y-89169590D01*
X133737732Y-89007075D01*
X133944575Y-88800232D01*
X134061100Y-88625840D01*
X134177625Y-88800232D01*
X134384468Y-89007075D01*
X134627689Y-89169590D01*
X134897942Y-89281532D01*
X135184840Y-89338600D01*
X135477360Y-89338600D01*
X135764258Y-89281532D01*
X136034511Y-89169590D01*
X136277732Y-89007075D01*
X136484575Y-88800232D01*
X136606295Y-88618066D01*
X136675922Y-88734955D01*
X136870831Y-88951188D01*
X137104180Y-89125241D01*
X137367001Y-89250425D01*
X137514210Y-89295076D01*
X137744100Y-89173755D01*
X137744100Y-87980600D01*
X137724100Y-87980600D01*
X137724100Y-87726600D01*
X137744100Y-87726600D01*
X137744100Y-86533445D01*
X137514210Y-86412124D01*
X137367001Y-86456775D01*
X137104180Y-86581959D01*
X136870831Y-86756012D01*
X136675922Y-86972245D01*
X136606295Y-87089134D01*
X136484575Y-86906968D01*
X136277732Y-86700125D01*
X136034511Y-86537610D01*
X135764258Y-86425668D01*
X135477360Y-86368600D01*
X135184840Y-86368600D01*
X134897942Y-86425668D01*
X134627689Y-86537610D01*
X134384468Y-86700125D01*
X134177625Y-86906968D01*
X134061100Y-87081360D01*
X133944575Y-86906968D01*
X133737732Y-86700125D01*
X133494511Y-86537610D01*
X133224258Y-86425668D01*
X132937360Y-86368600D01*
X132644840Y-86368600D01*
X132357942Y-86425668D01*
X132087689Y-86537610D01*
X131844468Y-86700125D01*
X131637625Y-86906968D01*
X131521100Y-87081360D01*
X131404575Y-86906968D01*
X131197732Y-86700125D01*
X130954511Y-86537610D01*
X130684258Y-86425668D01*
X130397360Y-86368600D01*
X130104840Y-86368600D01*
X129817942Y-86425668D01*
X129547689Y-86537610D01*
X129304468Y-86700125D01*
X129097625Y-86906968D01*
X128935110Y-87150189D01*
X128823168Y-87420442D01*
X128766100Y-87707340D01*
X128175354Y-87707340D01*
X128194758Y-87494135D01*
X128309405Y-87104595D01*
X128497532Y-86744744D01*
X128751974Y-86428281D01*
X129063032Y-86167273D01*
X129418865Y-85971652D01*
X129805919Y-85848871D01*
X130241609Y-85800000D01*
X174653781Y-85800000D01*
X175092621Y-85843028D01*
G36*
X152656125Y-101246232D02*
G01*
X152862968Y-101453075D01*
X153106189Y-101615590D01*
X153376442Y-101727532D01*
X153663340Y-101784600D01*
X153955860Y-101784600D01*
X154242758Y-101727532D01*
X154330300Y-101691271D01*
X154330300Y-102192565D01*
X154330301Y-102192575D01*
X154330300Y-107741491D01*
X152057000Y-110014791D01*
X152057000Y-101559470D01*
X152216232Y-101453075D01*
X152423075Y-101246232D01*
X152539600Y-101071840D01*
X152656125Y-101246232D01*
G37*
X152656125Y-101246232D02*
X152862968Y-101453075D01*
X153106189Y-101615590D01*
X153376442Y-101727532D01*
X153663340Y-101784600D01*
X153955860Y-101784600D01*
X154242758Y-101727532D01*
X154330300Y-101691271D01*
X154330300Y-102192565D01*
X154330301Y-102192575D01*
X154330300Y-107741491D01*
X152057000Y-110014791D01*
X152057000Y-101559470D01*
X152216232Y-101453075D01*
X152423075Y-101246232D01*
X152539600Y-101071840D01*
X152656125Y-101246232D01*
M02*
