G04 #@! TF.GenerationSoftware,KiCad,Pcbnew,5.1.5*
G04 #@! TF.CreationDate,2020-04-17T15:57:54+02:00*
G04 #@! TF.ProjectId,eco_charger_ltc3105,65636f5f-6368-4617-9267-65725f6c7463,rev?*
G04 #@! TF.SameCoordinates,Original*
G04 #@! TF.FileFunction,Soldermask,Top*
G04 #@! TF.FilePolarity,Negative*
%FSLAX46Y46*%
G04 Gerber Fmt 4.6, Leading zero omitted, Abs format (unit mm)*
G04 Created by KiCad (PCBNEW 5.1.5) date 2020-04-17 15:57:54*
%MOMM*%
%LPD*%
G04 APERTURE LIST*
%ADD10R,2.600000X2.500000*%
%ADD11O,2.190700X3.981400*%
%ADD12O,3.041600X1.720800*%
%ADD13R,1.700000X1.900000*%
%ADD14R,1.900000X1.700000*%
%ADD15R,1.797000X0.831800*%
G04 APERTURE END LIST*
D10*
X147151100Y-96102000D03*
X147151100Y-101002000D03*
D11*
X146010000Y-115824000D03*
X141010000Y-115824000D03*
X146090000Y-89662000D03*
X151090000Y-89662000D03*
X156074100Y-115824000D03*
X151074100Y-115824000D03*
D12*
X141605000Y-92837000D03*
X141605000Y-97917000D03*
X141605000Y-95377000D03*
X141605000Y-105156000D03*
X141605000Y-107696000D03*
X141605000Y-102616000D03*
D13*
X152626740Y-96758441D03*
X154526740Y-96758441D03*
D14*
X147320000Y-105598000D03*
X147320000Y-103698000D03*
X151638000Y-109662000D03*
X151638000Y-107762000D03*
X149479000Y-107762000D03*
X149479000Y-109662000D03*
X145161000Y-103698000D03*
X145161000Y-105598000D03*
D15*
X152766700Y-104204200D03*
X152766700Y-103543800D03*
X152766700Y-102908800D03*
X152766700Y-102248400D03*
X152766700Y-101613400D03*
X152766700Y-100953000D03*
X157135500Y-100953000D03*
X157135500Y-101613400D03*
X157135500Y-102248400D03*
X157135500Y-102908800D03*
X157135500Y-103543800D03*
X157135500Y-104204200D03*
D13*
X152626100Y-98778600D03*
X154526100Y-98778600D03*
D14*
X154940000Y-107762000D03*
X154940000Y-109662000D03*
X147320000Y-107762000D03*
X147320000Y-109662000D03*
X145161000Y-107762000D03*
X145161000Y-109662000D03*
X157226000Y-107762000D03*
X157226000Y-109662000D03*
X156337000Y-93914000D03*
X156337000Y-92014000D03*
M02*
