M48
; DRILL file {KiCad 5.1.5} date Fri 17 Apr 2020 03:57:48 PM CEST
; FORMAT={-:-/ absolute / inch / decimal}
; #@! TF.CreationDate,2020-04-17T15:57:48+02:00
; #@! TF.GenerationSoftware,Kicad,Pcbnew,5.1.5
FMAT,2
INCH
T1C0.0157
T2C0.0320
T3C0.0470
T4C0.1102
%
G90
G05
T1
X5.8574Y-4.0826
X5.88Y-4.18
X6.02Y-4.155
X6.055Y-3.69
X6.165Y-4.145
T2
X5.575Y-3.655
X5.575Y-3.755
X5.575Y-3.855
X5.575Y-4.04
X5.575Y-4.14
X5.575Y-4.24
T3
X5.9478Y-4.56
X6.1446Y-4.56
X5.5516Y-4.56
X5.7484Y-4.56
X5.7516Y-3.53
X5.9484Y-3.53
T4
X5.5Y-4.82
X5.505Y-3.45
X6.19Y-3.45
X6.19Y-4.82
T0
M30
