M48
; DRILL file {KiCad 5.1.5} date Fri 17 Apr 2020 04:14:39 PM CEST
; FORMAT={-:-/ absolute / inch / decimal}
; #@! TF.CreationDate,2020-04-17T16:14:39+02:00
; #@! TF.GenerationSoftware,Kicad,Pcbnew,5.1.5
FMAT,2
INCH
T1C0.0157
T2C0.0300
T3C0.0394
T4C0.0598
T5C0.0787
T6C0.1772
%
G90
G05
T1
X4.7777Y-4.5658
X4.9777Y-5.0658
X5.9277Y-4.6658
X5.9777Y-4.7658
X6.9777Y-4.3658
X6.9777Y-4.4658
T2
X6.1777Y-5.1658
X6.2777Y-5.1658
X6.3777Y-5.1658
X6.4777Y-5.1658
X6.5777Y-5.1658
X6.6777Y-5.1658
X6.7777Y-5.1658
T3
X4.0777Y-3.8658
X4.0777Y-3.9658
X4.0777Y-4.0658
X4.2777Y-3.0658
X4.2777Y-3.1658
X4.2777Y-3.2658
X4.2777Y-3.3658
X4.2777Y-3.4658
X4.2777Y-3.5658
X4.2777Y-3.6658
X4.2777Y-3.7658
X4.2777Y-3.8658
X4.2777Y-3.9658
X4.2777Y-4.0658
X4.2777Y-4.1658
X4.2777Y-4.2658
X4.2777Y-4.3658
X4.2777Y-4.4658
X4.2777Y-4.5658
X4.2777Y-4.6658
X4.2777Y-4.7658
X4.2777Y-4.8658
X4.3777Y-3.0658
X4.3777Y-3.1658
X4.3777Y-3.2658
X4.3777Y-3.3658
X4.3777Y-3.4658
X4.3777Y-3.5658
X4.3777Y-3.6658
X4.3777Y-3.7658
X4.3777Y-3.8658
X4.3777Y-3.9658
X4.3777Y-4.0658
X4.3777Y-4.1658
X4.3777Y-4.2658
X4.3777Y-4.3658
X4.3777Y-4.4658
X4.3777Y-4.5658
X4.3777Y-4.6658
X4.3777Y-4.7658
X4.3777Y-4.8658
X6.6777Y-3.0658
X6.6777Y-3.1658
X6.6777Y-3.2658
X6.6777Y-3.3658
X6.6777Y-3.4658
X6.6777Y-3.5658
X6.6777Y-3.6658
X6.6777Y-3.7658
X6.6777Y-3.8658
X6.6777Y-3.9658
X6.6777Y-4.0658
X6.6777Y-4.1658
X6.6777Y-4.2658
X6.6777Y-4.3658
X6.6777Y-4.4658
X6.6777Y-4.5658
X6.6777Y-4.6658
X6.6777Y-4.7658
X6.6777Y-4.8658
X6.7777Y-3.0658
X6.7777Y-3.1658
X6.7777Y-3.2658
X6.7777Y-3.3658
X6.7777Y-3.4658
X6.7777Y-3.5658
X6.7777Y-3.6658
X6.7777Y-3.7658
X6.7777Y-3.8658
X6.7777Y-3.9658
X6.7777Y-4.0658
X6.7777Y-4.1658
X6.7777Y-4.2658
X6.7777Y-4.3658
X6.7777Y-4.4658
X6.7777Y-4.5658
X6.7777Y-4.6658
X6.7777Y-4.7658
X6.7777Y-4.8658
T4
X5.2777Y-5.2658
X5.4777Y-5.2658
X4.4777Y-5.2658
X4.6777Y-5.2658
X4.0777Y-5.2658
X4.2777Y-5.2658
X6.9777Y-3.3658
X6.9777Y-3.5658
X4.8777Y-5.2658
X5.0777Y-5.2658
X5.6777Y-5.2658
X5.8777Y-5.2658
X4.0777Y-3.2658
X4.0777Y-3.4658
T5
X1.7943Y-2.6744
X1.9616Y-3.265
X1.9616Y-3.9146
X1.9911Y-4.2394
X1.9911Y-5.3417
X3.3002Y-3.265
X3.3002Y-3.9146
X3.4872Y-4.2394
X3.4872Y-5.3417
X3.8968Y-5.4024
X3.9067Y-2.9418
X7.1448Y-3.0008
X7.1941Y-5.3926
T6
X1.6368Y-3.1567
X1.6368Y-3.9441
X1.6368Y-4.7315
X1.9518Y-2.1724
X1.9518Y-5.7157
X2.6604Y-2.015
X2.6604Y-5.8732
X5.9675Y-2.015
X5.9675Y-5.8732
X6.6762Y-2.1724
X6.6762Y-5.7157
X6.9911Y-3.1567
X6.9911Y-3.9441
X6.9911Y-4.7315
T0
M30
