G04 #@! TF.GenerationSoftware,KiCad,Pcbnew,5.1.5*
G04 #@! TF.CreationDate,2020-04-17T16:14:37+02:00*
G04 #@! TF.ProjectId,eco_nucleo64_interconnect,65636f5f-6e75-4636-9c65-6f36345f696e,rev?*
G04 #@! TF.SameCoordinates,Original*
G04 #@! TF.FileFunction,Soldermask,Top*
G04 #@! TF.FilePolarity,Negative*
%FSLAX46Y46*%
G04 Gerber Fmt 4.6, Leading zero omitted, Abs format (unit mm)*
G04 Created by KiCad (PCBNEW 5.1.5) date 2020-04-17 16:14:37*
%MOMM*%
%LPD*%
G04 APERTURE LIST*
%ADD10C,3.400000*%
%ADD11R,3.400000X3.400000*%
%ADD12R,2.100000X2.100000*%
%ADD13O,2.100000X2.100000*%
%ADD14R,1.924000X1.924000*%
%ADD15C,1.924000*%
%ADD16R,1.900000X1.650000*%
%ADD17R,1.900000X1.700000*%
G04 APERTURE END LIST*
D10*
X139134000Y-133751000D03*
D11*
X134054000Y-133751000D03*
X144214000Y-133751000D03*
D10*
X149294000Y-133751000D03*
D12*
X103574000Y-103271000D03*
D13*
X103574000Y-100731000D03*
X103574000Y-98191000D03*
D14*
X172154000Y-131211000D03*
D15*
X169614000Y-131211000D03*
X167074000Y-131211000D03*
X164534000Y-131211000D03*
X161994000Y-131211000D03*
X159454000Y-131211000D03*
X156914000Y-131211000D03*
D10*
X108654000Y-133751000D03*
D11*
X103574000Y-133751000D03*
D10*
X128974000Y-133751000D03*
D11*
X123894000Y-133751000D03*
X113734000Y-133751000D03*
D10*
X118814000Y-133751000D03*
D13*
X172154000Y-123591000D03*
X169614000Y-123591000D03*
X172154000Y-121051000D03*
X169614000Y-121051000D03*
X172154000Y-118511000D03*
X169614000Y-118511000D03*
X172154000Y-115971000D03*
X169614000Y-115971000D03*
X172154000Y-113431000D03*
X169614000Y-113431000D03*
X172154000Y-110891000D03*
X169614000Y-110891000D03*
X172154000Y-108351000D03*
X169614000Y-108351000D03*
X172154000Y-105811000D03*
X169614000Y-105811000D03*
X172154000Y-103271000D03*
X169614000Y-103271000D03*
X172154000Y-100731000D03*
X169614000Y-100731000D03*
X172154000Y-98191000D03*
X169614000Y-98191000D03*
X172154000Y-95651000D03*
X169614000Y-95651000D03*
X172154000Y-93111000D03*
X169614000Y-93111000D03*
X172154000Y-90571000D03*
X169614000Y-90571000D03*
X172154000Y-88031000D03*
X169614000Y-88031000D03*
X172154000Y-85491000D03*
X169614000Y-85491000D03*
X172154000Y-82951000D03*
X169614000Y-82951000D03*
X172154000Y-80411000D03*
X169614000Y-80411000D03*
X172154000Y-77871000D03*
D12*
X169614000Y-77871000D03*
X108654000Y-77871000D03*
D13*
X111194000Y-77871000D03*
X108654000Y-80411000D03*
X111194000Y-80411000D03*
X108654000Y-82951000D03*
X111194000Y-82951000D03*
X108654000Y-85491000D03*
X111194000Y-85491000D03*
X108654000Y-88031000D03*
X111194000Y-88031000D03*
X108654000Y-90571000D03*
X111194000Y-90571000D03*
X108654000Y-93111000D03*
X111194000Y-93111000D03*
X108654000Y-95651000D03*
X111194000Y-95651000D03*
X108654000Y-98191000D03*
X111194000Y-98191000D03*
X108654000Y-100731000D03*
X111194000Y-100731000D03*
X108654000Y-103271000D03*
X111194000Y-103271000D03*
X108654000Y-105811000D03*
X111194000Y-105811000D03*
X108654000Y-108351000D03*
X111194000Y-108351000D03*
X108654000Y-110891000D03*
X111194000Y-110891000D03*
X108654000Y-113431000D03*
X111194000Y-113431000D03*
X108654000Y-115971000D03*
X111194000Y-115971000D03*
X108654000Y-118511000D03*
X111194000Y-118511000D03*
X108654000Y-121051000D03*
X111194000Y-121051000D03*
X108654000Y-123591000D03*
X111194000Y-123591000D03*
D16*
X116274000Y-103271000D03*
X118774000Y-103271000D03*
D17*
X116274000Y-98191000D03*
X118974000Y-98191000D03*
X116274000Y-100731000D03*
X118974000Y-100731000D03*
D11*
X103574000Y-82951000D03*
D10*
X103574000Y-88031000D03*
D11*
X177234000Y-90571000D03*
D10*
X177234000Y-85491000D03*
M02*
