G04 #@! TF.GenerationSoftware,KiCad,Pcbnew,5.1.5*
G04 #@! TF.CreationDate,2020-04-17T16:14:37+02:00*
G04 #@! TF.ProjectId,eco_nucleo64_interconnect,65636f5f-6e75-4636-9c65-6f36345f696e,rev?*
G04 #@! TF.SameCoordinates,Original*
G04 #@! TF.FileFunction,Legend,Bot*
G04 #@! TF.FilePolarity,Positive*
%FSLAX46Y46*%
G04 Gerber Fmt 4.6, Leading zero omitted, Abs format (unit mm)*
G04 Created by KiCad (PCBNEW 5.1.5) date 2020-04-17 16:14:37*
%MOMM*%
%LPD*%
G04 APERTURE LIST*
%ADD10C,0.120000*%
%ADD11C,0.150000*%
G04 APERTURE END LIST*
D10*
X124774000Y-116491000D02*
X124774000Y-115291000D01*
X123014000Y-115291000D02*
X123014000Y-116491000D01*
X145094000Y-128081000D02*
X145094000Y-126881000D01*
X143334000Y-126881000D02*
X143334000Y-128081000D01*
X145874000Y-126881000D02*
X145874000Y-128081000D01*
X147634000Y-128081000D02*
X147634000Y-126881000D01*
X128094000Y-116721000D02*
X128094000Y-117921000D01*
X129854000Y-117921000D02*
X129854000Y-116721000D01*
X133544000Y-115661000D02*
X132084000Y-115661000D01*
X133544000Y-118821000D02*
X131384000Y-118821000D01*
X133544000Y-118821000D02*
X133544000Y-117891000D01*
X133544000Y-115661000D02*
X133544000Y-116591000D01*
X151324000Y-125501000D02*
X151324000Y-126431000D01*
X151324000Y-128661000D02*
X151324000Y-127731000D01*
X151324000Y-128661000D02*
X149164000Y-128661000D01*
X151324000Y-125501000D02*
X149864000Y-125501000D01*
X143704000Y-115661000D02*
X143704000Y-116591000D01*
X143704000Y-118821000D02*
X143704000Y-117891000D01*
X143704000Y-118821000D02*
X141544000Y-118821000D01*
X143704000Y-115661000D02*
X142244000Y-115661000D01*
X140014000Y-117921000D02*
X140014000Y-116721000D01*
X138254000Y-116721000D02*
X138254000Y-117921000D01*
X143464000Y-120171000D02*
X142264000Y-120171000D01*
X142264000Y-121931000D02*
X143464000Y-121931000D01*
D11*
X126046380Y-115724333D02*
X125570190Y-115391000D01*
X126046380Y-115152904D02*
X125046380Y-115152904D01*
X125046380Y-115533857D01*
X125094000Y-115629095D01*
X125141619Y-115676714D01*
X125236857Y-115724333D01*
X125379714Y-115724333D01*
X125474952Y-115676714D01*
X125522571Y-115629095D01*
X125570190Y-115533857D01*
X125570190Y-115152904D01*
X125046380Y-116629095D02*
X125046380Y-116152904D01*
X125522571Y-116105285D01*
X125474952Y-116152904D01*
X125427333Y-116248142D01*
X125427333Y-116486238D01*
X125474952Y-116581476D01*
X125522571Y-116629095D01*
X125617809Y-116676714D01*
X125855904Y-116676714D01*
X125951142Y-116629095D01*
X125998761Y-116581476D01*
X126046380Y-116486238D01*
X126046380Y-116248142D01*
X125998761Y-116152904D01*
X125951142Y-116105285D01*
X142966380Y-127314333D02*
X142490190Y-126981000D01*
X142966380Y-126742904D02*
X141966380Y-126742904D01*
X141966380Y-127123857D01*
X142014000Y-127219095D01*
X142061619Y-127266714D01*
X142156857Y-127314333D01*
X142299714Y-127314333D01*
X142394952Y-127266714D01*
X142442571Y-127219095D01*
X142490190Y-127123857D01*
X142490190Y-126742904D01*
X142299714Y-128171476D02*
X142966380Y-128171476D01*
X141918761Y-127933380D02*
X142633047Y-127695285D01*
X142633047Y-128314333D01*
X145506380Y-127314333D02*
X145030190Y-126981000D01*
X145506380Y-126742904D02*
X144506380Y-126742904D01*
X144506380Y-127123857D01*
X144554000Y-127219095D01*
X144601619Y-127266714D01*
X144696857Y-127314333D01*
X144839714Y-127314333D01*
X144934952Y-127266714D01*
X144982571Y-127219095D01*
X145030190Y-127123857D01*
X145030190Y-126742904D01*
X144506380Y-127647666D02*
X144506380Y-128266714D01*
X144887333Y-127933380D01*
X144887333Y-128076238D01*
X144934952Y-128171476D01*
X144982571Y-128219095D01*
X145077809Y-128266714D01*
X145315904Y-128266714D01*
X145411142Y-128219095D01*
X145458761Y-128171476D01*
X145506380Y-128076238D01*
X145506380Y-127790523D01*
X145458761Y-127695285D01*
X145411142Y-127647666D01*
X131126380Y-117154333D02*
X130650190Y-116821000D01*
X131126380Y-116582904D02*
X130126380Y-116582904D01*
X130126380Y-116963857D01*
X130174000Y-117059095D01*
X130221619Y-117106714D01*
X130316857Y-117154333D01*
X130459714Y-117154333D01*
X130554952Y-117106714D01*
X130602571Y-117059095D01*
X130650190Y-116963857D01*
X130650190Y-116582904D01*
X130126380Y-118011476D02*
X130126380Y-117821000D01*
X130174000Y-117725761D01*
X130221619Y-117678142D01*
X130364476Y-117582904D01*
X130554952Y-117535285D01*
X130935904Y-117535285D01*
X131031142Y-117582904D01*
X131078761Y-117630523D01*
X131126380Y-117725761D01*
X131126380Y-117916238D01*
X131078761Y-118011476D01*
X131031142Y-118059095D01*
X130935904Y-118106714D01*
X130697809Y-118106714D01*
X130602571Y-118059095D01*
X130554952Y-118011476D01*
X130507333Y-117916238D01*
X130507333Y-117725761D01*
X130554952Y-117630523D01*
X130602571Y-117582904D01*
X130697809Y-117535285D01*
X132879238Y-120288619D02*
X132974476Y-120241000D01*
X133069714Y-120145761D01*
X133212571Y-120002904D01*
X133307809Y-119955285D01*
X133403047Y-119955285D01*
X133355428Y-120193380D02*
X133450666Y-120145761D01*
X133545904Y-120050523D01*
X133593523Y-119860047D01*
X133593523Y-119526714D01*
X133545904Y-119336238D01*
X133450666Y-119241000D01*
X133355428Y-119193380D01*
X133164952Y-119193380D01*
X133069714Y-119241000D01*
X132974476Y-119336238D01*
X132926857Y-119526714D01*
X132926857Y-119860047D01*
X132974476Y-120050523D01*
X133069714Y-120145761D01*
X133164952Y-120193380D01*
X133355428Y-120193380D01*
X132593523Y-119193380D02*
X131974476Y-119193380D01*
X132307809Y-119574333D01*
X132164952Y-119574333D01*
X132069714Y-119621952D01*
X132022095Y-119669571D01*
X131974476Y-119764809D01*
X131974476Y-120002904D01*
X132022095Y-120098142D01*
X132069714Y-120145761D01*
X132164952Y-120193380D01*
X132450666Y-120193380D01*
X132545904Y-120145761D01*
X132593523Y-120098142D01*
X150659238Y-130128619D02*
X150754476Y-130081000D01*
X150849714Y-129985761D01*
X150992571Y-129842904D01*
X151087809Y-129795285D01*
X151183047Y-129795285D01*
X151135428Y-130033380D02*
X151230666Y-129985761D01*
X151325904Y-129890523D01*
X151373523Y-129700047D01*
X151373523Y-129366714D01*
X151325904Y-129176238D01*
X151230666Y-129081000D01*
X151135428Y-129033380D01*
X150944952Y-129033380D01*
X150849714Y-129081000D01*
X150754476Y-129176238D01*
X150706857Y-129366714D01*
X150706857Y-129700047D01*
X150754476Y-129890523D01*
X150849714Y-129985761D01*
X150944952Y-130033380D01*
X151135428Y-130033380D01*
X150325904Y-129128619D02*
X150278285Y-129081000D01*
X150183047Y-129033380D01*
X149944952Y-129033380D01*
X149849714Y-129081000D01*
X149802095Y-129128619D01*
X149754476Y-129223857D01*
X149754476Y-129319095D01*
X149802095Y-129461952D01*
X150373523Y-130033380D01*
X149754476Y-130033380D01*
X143039238Y-120288619D02*
X143134476Y-120241000D01*
X143229714Y-120145761D01*
X143372571Y-120002904D01*
X143467809Y-119955285D01*
X143563047Y-119955285D01*
X143515428Y-120193380D02*
X143610666Y-120145761D01*
X143705904Y-120050523D01*
X143753523Y-119860047D01*
X143753523Y-119526714D01*
X143705904Y-119336238D01*
X143610666Y-119241000D01*
X143515428Y-119193380D01*
X143324952Y-119193380D01*
X143229714Y-119241000D01*
X143134476Y-119336238D01*
X143086857Y-119526714D01*
X143086857Y-119860047D01*
X143134476Y-120050523D01*
X143229714Y-120145761D01*
X143324952Y-120193380D01*
X143515428Y-120193380D01*
X142134476Y-120193380D02*
X142705904Y-120193380D01*
X142420190Y-120193380D02*
X142420190Y-119193380D01*
X142515428Y-119336238D01*
X142610666Y-119431476D01*
X142705904Y-119479095D01*
X141286380Y-117154333D02*
X140810190Y-116821000D01*
X141286380Y-116582904D02*
X140286380Y-116582904D01*
X140286380Y-116963857D01*
X140334000Y-117059095D01*
X140381619Y-117106714D01*
X140476857Y-117154333D01*
X140619714Y-117154333D01*
X140714952Y-117106714D01*
X140762571Y-117059095D01*
X140810190Y-116963857D01*
X140810190Y-116582904D01*
X140381619Y-117535285D02*
X140334000Y-117582904D01*
X140286380Y-117678142D01*
X140286380Y-117916238D01*
X140334000Y-118011476D01*
X140381619Y-118059095D01*
X140476857Y-118106714D01*
X140572095Y-118106714D01*
X140714952Y-118059095D01*
X141286380Y-117487666D01*
X141286380Y-118106714D01*
X143030666Y-123203380D02*
X143364000Y-122727190D01*
X143602095Y-123203380D02*
X143602095Y-122203380D01*
X143221142Y-122203380D01*
X143125904Y-122251000D01*
X143078285Y-122298619D01*
X143030666Y-122393857D01*
X143030666Y-122536714D01*
X143078285Y-122631952D01*
X143125904Y-122679571D01*
X143221142Y-122727190D01*
X143602095Y-122727190D01*
X142078285Y-123203380D02*
X142649714Y-123203380D01*
X142364000Y-123203380D02*
X142364000Y-122203380D01*
X142459238Y-122346238D01*
X142554476Y-122441476D01*
X142649714Y-122489095D01*
M02*
