M48
; DRILL file {KiCad 5.1.5} date Fri 17 Apr 2020 03:55:18 PM CEST
; FORMAT={-:-/ absolute / inch / decimal}
; #@! TF.CreationDate,2020-04-17T15:55:18+02:00
; #@! TF.GenerationSoftware,Kicad,Pcbnew,5.1.5
FMAT,2
INCH
T1C0.0157
T2C0.0197
T3C0.0315
T4C0.0360
T5C0.0470
T6C0.1181
%
G90
G05
T1
X5.5225Y-4.5171
X5.5638Y-4.132
X5.5847Y-3.9096
T2
X5.2512Y-3.6962
X5.2548Y-3.9143
X5.6619Y-4.7988
X5.6658Y-4.5273
X5.9075Y-4.4974
X5.9693Y-3.9974
X5.9808Y-3.6871
X5.9937Y-4.3501
X6.0398Y-4.8013
X6.0926Y-4.0494
X6.1024Y-4.6021
X6.1241Y-3.7415
X6.2934Y-4.3706
X6.3103Y-4.0604
X6.3217Y-3.7395
T3
X6.1225Y-3.6232
X6.2225Y-3.6232
X6.3225Y-3.6232
X6.1225Y-3.9381
X6.2225Y-3.9381
X6.3225Y-3.9381
X6.1225Y-4.2531
X6.2225Y-4.2531
X6.3225Y-4.2531
T4
X5.6182Y-4.2594
X5.6182Y-4.3594
X5.6182Y-4.4594
X5.4508Y-4.2594
X5.4508Y-4.3594
X5.4508Y-4.4594
T5
X5.8042Y-4.6043
X6.001Y-4.6043
X5.5839Y-3.4116
X5.5839Y-3.6084
X6.2048Y-4.6043
X6.4016Y-4.6043
X5.5839Y-3.8123
X5.5839Y-4.0091
T6
X5.2874Y-3.382
X5.2874Y-4.886
X6.4056Y-3.382
X6.4056Y-4.886
T0
M30
