G04 #@! TF.GenerationSoftware,KiCad,Pcbnew,5.1.5*
G04 #@! TF.CreationDate,2020-04-17T15:55:13+02:00*
G04 #@! TF.ProjectId,eco_measurement_ina226,65636f5f-6d65-4617-9375-72656d656e74,rev?*
G04 #@! TF.SameCoordinates,Original*
G04 #@! TF.FileFunction,Soldermask,Top*
G04 #@! TF.FilePolarity,Negative*
%FSLAX46Y46*%
G04 Gerber Fmt 4.6, Leading zero omitted, Abs format (unit mm)*
G04 Created by KiCad (PCBNEW 5.1.5) date 2020-04-17 15:55:13*
%MOMM*%
%LPD*%
G04 APERTURE LIST*
%ADD10C,0.152400*%
%ADD11R,3.600000X2.200000*%
%ADD12R,1.850000X0.700000*%
%ADD13O,2.190700X3.981400*%
%ADD14O,3.981400X2.190700*%
%ADD15O,3.143200X1.771600*%
%ADD16R,1.700000X1.900000*%
%ADD17O,1.600000X2.800000*%
G04 APERTURE END LIST*
D10*
X148137345Y-84002571D02*
X148065917Y-84038285D01*
X147923060Y-84038285D01*
X147851631Y-84002571D01*
X147815917Y-83931142D01*
X147815917Y-83645428D01*
X147851631Y-83574000D01*
X147923060Y-83538285D01*
X148065917Y-83538285D01*
X148137345Y-83574000D01*
X148173060Y-83645428D01*
X148173060Y-83716857D01*
X147815917Y-83788285D01*
X148815917Y-84002571D02*
X148744488Y-84038285D01*
X148601631Y-84038285D01*
X148530202Y-84002571D01*
X148494488Y-83966857D01*
X148458774Y-83895428D01*
X148458774Y-83681142D01*
X148494488Y-83609714D01*
X148530202Y-83574000D01*
X148601631Y-83538285D01*
X148744488Y-83538285D01*
X148815917Y-83574000D01*
X149244488Y-84038285D02*
X149173060Y-84002571D01*
X149137345Y-83966857D01*
X149101631Y-83895428D01*
X149101631Y-83681142D01*
X149137345Y-83609714D01*
X149173060Y-83574000D01*
X149244488Y-83538285D01*
X149351631Y-83538285D01*
X149423060Y-83574000D01*
X149458774Y-83609714D01*
X149494488Y-83681142D01*
X149494488Y-83895428D01*
X149458774Y-83966857D01*
X149423060Y-84002571D01*
X149351631Y-84038285D01*
X149244488Y-84038285D01*
X149637345Y-84109714D02*
X150208774Y-84109714D01*
X150387345Y-84038285D02*
X150387345Y-83538285D01*
X150387345Y-83609714D02*
X150423060Y-83574000D01*
X150494488Y-83538285D01*
X150601631Y-83538285D01*
X150673060Y-83574000D01*
X150708774Y-83645428D01*
X150708774Y-84038285D01*
X150708774Y-83645428D02*
X150744488Y-83574000D01*
X150815917Y-83538285D01*
X150923060Y-83538285D01*
X150994488Y-83574000D01*
X151030202Y-83645428D01*
X151030202Y-84038285D01*
X151673060Y-84002571D02*
X151601631Y-84038285D01*
X151458774Y-84038285D01*
X151387345Y-84002571D01*
X151351631Y-83931142D01*
X151351631Y-83645428D01*
X151387345Y-83574000D01*
X151458774Y-83538285D01*
X151601631Y-83538285D01*
X151673060Y-83574000D01*
X151708774Y-83645428D01*
X151708774Y-83716857D01*
X151351631Y-83788285D01*
X152351631Y-84038285D02*
X152351631Y-83645428D01*
X152315917Y-83574000D01*
X152244488Y-83538285D01*
X152101631Y-83538285D01*
X152030202Y-83574000D01*
X152351631Y-84002571D02*
X152280202Y-84038285D01*
X152101631Y-84038285D01*
X152030202Y-84002571D01*
X151994488Y-83931142D01*
X151994488Y-83859714D01*
X152030202Y-83788285D01*
X152101631Y-83752571D01*
X152280202Y-83752571D01*
X152351631Y-83716857D01*
X152673060Y-84002571D02*
X152744488Y-84038285D01*
X152887345Y-84038285D01*
X152958774Y-84002571D01*
X152994488Y-83931142D01*
X152994488Y-83895428D01*
X152958774Y-83824000D01*
X152887345Y-83788285D01*
X152780202Y-83788285D01*
X152708774Y-83752571D01*
X152673060Y-83681142D01*
X152673060Y-83645428D01*
X152708774Y-83574000D01*
X152780202Y-83538285D01*
X152887345Y-83538285D01*
X152958774Y-83574000D01*
X153637345Y-83538285D02*
X153637345Y-84038285D01*
X153315917Y-83538285D02*
X153315917Y-83931142D01*
X153351631Y-84002571D01*
X153423060Y-84038285D01*
X153530202Y-84038285D01*
X153601631Y-84002571D01*
X153637345Y-83966857D01*
X153994488Y-84038285D02*
X153994488Y-83538285D01*
X153994488Y-83681142D02*
X154030202Y-83609714D01*
X154065917Y-83574000D01*
X154137345Y-83538285D01*
X154208774Y-83538285D01*
X154744488Y-84002571D02*
X154673060Y-84038285D01*
X154530202Y-84038285D01*
X154458774Y-84002571D01*
X154423060Y-83931142D01*
X154423060Y-83645428D01*
X154458774Y-83574000D01*
X154530202Y-83538285D01*
X154673060Y-83538285D01*
X154744488Y-83574000D01*
X154780202Y-83645428D01*
X154780202Y-83716857D01*
X154423060Y-83788285D01*
X155101631Y-84038285D02*
X155101631Y-83538285D01*
X155101631Y-83609714D02*
X155137345Y-83574000D01*
X155208774Y-83538285D01*
X155315917Y-83538285D01*
X155387345Y-83574000D01*
X155423060Y-83645428D01*
X155423060Y-84038285D01*
X155423060Y-83645428D02*
X155458774Y-83574000D01*
X155530202Y-83538285D01*
X155637345Y-83538285D01*
X155708774Y-83574000D01*
X155744488Y-83645428D01*
X155744488Y-84038285D01*
X156387345Y-84002571D02*
X156315917Y-84038285D01*
X156173060Y-84038285D01*
X156101631Y-84002571D01*
X156065917Y-83931142D01*
X156065917Y-83645428D01*
X156101631Y-83574000D01*
X156173060Y-83538285D01*
X156315917Y-83538285D01*
X156387345Y-83574000D01*
X156423060Y-83645428D01*
X156423060Y-83716857D01*
X156065917Y-83788285D01*
X156744488Y-83538285D02*
X156744488Y-84038285D01*
X156744488Y-83609714D02*
X156780202Y-83574000D01*
X156851631Y-83538285D01*
X156958774Y-83538285D01*
X157030202Y-83574000D01*
X157065917Y-83645428D01*
X157065917Y-84038285D01*
X157315917Y-83538285D02*
X157601631Y-83538285D01*
X157423060Y-83288285D02*
X157423060Y-83931142D01*
X157458774Y-84002571D01*
X157530202Y-84038285D01*
X157601631Y-84038285D01*
X157673060Y-84109714D02*
X158244488Y-84109714D01*
X158423060Y-84038285D02*
X158423060Y-83538285D01*
X158423060Y-83288285D02*
X158387345Y-83324000D01*
X158423060Y-83359714D01*
X158458774Y-83324000D01*
X158423060Y-83288285D01*
X158423060Y-83359714D01*
X158780202Y-83538285D02*
X158780202Y-84038285D01*
X158780202Y-83609714D02*
X158815917Y-83574000D01*
X158887345Y-83538285D01*
X158994488Y-83538285D01*
X159065917Y-83574000D01*
X159101631Y-83645428D01*
X159101631Y-84038285D01*
X159780202Y-84038285D02*
X159780202Y-83645428D01*
X159744488Y-83574000D01*
X159673060Y-83538285D01*
X159530202Y-83538285D01*
X159458774Y-83574000D01*
X159780202Y-84002571D02*
X159708774Y-84038285D01*
X159530202Y-84038285D01*
X159458774Y-84002571D01*
X159423060Y-83931142D01*
X159423060Y-83859714D01*
X159458774Y-83788285D01*
X159530202Y-83752571D01*
X159708774Y-83752571D01*
X159780202Y-83716857D01*
X160101631Y-83359714D02*
X160137345Y-83324000D01*
X160208774Y-83288285D01*
X160387345Y-83288285D01*
X160458774Y-83324000D01*
X160494488Y-83359714D01*
X160530202Y-83431142D01*
X160530202Y-83502571D01*
X160494488Y-83609714D01*
X160065917Y-84038285D01*
X160530202Y-84038285D01*
X160815917Y-83359714D02*
X160851631Y-83324000D01*
X160923060Y-83288285D01*
X161101631Y-83288285D01*
X161173060Y-83324000D01*
X161208774Y-83359714D01*
X161244488Y-83431142D01*
X161244488Y-83502571D01*
X161208774Y-83609714D01*
X160780202Y-84038285D01*
X161244488Y-84038285D01*
X161887345Y-83288285D02*
X161744488Y-83288285D01*
X161673060Y-83324000D01*
X161637345Y-83359714D01*
X161565917Y-83466857D01*
X161530202Y-83609714D01*
X161530202Y-83895428D01*
X161565917Y-83966857D01*
X161601631Y-84002571D01*
X161673060Y-84038285D01*
X161815917Y-84038285D01*
X161887345Y-84002571D01*
X161923060Y-83966857D01*
X161958774Y-83895428D01*
X161958774Y-83716857D01*
X161923060Y-83645428D01*
X161887345Y-83609714D01*
X161815917Y-83574000D01*
X161673060Y-83574000D01*
X161601631Y-83609714D01*
X161565917Y-83645428D01*
X161530202Y-83716857D01*
X162780202Y-83538285D02*
X162958774Y-84038285D01*
X163137345Y-83538285D01*
X163423060Y-83966857D02*
X163458774Y-84002571D01*
X163423060Y-84038285D01*
X163387345Y-84002571D01*
X163423060Y-83966857D01*
X163423060Y-84038285D01*
X163923060Y-83288285D02*
X163994488Y-83288285D01*
X164065917Y-83324000D01*
X164101631Y-83359714D01*
X164137345Y-83431142D01*
X164173060Y-83574000D01*
X164173060Y-83752571D01*
X164137345Y-83895428D01*
X164101631Y-83966857D01*
X164065917Y-84002571D01*
X163994488Y-84038285D01*
X163923060Y-84038285D01*
X163851631Y-84002571D01*
X163815917Y-83966857D01*
X163780202Y-83895428D01*
X163744488Y-83752571D01*
X163744488Y-83574000D01*
X163780202Y-83431142D01*
X163815917Y-83359714D01*
X163851631Y-83324000D01*
X163923060Y-83288285D01*
X164494488Y-83966857D02*
X164530202Y-84002571D01*
X164494488Y-84038285D01*
X164458774Y-84002571D01*
X164494488Y-83966857D01*
X164494488Y-84038285D01*
X165173060Y-83538285D02*
X165173060Y-84038285D01*
X164994488Y-83252571D02*
X164815917Y-83788285D01*
X165280202Y-83788285D01*
D11*
X148851100Y-105028600D03*
X148851100Y-110628600D03*
X148851100Y-97003600D03*
X148851100Y-102603600D03*
X148851100Y-88978600D03*
X148851100Y-94578600D03*
D12*
X139316900Y-116242100D03*
X139316900Y-116742100D03*
X139316900Y-118242100D03*
X139316900Y-117742100D03*
X143716900Y-118242100D03*
X143716900Y-117742100D03*
X143716900Y-116242100D03*
X143716900Y-116742100D03*
X139316900Y-117242100D03*
X143716900Y-117242100D03*
D13*
X152426100Y-116948600D03*
X147426100Y-116948600D03*
X162601100Y-116948600D03*
X157601100Y-116948600D03*
D14*
X141831100Y-91653600D03*
X141831100Y-86653600D03*
X141831100Y-101832100D03*
X141831100Y-96832100D03*
D15*
X142701100Y-108188600D03*
X142701100Y-110728600D03*
X142701100Y-113268600D03*
X138451100Y-108188600D03*
X138451100Y-110728600D03*
X138451100Y-113268600D03*
D16*
X141888400Y-119958500D03*
X143788400Y-119958500D03*
D17*
X155511100Y-108028600D03*
X158051100Y-108028600D03*
X160591100Y-108028600D03*
X155511100Y-100028600D03*
X158051100Y-100028600D03*
X160591100Y-100028600D03*
X155511100Y-92028600D03*
X158051100Y-92028600D03*
X160591100Y-92028600D03*
M02*
