G04 #@! TF.GenerationSoftware,KiCad,Pcbnew,5.1.5*
G04 #@! TF.CreationDate,2020-04-17T15:55:13+02:00*
G04 #@! TF.ProjectId,eco_measurement_ina226,65636f5f-6d65-4617-9375-72656d656e74,rev?*
G04 #@! TF.SameCoordinates,Original*
G04 #@! TF.FileFunction,Copper,L2,Bot*
G04 #@! TF.FilePolarity,Positive*
%FSLAX46Y46*%
G04 Gerber Fmt 4.6, Leading zero omitted, Abs format (unit mm)*
G04 Created by KiCad (PCBNEW 5.1.5) date 2020-04-17 15:55:13*
%MOMM*%
%LPD*%
G04 APERTURE LIST*
%ADD10O,1.790700X3.581400*%
%ADD11O,3.581400X1.790700*%
%ADD12O,2.743200X1.371600*%
%ADD13O,1.200000X2.400000*%
%ADD14C,0.855600*%
%ADD15C,3.355600*%
%ADD16C,0.755600*%
%ADD17C,0.254000*%
G04 APERTURE END LIST*
D10*
X152426100Y-116948600D03*
X147426100Y-116948600D03*
X162601100Y-116948600D03*
X157601100Y-116948600D03*
D11*
X141831100Y-91653600D03*
X141831100Y-86653600D03*
X141831100Y-101832100D03*
X141831100Y-96832100D03*
D12*
X142701100Y-108188600D03*
X142701100Y-110728600D03*
X142701100Y-113268600D03*
X138451100Y-108188600D03*
X138451100Y-110728600D03*
X138451100Y-113268600D03*
D13*
X155511100Y-108028600D03*
X158051100Y-108028600D03*
X160591100Y-108028600D03*
X155511100Y-100028600D03*
X158051100Y-100028600D03*
X160591100Y-100028600D03*
X155511100Y-92028600D03*
X158051100Y-92028600D03*
X160591100Y-92028600D03*
D14*
X143811100Y-121888600D03*
D15*
X134301100Y-124103600D03*
X134301100Y-85903600D03*
X162701100Y-124103600D03*
X162701100Y-85903600D03*
D14*
X159851100Y-111013600D03*
X150051100Y-114233600D03*
X152241100Y-110493600D03*
X133471100Y-99423600D03*
X151621100Y-101533600D03*
X154751100Y-102853600D03*
X160281100Y-103133600D03*
X160571100Y-94983600D03*
X155551100Y-95033600D03*
X151911100Y-93653600D03*
X143911100Y-114993600D03*
D16*
X140271100Y-114733600D03*
X141851100Y-99303600D03*
X141321100Y-104953600D03*
D14*
X153411100Y-121953600D03*
X133381100Y-93883600D03*
X155001100Y-116893600D03*
D17*
G36*
X165575900Y-126978400D02*
G01*
X131426300Y-126978400D01*
X131426300Y-115993054D01*
X146200550Y-115993054D01*
X146200550Y-117904147D01*
X146218285Y-118084200D01*
X146288363Y-118315217D01*
X146402164Y-118528123D01*
X146555314Y-118714737D01*
X146741928Y-118867887D01*
X146954834Y-118981688D01*
X147185851Y-119051766D01*
X147426100Y-119075429D01*
X147666350Y-119051766D01*
X147897367Y-118981688D01*
X148110273Y-118867887D01*
X148296887Y-118714737D01*
X148450037Y-118528123D01*
X148563838Y-118315217D01*
X148633916Y-118084200D01*
X148651650Y-117904147D01*
X148651650Y-115993054D01*
X151200550Y-115993054D01*
X151200550Y-117904147D01*
X151218285Y-118084200D01*
X151288363Y-118315217D01*
X151402164Y-118528123D01*
X151555314Y-118714737D01*
X151741928Y-118867887D01*
X151954834Y-118981688D01*
X152185851Y-119051766D01*
X152426100Y-119075429D01*
X152666350Y-119051766D01*
X152897367Y-118981688D01*
X153110273Y-118867887D01*
X153296887Y-118714737D01*
X153450037Y-118528123D01*
X153563838Y-118315217D01*
X153633916Y-118084200D01*
X153651650Y-117904147D01*
X153651650Y-115993054D01*
X156375550Y-115993054D01*
X156375550Y-117904147D01*
X156393285Y-118084200D01*
X156463363Y-118315217D01*
X156577164Y-118528123D01*
X156730314Y-118714737D01*
X156916928Y-118867887D01*
X157129834Y-118981688D01*
X157360851Y-119051766D01*
X157601100Y-119075429D01*
X157841350Y-119051766D01*
X158072367Y-118981688D01*
X158285273Y-118867887D01*
X158471887Y-118714737D01*
X158625037Y-118528123D01*
X158738838Y-118315217D01*
X158808916Y-118084200D01*
X158826650Y-117904147D01*
X158826650Y-116973600D01*
X161274750Y-116973600D01*
X161274750Y-117868950D01*
X161305113Y-118127228D01*
X161385280Y-118374619D01*
X161512170Y-118601617D01*
X161680907Y-118799498D01*
X161885006Y-118960658D01*
X162116624Y-119078904D01*
X162366861Y-119149691D01*
X162368958Y-119149826D01*
X162576100Y-119062294D01*
X162576100Y-116973600D01*
X162626100Y-116973600D01*
X162626100Y-119062294D01*
X162833242Y-119149826D01*
X162835339Y-119149691D01*
X163085576Y-119078904D01*
X163317194Y-118960658D01*
X163521293Y-118799498D01*
X163690030Y-118601617D01*
X163816920Y-118374619D01*
X163897087Y-118127228D01*
X163927450Y-117868950D01*
X163927450Y-116973600D01*
X162626100Y-116973600D01*
X162576100Y-116973600D01*
X161274750Y-116973600D01*
X158826650Y-116973600D01*
X158826650Y-116028250D01*
X161274750Y-116028250D01*
X161274750Y-116923600D01*
X162576100Y-116923600D01*
X162576100Y-114834906D01*
X162626100Y-114834906D01*
X162626100Y-116923600D01*
X163927450Y-116923600D01*
X163927450Y-116028250D01*
X163897087Y-115769972D01*
X163816920Y-115522581D01*
X163690030Y-115295583D01*
X163521293Y-115097702D01*
X163317194Y-114936542D01*
X163085576Y-114818296D01*
X162835339Y-114747509D01*
X162833242Y-114747374D01*
X162626100Y-114834906D01*
X162576100Y-114834906D01*
X162368958Y-114747374D01*
X162366861Y-114747509D01*
X162116624Y-114818296D01*
X161885006Y-114936542D01*
X161680907Y-115097702D01*
X161512170Y-115295583D01*
X161385280Y-115522581D01*
X161305113Y-115769972D01*
X161274750Y-116028250D01*
X158826650Y-116028250D01*
X158826650Y-115993053D01*
X158808916Y-115813000D01*
X158738838Y-115581983D01*
X158625037Y-115369077D01*
X158471887Y-115182463D01*
X158285272Y-115029313D01*
X158072366Y-114915512D01*
X157841349Y-114845434D01*
X157601100Y-114821771D01*
X157360850Y-114845434D01*
X157129833Y-114915512D01*
X156916927Y-115029313D01*
X156730313Y-115182463D01*
X156577163Y-115369078D01*
X156463362Y-115581984D01*
X156393284Y-115813001D01*
X156375550Y-115993054D01*
X153651650Y-115993054D01*
X153651650Y-115993053D01*
X153633916Y-115813000D01*
X153563838Y-115581983D01*
X153450037Y-115369077D01*
X153296887Y-115182463D01*
X153110272Y-115029313D01*
X152897366Y-114915512D01*
X152666349Y-114845434D01*
X152426100Y-114821771D01*
X152185850Y-114845434D01*
X151954833Y-114915512D01*
X151741927Y-115029313D01*
X151555313Y-115182463D01*
X151402163Y-115369078D01*
X151288362Y-115581984D01*
X151218284Y-115813001D01*
X151200550Y-115993054D01*
X148651650Y-115993054D01*
X148651650Y-115993053D01*
X148633916Y-115813000D01*
X148563838Y-115581983D01*
X148450037Y-115369077D01*
X148296887Y-115182463D01*
X148110272Y-115029313D01*
X147897366Y-114915512D01*
X147666349Y-114845434D01*
X147426100Y-114821771D01*
X147185850Y-114845434D01*
X146954833Y-114915512D01*
X146741927Y-115029313D01*
X146555313Y-115182463D01*
X146402163Y-115369078D01*
X146288362Y-115581984D01*
X146218284Y-115813001D01*
X146200550Y-115993054D01*
X131426300Y-115993054D01*
X131426300Y-113268600D01*
X136744385Y-113268600D01*
X136764002Y-113467771D01*
X136822098Y-113659287D01*
X136916440Y-113835790D01*
X137043404Y-113990496D01*
X137198110Y-114117460D01*
X137374613Y-114211802D01*
X137566129Y-114269898D01*
X137715398Y-114284600D01*
X139186802Y-114284600D01*
X139336071Y-114269898D01*
X139527587Y-114211802D01*
X139704090Y-114117460D01*
X139858796Y-113990496D01*
X139985760Y-113835790D01*
X140080102Y-113659287D01*
X140138198Y-113467771D01*
X140157815Y-113268600D01*
X140994385Y-113268600D01*
X141014002Y-113467771D01*
X141072098Y-113659287D01*
X141166440Y-113835790D01*
X141293404Y-113990496D01*
X141448110Y-114117460D01*
X141624613Y-114211802D01*
X141816129Y-114269898D01*
X141965398Y-114284600D01*
X143436802Y-114284600D01*
X143586071Y-114269898D01*
X143777587Y-114211802D01*
X143954090Y-114117460D01*
X144108796Y-113990496D01*
X144235760Y-113835790D01*
X144330102Y-113659287D01*
X144388198Y-113467771D01*
X144407815Y-113268600D01*
X144388198Y-113069429D01*
X144330102Y-112877913D01*
X144235760Y-112701410D01*
X144108796Y-112546704D01*
X143954090Y-112419740D01*
X143777587Y-112325398D01*
X143586071Y-112267302D01*
X143436802Y-112252600D01*
X141965398Y-112252600D01*
X141816129Y-112267302D01*
X141624613Y-112325398D01*
X141448110Y-112419740D01*
X141293404Y-112546704D01*
X141166440Y-112701410D01*
X141072098Y-112877913D01*
X141014002Y-113069429D01*
X140994385Y-113268600D01*
X140157815Y-113268600D01*
X140138198Y-113069429D01*
X140080102Y-112877913D01*
X139985760Y-112701410D01*
X139858796Y-112546704D01*
X139704090Y-112419740D01*
X139527587Y-112325398D01*
X139336071Y-112267302D01*
X139186802Y-112252600D01*
X137715398Y-112252600D01*
X137566129Y-112267302D01*
X137374613Y-112325398D01*
X137198110Y-112419740D01*
X137043404Y-112546704D01*
X136916440Y-112701410D01*
X136822098Y-112877913D01*
X136764002Y-113069429D01*
X136744385Y-113268600D01*
X131426300Y-113268600D01*
X131426300Y-110728600D01*
X136744385Y-110728600D01*
X136764002Y-110927771D01*
X136822098Y-111119287D01*
X136916440Y-111295790D01*
X137043404Y-111450496D01*
X137198110Y-111577460D01*
X137374613Y-111671802D01*
X137566129Y-111729898D01*
X137715398Y-111744600D01*
X139186802Y-111744600D01*
X139336071Y-111729898D01*
X139527587Y-111671802D01*
X139704090Y-111577460D01*
X139858796Y-111450496D01*
X139985760Y-111295790D01*
X140080102Y-111119287D01*
X140138198Y-110927771D01*
X140157815Y-110728600D01*
X140994385Y-110728600D01*
X141014002Y-110927771D01*
X141072098Y-111119287D01*
X141166440Y-111295790D01*
X141293404Y-111450496D01*
X141448110Y-111577460D01*
X141624613Y-111671802D01*
X141816129Y-111729898D01*
X141965398Y-111744600D01*
X143436802Y-111744600D01*
X143586071Y-111729898D01*
X143777587Y-111671802D01*
X143954090Y-111577460D01*
X144108796Y-111450496D01*
X144235760Y-111295790D01*
X144330102Y-111119287D01*
X144388198Y-110927771D01*
X144407815Y-110728600D01*
X144388198Y-110529429D01*
X144330102Y-110337913D01*
X144235760Y-110161410D01*
X144108796Y-110006704D01*
X143954090Y-109879740D01*
X143777587Y-109785398D01*
X143586071Y-109727302D01*
X143436802Y-109712600D01*
X141965398Y-109712600D01*
X141816129Y-109727302D01*
X141624613Y-109785398D01*
X141448110Y-109879740D01*
X141293404Y-110006704D01*
X141166440Y-110161410D01*
X141072098Y-110337913D01*
X141014002Y-110529429D01*
X140994385Y-110728600D01*
X140157815Y-110728600D01*
X140138198Y-110529429D01*
X140080102Y-110337913D01*
X139985760Y-110161410D01*
X139858796Y-110006704D01*
X139704090Y-109879740D01*
X139527587Y-109785398D01*
X139336071Y-109727302D01*
X139186802Y-109712600D01*
X137715398Y-109712600D01*
X137566129Y-109727302D01*
X137374613Y-109785398D01*
X137198110Y-109879740D01*
X137043404Y-110006704D01*
X136916440Y-110161410D01*
X136822098Y-110337913D01*
X136764002Y-110529429D01*
X136744385Y-110728600D01*
X131426300Y-110728600D01*
X131426300Y-108387954D01*
X136666437Y-108387954D01*
X136723944Y-108592884D01*
X136822825Y-108788274D01*
X136957925Y-108960619D01*
X137124052Y-109103296D01*
X137314822Y-109210822D01*
X137522903Y-109279064D01*
X137740300Y-109305400D01*
X138426100Y-109305400D01*
X138426100Y-108213600D01*
X138476100Y-108213600D01*
X138476100Y-109305400D01*
X139161900Y-109305400D01*
X139379297Y-109279064D01*
X139587378Y-109210822D01*
X139778148Y-109103296D01*
X139944275Y-108960619D01*
X140079375Y-108788274D01*
X140178256Y-108592884D01*
X140235763Y-108387954D01*
X140916437Y-108387954D01*
X140973944Y-108592884D01*
X141072825Y-108788274D01*
X141207925Y-108960619D01*
X141374052Y-109103296D01*
X141564822Y-109210822D01*
X141772903Y-109279064D01*
X141990300Y-109305400D01*
X142676100Y-109305400D01*
X142676100Y-108213600D01*
X142726100Y-108213600D01*
X142726100Y-109305400D01*
X143411900Y-109305400D01*
X143629297Y-109279064D01*
X143837378Y-109210822D01*
X144028148Y-109103296D01*
X144194275Y-108960619D01*
X144329375Y-108788274D01*
X144387059Y-108674288D01*
X154580900Y-108674288D01*
X154594360Y-108810950D01*
X154647550Y-108986293D01*
X154733925Y-109147890D01*
X154850167Y-109289533D01*
X154991809Y-109405775D01*
X155153406Y-109492150D01*
X155328749Y-109545340D01*
X155511100Y-109563300D01*
X155693450Y-109545340D01*
X155868793Y-109492150D01*
X156030390Y-109405775D01*
X156172033Y-109289533D01*
X156288275Y-109147891D01*
X156374650Y-108986294D01*
X156427840Y-108810951D01*
X156441300Y-108674289D01*
X156441300Y-108674288D01*
X157120900Y-108674288D01*
X157134360Y-108810950D01*
X157187550Y-108986293D01*
X157273925Y-109147890D01*
X157390167Y-109289533D01*
X157531809Y-109405775D01*
X157693406Y-109492150D01*
X157868749Y-109545340D01*
X158051100Y-109563300D01*
X158233450Y-109545340D01*
X158408793Y-109492150D01*
X158570390Y-109405775D01*
X158712033Y-109289533D01*
X158828275Y-109147891D01*
X158914650Y-108986294D01*
X158967840Y-108810951D01*
X158981300Y-108674289D01*
X158981300Y-108674288D01*
X159660900Y-108674288D01*
X159674360Y-108810950D01*
X159727550Y-108986293D01*
X159813925Y-109147890D01*
X159930167Y-109289533D01*
X160071809Y-109405775D01*
X160233406Y-109492150D01*
X160408749Y-109545340D01*
X160591100Y-109563300D01*
X160773450Y-109545340D01*
X160948793Y-109492150D01*
X161110390Y-109405775D01*
X161252033Y-109289533D01*
X161368275Y-109147891D01*
X161454650Y-108986294D01*
X161507840Y-108810951D01*
X161521300Y-108674289D01*
X161521300Y-107382911D01*
X161507840Y-107246249D01*
X161454650Y-107070906D01*
X161368275Y-106909309D01*
X161252033Y-106767667D01*
X161110391Y-106651425D01*
X160948794Y-106565050D01*
X160773451Y-106511860D01*
X160591100Y-106493900D01*
X160408750Y-106511860D01*
X160233407Y-106565050D01*
X160071810Y-106651425D01*
X159930168Y-106767667D01*
X159813926Y-106909309D01*
X159727551Y-107070906D01*
X159674361Y-107246249D01*
X159660901Y-107382911D01*
X159660900Y-108674288D01*
X158981300Y-108674288D01*
X158981300Y-107382911D01*
X158967840Y-107246249D01*
X158914650Y-107070906D01*
X158828275Y-106909309D01*
X158712033Y-106767667D01*
X158570391Y-106651425D01*
X158408794Y-106565050D01*
X158233451Y-106511860D01*
X158051100Y-106493900D01*
X157868750Y-106511860D01*
X157693407Y-106565050D01*
X157531810Y-106651425D01*
X157390168Y-106767667D01*
X157273926Y-106909309D01*
X157187551Y-107070906D01*
X157134361Y-107246249D01*
X157120901Y-107382911D01*
X157120900Y-108674288D01*
X156441300Y-108674288D01*
X156441300Y-107382911D01*
X156427840Y-107246249D01*
X156374650Y-107070906D01*
X156288275Y-106909309D01*
X156172033Y-106767667D01*
X156030391Y-106651425D01*
X155868794Y-106565050D01*
X155693451Y-106511860D01*
X155511100Y-106493900D01*
X155328750Y-106511860D01*
X155153407Y-106565050D01*
X154991810Y-106651425D01*
X154850168Y-106767667D01*
X154733926Y-106909309D01*
X154647551Y-107070906D01*
X154594361Y-107246249D01*
X154580901Y-107382911D01*
X154580900Y-108674288D01*
X144387059Y-108674288D01*
X144428256Y-108592884D01*
X144485763Y-108387954D01*
X144395640Y-108213600D01*
X142726100Y-108213600D01*
X142676100Y-108213600D01*
X141006560Y-108213600D01*
X140916437Y-108387954D01*
X140235763Y-108387954D01*
X140145640Y-108213600D01*
X138476100Y-108213600D01*
X138426100Y-108213600D01*
X136756560Y-108213600D01*
X136666437Y-108387954D01*
X131426300Y-108387954D01*
X131426300Y-107989246D01*
X136666437Y-107989246D01*
X136756560Y-108163600D01*
X138426100Y-108163600D01*
X138426100Y-107071800D01*
X138476100Y-107071800D01*
X138476100Y-108163600D01*
X140145640Y-108163600D01*
X140235763Y-107989246D01*
X140916437Y-107989246D01*
X141006560Y-108163600D01*
X142676100Y-108163600D01*
X142676100Y-107071800D01*
X142726100Y-107071800D01*
X142726100Y-108163600D01*
X144395640Y-108163600D01*
X144485763Y-107989246D01*
X144428256Y-107784316D01*
X144329375Y-107588926D01*
X144194275Y-107416581D01*
X144028148Y-107273904D01*
X143837378Y-107166378D01*
X143629297Y-107098136D01*
X143411900Y-107071800D01*
X142726100Y-107071800D01*
X142676100Y-107071800D01*
X141990300Y-107071800D01*
X141772903Y-107098136D01*
X141564822Y-107166378D01*
X141374052Y-107273904D01*
X141207925Y-107416581D01*
X141072825Y-107588926D01*
X140973944Y-107784316D01*
X140916437Y-107989246D01*
X140235763Y-107989246D01*
X140178256Y-107784316D01*
X140079375Y-107588926D01*
X139944275Y-107416581D01*
X139778148Y-107273904D01*
X139587378Y-107166378D01*
X139379297Y-107098136D01*
X139161900Y-107071800D01*
X138476100Y-107071800D01*
X138426100Y-107071800D01*
X137740300Y-107071800D01*
X137522903Y-107098136D01*
X137314822Y-107166378D01*
X137124052Y-107273904D01*
X136957925Y-107416581D01*
X136822825Y-107588926D01*
X136723944Y-107784316D01*
X136666437Y-107989246D01*
X131426300Y-107989246D01*
X131426300Y-101832100D01*
X139704271Y-101832100D01*
X139727934Y-102072350D01*
X139798012Y-102303367D01*
X139911813Y-102516273D01*
X140064963Y-102702887D01*
X140251577Y-102856037D01*
X140464483Y-102969838D01*
X140695500Y-103039916D01*
X140875553Y-103057650D01*
X142786647Y-103057650D01*
X142966700Y-103039916D01*
X143197717Y-102969838D01*
X143410623Y-102856037D01*
X143597237Y-102702887D01*
X143750387Y-102516273D01*
X143864188Y-102303367D01*
X143934266Y-102072350D01*
X143957929Y-101832100D01*
X143934266Y-101591850D01*
X143864188Y-101360833D01*
X143750387Y-101147927D01*
X143597237Y-100961313D01*
X143410623Y-100808163D01*
X143197717Y-100694362D01*
X143131542Y-100674288D01*
X154580900Y-100674288D01*
X154594360Y-100810950D01*
X154647550Y-100986293D01*
X154733925Y-101147890D01*
X154850167Y-101289533D01*
X154991809Y-101405775D01*
X155153406Y-101492150D01*
X155328749Y-101545340D01*
X155511100Y-101563300D01*
X155693450Y-101545340D01*
X155868793Y-101492150D01*
X156030390Y-101405775D01*
X156172033Y-101289533D01*
X156288275Y-101147891D01*
X156374650Y-100986294D01*
X156427840Y-100810951D01*
X156441300Y-100674289D01*
X156441300Y-100674288D01*
X157120900Y-100674288D01*
X157134360Y-100810950D01*
X157187550Y-100986293D01*
X157273925Y-101147890D01*
X157390167Y-101289533D01*
X157531809Y-101405775D01*
X157693406Y-101492150D01*
X157868749Y-101545340D01*
X158051100Y-101563300D01*
X158233450Y-101545340D01*
X158408793Y-101492150D01*
X158570390Y-101405775D01*
X158712033Y-101289533D01*
X158828275Y-101147891D01*
X158914650Y-100986294D01*
X158967840Y-100810951D01*
X158981300Y-100674289D01*
X158981300Y-100674288D01*
X159660900Y-100674288D01*
X159674360Y-100810950D01*
X159727550Y-100986293D01*
X159813925Y-101147890D01*
X159930167Y-101289533D01*
X160071809Y-101405775D01*
X160233406Y-101492150D01*
X160408749Y-101545340D01*
X160591100Y-101563300D01*
X160773450Y-101545340D01*
X160948793Y-101492150D01*
X161110390Y-101405775D01*
X161252033Y-101289533D01*
X161368275Y-101147891D01*
X161454650Y-100986294D01*
X161507840Y-100810951D01*
X161521300Y-100674289D01*
X161521300Y-99382911D01*
X161507840Y-99246249D01*
X161454650Y-99070906D01*
X161368275Y-98909309D01*
X161252033Y-98767667D01*
X161110391Y-98651425D01*
X160948794Y-98565050D01*
X160773451Y-98511860D01*
X160591100Y-98493900D01*
X160408750Y-98511860D01*
X160233407Y-98565050D01*
X160071810Y-98651425D01*
X159930168Y-98767667D01*
X159813926Y-98909309D01*
X159727551Y-99070906D01*
X159674361Y-99246249D01*
X159660901Y-99382911D01*
X159660900Y-100674288D01*
X158981300Y-100674288D01*
X158981300Y-99382911D01*
X158967840Y-99246249D01*
X158914650Y-99070906D01*
X158828275Y-98909309D01*
X158712033Y-98767667D01*
X158570391Y-98651425D01*
X158408794Y-98565050D01*
X158233451Y-98511860D01*
X158051100Y-98493900D01*
X157868750Y-98511860D01*
X157693407Y-98565050D01*
X157531810Y-98651425D01*
X157390168Y-98767667D01*
X157273926Y-98909309D01*
X157187551Y-99070906D01*
X157134361Y-99246249D01*
X157120901Y-99382911D01*
X157120900Y-100674288D01*
X156441300Y-100674288D01*
X156441300Y-99382911D01*
X156427840Y-99246249D01*
X156374650Y-99070906D01*
X156288275Y-98909309D01*
X156172033Y-98767667D01*
X156030391Y-98651425D01*
X155868794Y-98565050D01*
X155693451Y-98511860D01*
X155511100Y-98493900D01*
X155328750Y-98511860D01*
X155153407Y-98565050D01*
X154991810Y-98651425D01*
X154850168Y-98767667D01*
X154733926Y-98909309D01*
X154647551Y-99070906D01*
X154594361Y-99246249D01*
X154580901Y-99382911D01*
X154580900Y-100674288D01*
X143131542Y-100674288D01*
X142966700Y-100624284D01*
X142786647Y-100606550D01*
X140875553Y-100606550D01*
X140695500Y-100624284D01*
X140464483Y-100694362D01*
X140251577Y-100808163D01*
X140064963Y-100961313D01*
X139911813Y-101147927D01*
X139798012Y-101360833D01*
X139727934Y-101591850D01*
X139704271Y-101832100D01*
X131426300Y-101832100D01*
X131426300Y-96832100D01*
X139704271Y-96832100D01*
X139727934Y-97072350D01*
X139798012Y-97303367D01*
X139911813Y-97516273D01*
X140064963Y-97702887D01*
X140251577Y-97856037D01*
X140464483Y-97969838D01*
X140695500Y-98039916D01*
X140875553Y-98057650D01*
X142786647Y-98057650D01*
X142966700Y-98039916D01*
X143197717Y-97969838D01*
X143410623Y-97856037D01*
X143597237Y-97702887D01*
X143750387Y-97516273D01*
X143864188Y-97303367D01*
X143934266Y-97072350D01*
X143957929Y-96832100D01*
X143934266Y-96591850D01*
X143864188Y-96360833D01*
X143750387Y-96147927D01*
X143597237Y-95961313D01*
X143410623Y-95808163D01*
X143197717Y-95694362D01*
X142966700Y-95624284D01*
X142786647Y-95606550D01*
X140875553Y-95606550D01*
X140695500Y-95624284D01*
X140464483Y-95694362D01*
X140251577Y-95808163D01*
X140064963Y-95961313D01*
X139911813Y-96147927D01*
X139798012Y-96360833D01*
X139727934Y-96591850D01*
X139704271Y-96832100D01*
X131426300Y-96832100D01*
X131426300Y-91653600D01*
X139704271Y-91653600D01*
X139727934Y-91893850D01*
X139798012Y-92124867D01*
X139911813Y-92337773D01*
X140064963Y-92524387D01*
X140251577Y-92677537D01*
X140464483Y-92791338D01*
X140695500Y-92861416D01*
X140875553Y-92879150D01*
X142786647Y-92879150D01*
X142966700Y-92861416D01*
X143197717Y-92791338D01*
X143410623Y-92677537D01*
X143414581Y-92674288D01*
X154580900Y-92674288D01*
X154594360Y-92810950D01*
X154647550Y-92986293D01*
X154733925Y-93147890D01*
X154850167Y-93289533D01*
X154991809Y-93405775D01*
X155153406Y-93492150D01*
X155328749Y-93545340D01*
X155511100Y-93563300D01*
X155693450Y-93545340D01*
X155868793Y-93492150D01*
X156030390Y-93405775D01*
X156172033Y-93289533D01*
X156288275Y-93147891D01*
X156374650Y-92986294D01*
X156427840Y-92810951D01*
X156441300Y-92674289D01*
X156441300Y-92674288D01*
X157120900Y-92674288D01*
X157134360Y-92810950D01*
X157187550Y-92986293D01*
X157273925Y-93147890D01*
X157390167Y-93289533D01*
X157531809Y-93405775D01*
X157693406Y-93492150D01*
X157868749Y-93545340D01*
X158051100Y-93563300D01*
X158233450Y-93545340D01*
X158408793Y-93492150D01*
X158570390Y-93405775D01*
X158712033Y-93289533D01*
X158828275Y-93147891D01*
X158914650Y-92986294D01*
X158967840Y-92810951D01*
X158981300Y-92674289D01*
X158981300Y-92674288D01*
X159660900Y-92674288D01*
X159674360Y-92810950D01*
X159727550Y-92986293D01*
X159813925Y-93147890D01*
X159930167Y-93289533D01*
X160071809Y-93405775D01*
X160233406Y-93492150D01*
X160408749Y-93545340D01*
X160591100Y-93563300D01*
X160773450Y-93545340D01*
X160948793Y-93492150D01*
X161110390Y-93405775D01*
X161252033Y-93289533D01*
X161368275Y-93147891D01*
X161454650Y-92986294D01*
X161507840Y-92810951D01*
X161521300Y-92674289D01*
X161521300Y-91382911D01*
X161507840Y-91246249D01*
X161454650Y-91070906D01*
X161368275Y-90909309D01*
X161252033Y-90767667D01*
X161110391Y-90651425D01*
X160948794Y-90565050D01*
X160773451Y-90511860D01*
X160591100Y-90493900D01*
X160408750Y-90511860D01*
X160233407Y-90565050D01*
X160071810Y-90651425D01*
X159930168Y-90767667D01*
X159813926Y-90909309D01*
X159727551Y-91070906D01*
X159674361Y-91246249D01*
X159660901Y-91382911D01*
X159660900Y-92674288D01*
X158981300Y-92674288D01*
X158981300Y-91382911D01*
X158967840Y-91246249D01*
X158914650Y-91070906D01*
X158828275Y-90909309D01*
X158712033Y-90767667D01*
X158570391Y-90651425D01*
X158408794Y-90565050D01*
X158233451Y-90511860D01*
X158051100Y-90493900D01*
X157868750Y-90511860D01*
X157693407Y-90565050D01*
X157531810Y-90651425D01*
X157390168Y-90767667D01*
X157273926Y-90909309D01*
X157187551Y-91070906D01*
X157134361Y-91246249D01*
X157120901Y-91382911D01*
X157120900Y-92674288D01*
X156441300Y-92674288D01*
X156441300Y-91382911D01*
X156427840Y-91246249D01*
X156374650Y-91070906D01*
X156288275Y-90909309D01*
X156172033Y-90767667D01*
X156030391Y-90651425D01*
X155868794Y-90565050D01*
X155693451Y-90511860D01*
X155511100Y-90493900D01*
X155328750Y-90511860D01*
X155153407Y-90565050D01*
X154991810Y-90651425D01*
X154850168Y-90767667D01*
X154733926Y-90909309D01*
X154647551Y-91070906D01*
X154594361Y-91246249D01*
X154580901Y-91382911D01*
X154580900Y-92674288D01*
X143414581Y-92674288D01*
X143597237Y-92524387D01*
X143750387Y-92337773D01*
X143864188Y-92124867D01*
X143934266Y-91893850D01*
X143957929Y-91653600D01*
X143934266Y-91413350D01*
X143864188Y-91182333D01*
X143750387Y-90969427D01*
X143597237Y-90782813D01*
X143410623Y-90629663D01*
X143197717Y-90515862D01*
X142966700Y-90445784D01*
X142786647Y-90428050D01*
X140875553Y-90428050D01*
X140695500Y-90445784D01*
X140464483Y-90515862D01*
X140251577Y-90629663D01*
X140064963Y-90782813D01*
X139911813Y-90969427D01*
X139798012Y-91182333D01*
X139727934Y-91413350D01*
X139704271Y-91653600D01*
X131426300Y-91653600D01*
X131426300Y-86653600D01*
X139704271Y-86653600D01*
X139727934Y-86893850D01*
X139798012Y-87124867D01*
X139911813Y-87337773D01*
X140064963Y-87524387D01*
X140251577Y-87677537D01*
X140464483Y-87791338D01*
X140695500Y-87861416D01*
X140875553Y-87879150D01*
X142786647Y-87879150D01*
X142966700Y-87861416D01*
X143197717Y-87791338D01*
X143410623Y-87677537D01*
X143597237Y-87524387D01*
X143750387Y-87337773D01*
X143864188Y-87124867D01*
X143934266Y-86893850D01*
X143957929Y-86653600D01*
X143934266Y-86413350D01*
X143864188Y-86182333D01*
X143750387Y-85969427D01*
X143597237Y-85782813D01*
X143410623Y-85629663D01*
X143197717Y-85515862D01*
X142966700Y-85445784D01*
X142786647Y-85428050D01*
X140875553Y-85428050D01*
X140695500Y-85445784D01*
X140464483Y-85515862D01*
X140251577Y-85629663D01*
X140064963Y-85782813D01*
X139911813Y-85969427D01*
X139798012Y-86182333D01*
X139727934Y-86413350D01*
X139704271Y-86653600D01*
X131426300Y-86653600D01*
X131426300Y-83028800D01*
X165575901Y-83028800D01*
X165575900Y-126978400D01*
G37*
X165575900Y-126978400D02*
X131426300Y-126978400D01*
X131426300Y-115993054D01*
X146200550Y-115993054D01*
X146200550Y-117904147D01*
X146218285Y-118084200D01*
X146288363Y-118315217D01*
X146402164Y-118528123D01*
X146555314Y-118714737D01*
X146741928Y-118867887D01*
X146954834Y-118981688D01*
X147185851Y-119051766D01*
X147426100Y-119075429D01*
X147666350Y-119051766D01*
X147897367Y-118981688D01*
X148110273Y-118867887D01*
X148296887Y-118714737D01*
X148450037Y-118528123D01*
X148563838Y-118315217D01*
X148633916Y-118084200D01*
X148651650Y-117904147D01*
X148651650Y-115993054D01*
X151200550Y-115993054D01*
X151200550Y-117904147D01*
X151218285Y-118084200D01*
X151288363Y-118315217D01*
X151402164Y-118528123D01*
X151555314Y-118714737D01*
X151741928Y-118867887D01*
X151954834Y-118981688D01*
X152185851Y-119051766D01*
X152426100Y-119075429D01*
X152666350Y-119051766D01*
X152897367Y-118981688D01*
X153110273Y-118867887D01*
X153296887Y-118714737D01*
X153450037Y-118528123D01*
X153563838Y-118315217D01*
X153633916Y-118084200D01*
X153651650Y-117904147D01*
X153651650Y-115993054D01*
X156375550Y-115993054D01*
X156375550Y-117904147D01*
X156393285Y-118084200D01*
X156463363Y-118315217D01*
X156577164Y-118528123D01*
X156730314Y-118714737D01*
X156916928Y-118867887D01*
X157129834Y-118981688D01*
X157360851Y-119051766D01*
X157601100Y-119075429D01*
X157841350Y-119051766D01*
X158072367Y-118981688D01*
X158285273Y-118867887D01*
X158471887Y-118714737D01*
X158625037Y-118528123D01*
X158738838Y-118315217D01*
X158808916Y-118084200D01*
X158826650Y-117904147D01*
X158826650Y-116973600D01*
X161274750Y-116973600D01*
X161274750Y-117868950D01*
X161305113Y-118127228D01*
X161385280Y-118374619D01*
X161512170Y-118601617D01*
X161680907Y-118799498D01*
X161885006Y-118960658D01*
X162116624Y-119078904D01*
X162366861Y-119149691D01*
X162368958Y-119149826D01*
X162576100Y-119062294D01*
X162576100Y-116973600D01*
X162626100Y-116973600D01*
X162626100Y-119062294D01*
X162833242Y-119149826D01*
X162835339Y-119149691D01*
X163085576Y-119078904D01*
X163317194Y-118960658D01*
X163521293Y-118799498D01*
X163690030Y-118601617D01*
X163816920Y-118374619D01*
X163897087Y-118127228D01*
X163927450Y-117868950D01*
X163927450Y-116973600D01*
X162626100Y-116973600D01*
X162576100Y-116973600D01*
X161274750Y-116973600D01*
X158826650Y-116973600D01*
X158826650Y-116028250D01*
X161274750Y-116028250D01*
X161274750Y-116923600D01*
X162576100Y-116923600D01*
X162576100Y-114834906D01*
X162626100Y-114834906D01*
X162626100Y-116923600D01*
X163927450Y-116923600D01*
X163927450Y-116028250D01*
X163897087Y-115769972D01*
X163816920Y-115522581D01*
X163690030Y-115295583D01*
X163521293Y-115097702D01*
X163317194Y-114936542D01*
X163085576Y-114818296D01*
X162835339Y-114747509D01*
X162833242Y-114747374D01*
X162626100Y-114834906D01*
X162576100Y-114834906D01*
X162368958Y-114747374D01*
X162366861Y-114747509D01*
X162116624Y-114818296D01*
X161885006Y-114936542D01*
X161680907Y-115097702D01*
X161512170Y-115295583D01*
X161385280Y-115522581D01*
X161305113Y-115769972D01*
X161274750Y-116028250D01*
X158826650Y-116028250D01*
X158826650Y-115993053D01*
X158808916Y-115813000D01*
X158738838Y-115581983D01*
X158625037Y-115369077D01*
X158471887Y-115182463D01*
X158285272Y-115029313D01*
X158072366Y-114915512D01*
X157841349Y-114845434D01*
X157601100Y-114821771D01*
X157360850Y-114845434D01*
X157129833Y-114915512D01*
X156916927Y-115029313D01*
X156730313Y-115182463D01*
X156577163Y-115369078D01*
X156463362Y-115581984D01*
X156393284Y-115813001D01*
X156375550Y-115993054D01*
X153651650Y-115993054D01*
X153651650Y-115993053D01*
X153633916Y-115813000D01*
X153563838Y-115581983D01*
X153450037Y-115369077D01*
X153296887Y-115182463D01*
X153110272Y-115029313D01*
X152897366Y-114915512D01*
X152666349Y-114845434D01*
X152426100Y-114821771D01*
X152185850Y-114845434D01*
X151954833Y-114915512D01*
X151741927Y-115029313D01*
X151555313Y-115182463D01*
X151402163Y-115369078D01*
X151288362Y-115581984D01*
X151218284Y-115813001D01*
X151200550Y-115993054D01*
X148651650Y-115993054D01*
X148651650Y-115993053D01*
X148633916Y-115813000D01*
X148563838Y-115581983D01*
X148450037Y-115369077D01*
X148296887Y-115182463D01*
X148110272Y-115029313D01*
X147897366Y-114915512D01*
X147666349Y-114845434D01*
X147426100Y-114821771D01*
X147185850Y-114845434D01*
X146954833Y-114915512D01*
X146741927Y-115029313D01*
X146555313Y-115182463D01*
X146402163Y-115369078D01*
X146288362Y-115581984D01*
X146218284Y-115813001D01*
X146200550Y-115993054D01*
X131426300Y-115993054D01*
X131426300Y-113268600D01*
X136744385Y-113268600D01*
X136764002Y-113467771D01*
X136822098Y-113659287D01*
X136916440Y-113835790D01*
X137043404Y-113990496D01*
X137198110Y-114117460D01*
X137374613Y-114211802D01*
X137566129Y-114269898D01*
X137715398Y-114284600D01*
X139186802Y-114284600D01*
X139336071Y-114269898D01*
X139527587Y-114211802D01*
X139704090Y-114117460D01*
X139858796Y-113990496D01*
X139985760Y-113835790D01*
X140080102Y-113659287D01*
X140138198Y-113467771D01*
X140157815Y-113268600D01*
X140994385Y-113268600D01*
X141014002Y-113467771D01*
X141072098Y-113659287D01*
X141166440Y-113835790D01*
X141293404Y-113990496D01*
X141448110Y-114117460D01*
X141624613Y-114211802D01*
X141816129Y-114269898D01*
X141965398Y-114284600D01*
X143436802Y-114284600D01*
X143586071Y-114269898D01*
X143777587Y-114211802D01*
X143954090Y-114117460D01*
X144108796Y-113990496D01*
X144235760Y-113835790D01*
X144330102Y-113659287D01*
X144388198Y-113467771D01*
X144407815Y-113268600D01*
X144388198Y-113069429D01*
X144330102Y-112877913D01*
X144235760Y-112701410D01*
X144108796Y-112546704D01*
X143954090Y-112419740D01*
X143777587Y-112325398D01*
X143586071Y-112267302D01*
X143436802Y-112252600D01*
X141965398Y-112252600D01*
X141816129Y-112267302D01*
X141624613Y-112325398D01*
X141448110Y-112419740D01*
X141293404Y-112546704D01*
X141166440Y-112701410D01*
X141072098Y-112877913D01*
X141014002Y-113069429D01*
X140994385Y-113268600D01*
X140157815Y-113268600D01*
X140138198Y-113069429D01*
X140080102Y-112877913D01*
X139985760Y-112701410D01*
X139858796Y-112546704D01*
X139704090Y-112419740D01*
X139527587Y-112325398D01*
X139336071Y-112267302D01*
X139186802Y-112252600D01*
X137715398Y-112252600D01*
X137566129Y-112267302D01*
X137374613Y-112325398D01*
X137198110Y-112419740D01*
X137043404Y-112546704D01*
X136916440Y-112701410D01*
X136822098Y-112877913D01*
X136764002Y-113069429D01*
X136744385Y-113268600D01*
X131426300Y-113268600D01*
X131426300Y-110728600D01*
X136744385Y-110728600D01*
X136764002Y-110927771D01*
X136822098Y-111119287D01*
X136916440Y-111295790D01*
X137043404Y-111450496D01*
X137198110Y-111577460D01*
X137374613Y-111671802D01*
X137566129Y-111729898D01*
X137715398Y-111744600D01*
X139186802Y-111744600D01*
X139336071Y-111729898D01*
X139527587Y-111671802D01*
X139704090Y-111577460D01*
X139858796Y-111450496D01*
X139985760Y-111295790D01*
X140080102Y-111119287D01*
X140138198Y-110927771D01*
X140157815Y-110728600D01*
X140994385Y-110728600D01*
X141014002Y-110927771D01*
X141072098Y-111119287D01*
X141166440Y-111295790D01*
X141293404Y-111450496D01*
X141448110Y-111577460D01*
X141624613Y-111671802D01*
X141816129Y-111729898D01*
X141965398Y-111744600D01*
X143436802Y-111744600D01*
X143586071Y-111729898D01*
X143777587Y-111671802D01*
X143954090Y-111577460D01*
X144108796Y-111450496D01*
X144235760Y-111295790D01*
X144330102Y-111119287D01*
X144388198Y-110927771D01*
X144407815Y-110728600D01*
X144388198Y-110529429D01*
X144330102Y-110337913D01*
X144235760Y-110161410D01*
X144108796Y-110006704D01*
X143954090Y-109879740D01*
X143777587Y-109785398D01*
X143586071Y-109727302D01*
X143436802Y-109712600D01*
X141965398Y-109712600D01*
X141816129Y-109727302D01*
X141624613Y-109785398D01*
X141448110Y-109879740D01*
X141293404Y-110006704D01*
X141166440Y-110161410D01*
X141072098Y-110337913D01*
X141014002Y-110529429D01*
X140994385Y-110728600D01*
X140157815Y-110728600D01*
X140138198Y-110529429D01*
X140080102Y-110337913D01*
X139985760Y-110161410D01*
X139858796Y-110006704D01*
X139704090Y-109879740D01*
X139527587Y-109785398D01*
X139336071Y-109727302D01*
X139186802Y-109712600D01*
X137715398Y-109712600D01*
X137566129Y-109727302D01*
X137374613Y-109785398D01*
X137198110Y-109879740D01*
X137043404Y-110006704D01*
X136916440Y-110161410D01*
X136822098Y-110337913D01*
X136764002Y-110529429D01*
X136744385Y-110728600D01*
X131426300Y-110728600D01*
X131426300Y-108387954D01*
X136666437Y-108387954D01*
X136723944Y-108592884D01*
X136822825Y-108788274D01*
X136957925Y-108960619D01*
X137124052Y-109103296D01*
X137314822Y-109210822D01*
X137522903Y-109279064D01*
X137740300Y-109305400D01*
X138426100Y-109305400D01*
X138426100Y-108213600D01*
X138476100Y-108213600D01*
X138476100Y-109305400D01*
X139161900Y-109305400D01*
X139379297Y-109279064D01*
X139587378Y-109210822D01*
X139778148Y-109103296D01*
X139944275Y-108960619D01*
X140079375Y-108788274D01*
X140178256Y-108592884D01*
X140235763Y-108387954D01*
X140916437Y-108387954D01*
X140973944Y-108592884D01*
X141072825Y-108788274D01*
X141207925Y-108960619D01*
X141374052Y-109103296D01*
X141564822Y-109210822D01*
X141772903Y-109279064D01*
X141990300Y-109305400D01*
X142676100Y-109305400D01*
X142676100Y-108213600D01*
X142726100Y-108213600D01*
X142726100Y-109305400D01*
X143411900Y-109305400D01*
X143629297Y-109279064D01*
X143837378Y-109210822D01*
X144028148Y-109103296D01*
X144194275Y-108960619D01*
X144329375Y-108788274D01*
X144387059Y-108674288D01*
X154580900Y-108674288D01*
X154594360Y-108810950D01*
X154647550Y-108986293D01*
X154733925Y-109147890D01*
X154850167Y-109289533D01*
X154991809Y-109405775D01*
X155153406Y-109492150D01*
X155328749Y-109545340D01*
X155511100Y-109563300D01*
X155693450Y-109545340D01*
X155868793Y-109492150D01*
X156030390Y-109405775D01*
X156172033Y-109289533D01*
X156288275Y-109147891D01*
X156374650Y-108986294D01*
X156427840Y-108810951D01*
X156441300Y-108674289D01*
X156441300Y-108674288D01*
X157120900Y-108674288D01*
X157134360Y-108810950D01*
X157187550Y-108986293D01*
X157273925Y-109147890D01*
X157390167Y-109289533D01*
X157531809Y-109405775D01*
X157693406Y-109492150D01*
X157868749Y-109545340D01*
X158051100Y-109563300D01*
X158233450Y-109545340D01*
X158408793Y-109492150D01*
X158570390Y-109405775D01*
X158712033Y-109289533D01*
X158828275Y-109147891D01*
X158914650Y-108986294D01*
X158967840Y-108810951D01*
X158981300Y-108674289D01*
X158981300Y-108674288D01*
X159660900Y-108674288D01*
X159674360Y-108810950D01*
X159727550Y-108986293D01*
X159813925Y-109147890D01*
X159930167Y-109289533D01*
X160071809Y-109405775D01*
X160233406Y-109492150D01*
X160408749Y-109545340D01*
X160591100Y-109563300D01*
X160773450Y-109545340D01*
X160948793Y-109492150D01*
X161110390Y-109405775D01*
X161252033Y-109289533D01*
X161368275Y-109147891D01*
X161454650Y-108986294D01*
X161507840Y-108810951D01*
X161521300Y-108674289D01*
X161521300Y-107382911D01*
X161507840Y-107246249D01*
X161454650Y-107070906D01*
X161368275Y-106909309D01*
X161252033Y-106767667D01*
X161110391Y-106651425D01*
X160948794Y-106565050D01*
X160773451Y-106511860D01*
X160591100Y-106493900D01*
X160408750Y-106511860D01*
X160233407Y-106565050D01*
X160071810Y-106651425D01*
X159930168Y-106767667D01*
X159813926Y-106909309D01*
X159727551Y-107070906D01*
X159674361Y-107246249D01*
X159660901Y-107382911D01*
X159660900Y-108674288D01*
X158981300Y-108674288D01*
X158981300Y-107382911D01*
X158967840Y-107246249D01*
X158914650Y-107070906D01*
X158828275Y-106909309D01*
X158712033Y-106767667D01*
X158570391Y-106651425D01*
X158408794Y-106565050D01*
X158233451Y-106511860D01*
X158051100Y-106493900D01*
X157868750Y-106511860D01*
X157693407Y-106565050D01*
X157531810Y-106651425D01*
X157390168Y-106767667D01*
X157273926Y-106909309D01*
X157187551Y-107070906D01*
X157134361Y-107246249D01*
X157120901Y-107382911D01*
X157120900Y-108674288D01*
X156441300Y-108674288D01*
X156441300Y-107382911D01*
X156427840Y-107246249D01*
X156374650Y-107070906D01*
X156288275Y-106909309D01*
X156172033Y-106767667D01*
X156030391Y-106651425D01*
X155868794Y-106565050D01*
X155693451Y-106511860D01*
X155511100Y-106493900D01*
X155328750Y-106511860D01*
X155153407Y-106565050D01*
X154991810Y-106651425D01*
X154850168Y-106767667D01*
X154733926Y-106909309D01*
X154647551Y-107070906D01*
X154594361Y-107246249D01*
X154580901Y-107382911D01*
X154580900Y-108674288D01*
X144387059Y-108674288D01*
X144428256Y-108592884D01*
X144485763Y-108387954D01*
X144395640Y-108213600D01*
X142726100Y-108213600D01*
X142676100Y-108213600D01*
X141006560Y-108213600D01*
X140916437Y-108387954D01*
X140235763Y-108387954D01*
X140145640Y-108213600D01*
X138476100Y-108213600D01*
X138426100Y-108213600D01*
X136756560Y-108213600D01*
X136666437Y-108387954D01*
X131426300Y-108387954D01*
X131426300Y-107989246D01*
X136666437Y-107989246D01*
X136756560Y-108163600D01*
X138426100Y-108163600D01*
X138426100Y-107071800D01*
X138476100Y-107071800D01*
X138476100Y-108163600D01*
X140145640Y-108163600D01*
X140235763Y-107989246D01*
X140916437Y-107989246D01*
X141006560Y-108163600D01*
X142676100Y-108163600D01*
X142676100Y-107071800D01*
X142726100Y-107071800D01*
X142726100Y-108163600D01*
X144395640Y-108163600D01*
X144485763Y-107989246D01*
X144428256Y-107784316D01*
X144329375Y-107588926D01*
X144194275Y-107416581D01*
X144028148Y-107273904D01*
X143837378Y-107166378D01*
X143629297Y-107098136D01*
X143411900Y-107071800D01*
X142726100Y-107071800D01*
X142676100Y-107071800D01*
X141990300Y-107071800D01*
X141772903Y-107098136D01*
X141564822Y-107166378D01*
X141374052Y-107273904D01*
X141207925Y-107416581D01*
X141072825Y-107588926D01*
X140973944Y-107784316D01*
X140916437Y-107989246D01*
X140235763Y-107989246D01*
X140178256Y-107784316D01*
X140079375Y-107588926D01*
X139944275Y-107416581D01*
X139778148Y-107273904D01*
X139587378Y-107166378D01*
X139379297Y-107098136D01*
X139161900Y-107071800D01*
X138476100Y-107071800D01*
X138426100Y-107071800D01*
X137740300Y-107071800D01*
X137522903Y-107098136D01*
X137314822Y-107166378D01*
X137124052Y-107273904D01*
X136957925Y-107416581D01*
X136822825Y-107588926D01*
X136723944Y-107784316D01*
X136666437Y-107989246D01*
X131426300Y-107989246D01*
X131426300Y-101832100D01*
X139704271Y-101832100D01*
X139727934Y-102072350D01*
X139798012Y-102303367D01*
X139911813Y-102516273D01*
X140064963Y-102702887D01*
X140251577Y-102856037D01*
X140464483Y-102969838D01*
X140695500Y-103039916D01*
X140875553Y-103057650D01*
X142786647Y-103057650D01*
X142966700Y-103039916D01*
X143197717Y-102969838D01*
X143410623Y-102856037D01*
X143597237Y-102702887D01*
X143750387Y-102516273D01*
X143864188Y-102303367D01*
X143934266Y-102072350D01*
X143957929Y-101832100D01*
X143934266Y-101591850D01*
X143864188Y-101360833D01*
X143750387Y-101147927D01*
X143597237Y-100961313D01*
X143410623Y-100808163D01*
X143197717Y-100694362D01*
X143131542Y-100674288D01*
X154580900Y-100674288D01*
X154594360Y-100810950D01*
X154647550Y-100986293D01*
X154733925Y-101147890D01*
X154850167Y-101289533D01*
X154991809Y-101405775D01*
X155153406Y-101492150D01*
X155328749Y-101545340D01*
X155511100Y-101563300D01*
X155693450Y-101545340D01*
X155868793Y-101492150D01*
X156030390Y-101405775D01*
X156172033Y-101289533D01*
X156288275Y-101147891D01*
X156374650Y-100986294D01*
X156427840Y-100810951D01*
X156441300Y-100674289D01*
X156441300Y-100674288D01*
X157120900Y-100674288D01*
X157134360Y-100810950D01*
X157187550Y-100986293D01*
X157273925Y-101147890D01*
X157390167Y-101289533D01*
X157531809Y-101405775D01*
X157693406Y-101492150D01*
X157868749Y-101545340D01*
X158051100Y-101563300D01*
X158233450Y-101545340D01*
X158408793Y-101492150D01*
X158570390Y-101405775D01*
X158712033Y-101289533D01*
X158828275Y-101147891D01*
X158914650Y-100986294D01*
X158967840Y-100810951D01*
X158981300Y-100674289D01*
X158981300Y-100674288D01*
X159660900Y-100674288D01*
X159674360Y-100810950D01*
X159727550Y-100986293D01*
X159813925Y-101147890D01*
X159930167Y-101289533D01*
X160071809Y-101405775D01*
X160233406Y-101492150D01*
X160408749Y-101545340D01*
X160591100Y-101563300D01*
X160773450Y-101545340D01*
X160948793Y-101492150D01*
X161110390Y-101405775D01*
X161252033Y-101289533D01*
X161368275Y-101147891D01*
X161454650Y-100986294D01*
X161507840Y-100810951D01*
X161521300Y-100674289D01*
X161521300Y-99382911D01*
X161507840Y-99246249D01*
X161454650Y-99070906D01*
X161368275Y-98909309D01*
X161252033Y-98767667D01*
X161110391Y-98651425D01*
X160948794Y-98565050D01*
X160773451Y-98511860D01*
X160591100Y-98493900D01*
X160408750Y-98511860D01*
X160233407Y-98565050D01*
X160071810Y-98651425D01*
X159930168Y-98767667D01*
X159813926Y-98909309D01*
X159727551Y-99070906D01*
X159674361Y-99246249D01*
X159660901Y-99382911D01*
X159660900Y-100674288D01*
X158981300Y-100674288D01*
X158981300Y-99382911D01*
X158967840Y-99246249D01*
X158914650Y-99070906D01*
X158828275Y-98909309D01*
X158712033Y-98767667D01*
X158570391Y-98651425D01*
X158408794Y-98565050D01*
X158233451Y-98511860D01*
X158051100Y-98493900D01*
X157868750Y-98511860D01*
X157693407Y-98565050D01*
X157531810Y-98651425D01*
X157390168Y-98767667D01*
X157273926Y-98909309D01*
X157187551Y-99070906D01*
X157134361Y-99246249D01*
X157120901Y-99382911D01*
X157120900Y-100674288D01*
X156441300Y-100674288D01*
X156441300Y-99382911D01*
X156427840Y-99246249D01*
X156374650Y-99070906D01*
X156288275Y-98909309D01*
X156172033Y-98767667D01*
X156030391Y-98651425D01*
X155868794Y-98565050D01*
X155693451Y-98511860D01*
X155511100Y-98493900D01*
X155328750Y-98511860D01*
X155153407Y-98565050D01*
X154991810Y-98651425D01*
X154850168Y-98767667D01*
X154733926Y-98909309D01*
X154647551Y-99070906D01*
X154594361Y-99246249D01*
X154580901Y-99382911D01*
X154580900Y-100674288D01*
X143131542Y-100674288D01*
X142966700Y-100624284D01*
X142786647Y-100606550D01*
X140875553Y-100606550D01*
X140695500Y-100624284D01*
X140464483Y-100694362D01*
X140251577Y-100808163D01*
X140064963Y-100961313D01*
X139911813Y-101147927D01*
X139798012Y-101360833D01*
X139727934Y-101591850D01*
X139704271Y-101832100D01*
X131426300Y-101832100D01*
X131426300Y-96832100D01*
X139704271Y-96832100D01*
X139727934Y-97072350D01*
X139798012Y-97303367D01*
X139911813Y-97516273D01*
X140064963Y-97702887D01*
X140251577Y-97856037D01*
X140464483Y-97969838D01*
X140695500Y-98039916D01*
X140875553Y-98057650D01*
X142786647Y-98057650D01*
X142966700Y-98039916D01*
X143197717Y-97969838D01*
X143410623Y-97856037D01*
X143597237Y-97702887D01*
X143750387Y-97516273D01*
X143864188Y-97303367D01*
X143934266Y-97072350D01*
X143957929Y-96832100D01*
X143934266Y-96591850D01*
X143864188Y-96360833D01*
X143750387Y-96147927D01*
X143597237Y-95961313D01*
X143410623Y-95808163D01*
X143197717Y-95694362D01*
X142966700Y-95624284D01*
X142786647Y-95606550D01*
X140875553Y-95606550D01*
X140695500Y-95624284D01*
X140464483Y-95694362D01*
X140251577Y-95808163D01*
X140064963Y-95961313D01*
X139911813Y-96147927D01*
X139798012Y-96360833D01*
X139727934Y-96591850D01*
X139704271Y-96832100D01*
X131426300Y-96832100D01*
X131426300Y-91653600D01*
X139704271Y-91653600D01*
X139727934Y-91893850D01*
X139798012Y-92124867D01*
X139911813Y-92337773D01*
X140064963Y-92524387D01*
X140251577Y-92677537D01*
X140464483Y-92791338D01*
X140695500Y-92861416D01*
X140875553Y-92879150D01*
X142786647Y-92879150D01*
X142966700Y-92861416D01*
X143197717Y-92791338D01*
X143410623Y-92677537D01*
X143414581Y-92674288D01*
X154580900Y-92674288D01*
X154594360Y-92810950D01*
X154647550Y-92986293D01*
X154733925Y-93147890D01*
X154850167Y-93289533D01*
X154991809Y-93405775D01*
X155153406Y-93492150D01*
X155328749Y-93545340D01*
X155511100Y-93563300D01*
X155693450Y-93545340D01*
X155868793Y-93492150D01*
X156030390Y-93405775D01*
X156172033Y-93289533D01*
X156288275Y-93147891D01*
X156374650Y-92986294D01*
X156427840Y-92810951D01*
X156441300Y-92674289D01*
X156441300Y-92674288D01*
X157120900Y-92674288D01*
X157134360Y-92810950D01*
X157187550Y-92986293D01*
X157273925Y-93147890D01*
X157390167Y-93289533D01*
X157531809Y-93405775D01*
X157693406Y-93492150D01*
X157868749Y-93545340D01*
X158051100Y-93563300D01*
X158233450Y-93545340D01*
X158408793Y-93492150D01*
X158570390Y-93405775D01*
X158712033Y-93289533D01*
X158828275Y-93147891D01*
X158914650Y-92986294D01*
X158967840Y-92810951D01*
X158981300Y-92674289D01*
X158981300Y-92674288D01*
X159660900Y-92674288D01*
X159674360Y-92810950D01*
X159727550Y-92986293D01*
X159813925Y-93147890D01*
X159930167Y-93289533D01*
X160071809Y-93405775D01*
X160233406Y-93492150D01*
X160408749Y-93545340D01*
X160591100Y-93563300D01*
X160773450Y-93545340D01*
X160948793Y-93492150D01*
X161110390Y-93405775D01*
X161252033Y-93289533D01*
X161368275Y-93147891D01*
X161454650Y-92986294D01*
X161507840Y-92810951D01*
X161521300Y-92674289D01*
X161521300Y-91382911D01*
X161507840Y-91246249D01*
X161454650Y-91070906D01*
X161368275Y-90909309D01*
X161252033Y-90767667D01*
X161110391Y-90651425D01*
X160948794Y-90565050D01*
X160773451Y-90511860D01*
X160591100Y-90493900D01*
X160408750Y-90511860D01*
X160233407Y-90565050D01*
X160071810Y-90651425D01*
X159930168Y-90767667D01*
X159813926Y-90909309D01*
X159727551Y-91070906D01*
X159674361Y-91246249D01*
X159660901Y-91382911D01*
X159660900Y-92674288D01*
X158981300Y-92674288D01*
X158981300Y-91382911D01*
X158967840Y-91246249D01*
X158914650Y-91070906D01*
X158828275Y-90909309D01*
X158712033Y-90767667D01*
X158570391Y-90651425D01*
X158408794Y-90565050D01*
X158233451Y-90511860D01*
X158051100Y-90493900D01*
X157868750Y-90511860D01*
X157693407Y-90565050D01*
X157531810Y-90651425D01*
X157390168Y-90767667D01*
X157273926Y-90909309D01*
X157187551Y-91070906D01*
X157134361Y-91246249D01*
X157120901Y-91382911D01*
X157120900Y-92674288D01*
X156441300Y-92674288D01*
X156441300Y-91382911D01*
X156427840Y-91246249D01*
X156374650Y-91070906D01*
X156288275Y-90909309D01*
X156172033Y-90767667D01*
X156030391Y-90651425D01*
X155868794Y-90565050D01*
X155693451Y-90511860D01*
X155511100Y-90493900D01*
X155328750Y-90511860D01*
X155153407Y-90565050D01*
X154991810Y-90651425D01*
X154850168Y-90767667D01*
X154733926Y-90909309D01*
X154647551Y-91070906D01*
X154594361Y-91246249D01*
X154580901Y-91382911D01*
X154580900Y-92674288D01*
X143414581Y-92674288D01*
X143597237Y-92524387D01*
X143750387Y-92337773D01*
X143864188Y-92124867D01*
X143934266Y-91893850D01*
X143957929Y-91653600D01*
X143934266Y-91413350D01*
X143864188Y-91182333D01*
X143750387Y-90969427D01*
X143597237Y-90782813D01*
X143410623Y-90629663D01*
X143197717Y-90515862D01*
X142966700Y-90445784D01*
X142786647Y-90428050D01*
X140875553Y-90428050D01*
X140695500Y-90445784D01*
X140464483Y-90515862D01*
X140251577Y-90629663D01*
X140064963Y-90782813D01*
X139911813Y-90969427D01*
X139798012Y-91182333D01*
X139727934Y-91413350D01*
X139704271Y-91653600D01*
X131426300Y-91653600D01*
X131426300Y-86653600D01*
X139704271Y-86653600D01*
X139727934Y-86893850D01*
X139798012Y-87124867D01*
X139911813Y-87337773D01*
X140064963Y-87524387D01*
X140251577Y-87677537D01*
X140464483Y-87791338D01*
X140695500Y-87861416D01*
X140875553Y-87879150D01*
X142786647Y-87879150D01*
X142966700Y-87861416D01*
X143197717Y-87791338D01*
X143410623Y-87677537D01*
X143597237Y-87524387D01*
X143750387Y-87337773D01*
X143864188Y-87124867D01*
X143934266Y-86893850D01*
X143957929Y-86653600D01*
X143934266Y-86413350D01*
X143864188Y-86182333D01*
X143750387Y-85969427D01*
X143597237Y-85782813D01*
X143410623Y-85629663D01*
X143197717Y-85515862D01*
X142966700Y-85445784D01*
X142786647Y-85428050D01*
X140875553Y-85428050D01*
X140695500Y-85445784D01*
X140464483Y-85515862D01*
X140251577Y-85629663D01*
X140064963Y-85782813D01*
X139911813Y-85969427D01*
X139798012Y-86182333D01*
X139727934Y-86413350D01*
X139704271Y-86653600D01*
X131426300Y-86653600D01*
X131426300Y-83028800D01*
X165575901Y-83028800D01*
X165575900Y-126978400D01*
M02*
