  0
SECTION
  2
HEADER
  9
$ACADVER
  1
AC1014
  9
$HANDSEED
  5
FFFF
  9
$MEASUREMENT
 70
     1
  0
ENDSEC
  0
SECTION
  2
TABLES
  0
TABLE
  2
VPORT
  5
8
330
0
100
AcDbSymbolTable
 70
     4
  0
VPORT
  5
2E
330
8
100
AcDbSymbolTableRecord
100
AcDbViewportTableRecord
  2
*ACTIVE
 70
     0
 10
0.0
 20
0.0
 11
1.0
 21
1.0
 12
210.0
 22
148.5
 13
0.0
 23
0.0
 14
10.0
 24
10.0
 15
10.0
 25
10.0
 16
0.0
 26
0.0
 36
1.0
 17
0.0
 27
0.0
 37
0.0
 40
341.0
 41
1.24
 42
50.0
 43
0.0
 44
0.0
 50
0.0
 51
0.0
 71
     0
 72
   100
 73
     1
 74
     3
 75
     0
 76
     0
 77
     0
 78
     0
  0
ENDTAB
  0
TABLE
  2
LTYPE
  5
5
330
0
100
AcDbSymbolTable
 70
     1
  0
LTYPE
  5
14
330
5
100
AcDbSymbolTableRecord
100
AcDbLinetypeTableRecord
  2
BYBLOCK
 70
     0
  3

 72
    65
 73
     0
 40
0.0
  0
LTYPE
  5
15
330
5
100
AcDbSymbolTableRecord
100
AcDbLinetypeTableRecord
  2
BYLAYER
 70
     0
  3

 72
    65
 73
     0
 40
0.0
  0
LTYPE
  5
16
330
5
100
AcDbSymbolTableRecord
100
AcDbLinetypeTableRecord
  2
CONTINUOUS
 70
     0
  3
Solid line
 72
    65
 73
     0
 40
0.0
  0
ENDTAB
  0
TABLE
  2
LAYER
  5
2
100
AcDbSymbolTable
 70
2
  0
LAYER
  5
50
100
AcDbSymbolTableRecord
100
AcDbLayerTableRecord
  2
0
 70
0
  6
CONTINUOUS
  0
LAYER
  5
51
100
AcDbSymbolTableRecord
100
AcDbLayerTableRecord
  2
Layer_1
 70
0
  6
CONTINUOUS
  0
ENDTAB
  0
TABLE
  2
STYLE
  5
3
330
0
100
AcDbSymbolTable
 70
     1
  0
STYLE
  5
11
330
3
100
AcDbSymbolTableRecord
100
AcDbTextStyleTableRecord
  2
STANDARD
 70
     0
 40
0.0
 41
1.0
 50
0.0
 71
     0
 42
2.5
  3
txt
  4

  0
ENDTAB
  0
TABLE
  2
VIEW
  5
6
330
0
100
AcDbSymbolTable
 70
     0
  0
ENDTAB
  0
TABLE
  2
UCS
  5
7
330
0
100
AcDbSymbolTable
 70
     0
  0
ENDTAB
  0
TABLE
  2
APPID
  5
9
330
0
100
AcDbSymbolTable
 70
     2
  0
APPID
  5
12
330
9
100
AcDbSymbolTableRecord
100
AcDbRegAppTableRecord
  2
ACAD
 70
     0
  0
ENDTAB
  0
TABLE
  2
DIMSTYLE
  5
A
330
0
100
AcDbSymbolTable
 70
     1
  0
DIMSTYLE
105
27
330
A
100
AcDbSymbolTableRecord
100
AcDbDimStyleTableRecord
  2
ISO-25
 70
     0
  3

  4

  5

  6

  7

 40
1.0
 41
2.5
 42
0.625
 43
3.75
 44
1.25
 45
0.0
 46
0.0
 47
0.0
 48
0.0
140
2.5
141
2.5
142
0.0
143
0.03937007874016
144
1.0
145
0.0
146
1.0
147
0.625
 71
     0
 72
     0
 73
     0
 74
     0
 75
     0
 76
     0
 77
     1
 78
     8
170
     0
171
     3
172
     1
173
     0
174
     0
175
     0
176
     0
177
     0
178
     0
270
     2
271
     2
272
     2
273
     2
274
     3
340
11
275
     0
280
     0
281
     0
282
     0
283
     0
284
     8
285
     0
286
     0
287
     3
288
     0
  0
ENDTAB
  0
TABLE
  2
BLOCK_RECORD
  5
1
330
0
100
AcDbSymbolTable
 70
     1
  0
BLOCK_RECORD
  5
1F
330
1
100
AcDbSymbolTableRecord
100
AcDbBlockTableRecord
  2
*MODEL_SPACE
  0
BLOCK_RECORD
  5
1B
330
1
100
AcDbSymbolTableRecord
100
AcDbBlockTableRecord
  2
*PAPER_SPACE
  0
ENDTAB
  0
ENDSEC
  0
SECTION
  2
BLOCKS
  0
BLOCK
  5
20
330
1F
100
AcDbEntity
  8
0
100
AcDbBlockBegin
  2
*MODEL_SPACE
 70
     0
 10
0.0
 20
0.0
 30
0.0
  3
*MODEL_SPACE
  1

  0
ENDBLK
  5
21
330
1F
100
AcDbEntity
  8
0
100
AcDbBlockEnd
  0
BLOCK
  5
1C
330
1B
100
AcDbEntity
 67
     1
  8
0
100
AcDbBlockBegin
  2
*PAPER_SPACE
  1

  0
ENDBLK
  5
1D
330
1B
100
AcDbEntity
 67
     1
  8
0
100
AcDbBlockEnd
  0
ENDSEC
  0
SECTION
  2
ENTITIES
  0
SPLINE
  5
100
100
AcDbEntity
  8
Layer_1
 62
7
100
AcDbSpline
 70
8
 71
3
 72
8
 73
4
 74
0
 40
0
 40
0
 40
0
 40
0
 40
1
 40
1
 40
1
 40
1
 10
78.559382
 20
180.400449
 30
0.0
 10
78.559382
 20
180.512083
 30
0.0
 10
78.653842
 20
180.606543
 30
0.0
 10
78.765448
 20
180.606543
 30
0.0
  0
SPLINE
  5
101
100
AcDbEntity
  8
Layer_1
 62
7
100
AcDbSpline
 70
8
 71
3
 72
8
 73
4
 74
0
 40
0
 40
0
 40
0
 40
0
 40
1
 40
1
 40
1
 40
1
 10
78.765448
 20
180.606543
 30
0.0
 10
78.881375
 20
180.606543
 30
0.0
 10
78.971570
 20
180.512083
 30
0.0
 10
78.971570
 20
180.400449
 30
0.0
  0
LWPOLYLINE
  5
102
100
AcDbEntity
  8
Layer_1
 62
7
100
AcDbPolyline
 90
2
 70
0
 10
78.559382
 20
177.910291
 30
0.0
 10
78.559382
 20
180.400449
 30
0.0
  0
SPLINE
  5
103
100
AcDbEntity
  8
Layer_1
 62
7
100
AcDbSpline
 70
8
 71
3
 72
8
 73
4
 74
0
 40
0
 40
0
 40
0
 40
0
 40
1
 40
1
 40
1
 40
1
 10
78.971570
 20
177.910291
 30
0.0
 10
78.971570
 20
177.794363
 30
0.0
 10
78.881375
 20
177.704169
 30
0.0
 10
78.765448
 20
177.704169
 30
0.0
  0
SPLINE
  5
104
100
AcDbEntity
  8
Layer_1
 62
7
100
AcDbSpline
 70
8
 71
3
 72
8
 73
4
 74
0
 40
0
 40
0
 40
0
 40
0
 40
1
 40
1
 40
1
 40
1
 10
78.765448
 20
177.704169
 30
0.0
 10
78.653842
 20
177.704169
 30
0.0
 10
78.559382
 20
177.794363
 30
0.0
 10
78.559382
 20
177.910291
 30
0.0
  0
LWPOLYLINE
  5
105
100
AcDbEntity
  8
Layer_1
 62
7
100
AcDbPolyline
 90
2
 70
0
 10
78.971570
 20
180.400449
 30
0.0
 10
78.971570
 20
177.910291
 30
0.0
  0
SPLINE
  5
106
100
AcDbEntity
  8
Layer_1
 62
7
100
AcDbSpline
 70
8
 71
3
 72
8
 73
4
 74
0
 40
0
 40
0
 40
0
 40
0
 40
1
 40
1
 40
1
 40
1
 10
80.100735
 20
178.425469
 30
0.0
 10
80.100735
 20
178.253724
 30
0.0
 10
80.238103
 20
178.116328
 30
0.0
 10
80.409848
 20
178.116328
 30
0.0
  0
SPLINE
  5
107
100
AcDbEntity
  8
Layer_1
 62
7
100
AcDbSpline
 70
8
 71
3
 72
8
 73
4
 74
0
 40
0
 40
0
 40
0
 40
0
 40
1
 40
1
 40
1
 40
1
 10
80.409848
 20
178.116328
 30
0.0
 10
80.581592
 20
178.116328
 30
0.0
 10
80.718988
 20
178.253724
 30
0.0
 10
80.718988
 20
178.425469
 30
0.0
  0
LWPOLYLINE
  5
108
100
AcDbEntity
  8
Layer_1
 62
7
100
AcDbPolyline
 90
2
 70
0
 10
80.100735
 20
179.885243
 30
0.0
 10
80.100735
 20
178.425469
 30
0.0
  0
SPLINE
  5
109
100
AcDbEntity
  8
Layer_1
 62
7
100
AcDbSpline
 70
8
 71
3
 72
8
 73
4
 74
0
 40
0
 40
0
 40
0
 40
0
 40
1
 40
1
 40
1
 40
1
 10
80.718988
 20
179.885243
 30
0.0
 10
80.718988
 20
180.056959
 30
0.0
 10
80.581592
 20
180.194355
 30
0.0
 10
80.409848
 20
180.194355
 30
0.0
  0
SPLINE
  5
10a
100
AcDbEntity
  8
Layer_1
 62
7
100
AcDbSpline
 70
8
 71
3
 72
8
 73
4
 74
0
 40
0
 40
0
 40
0
 40
0
 40
1
 40
1
 40
1
 40
1
 10
80.409848
 20
180.194355
 30
0.0
 10
80.238103
 20
180.194355
 30
0.0
 10
80.100735
 20
180.056959
 30
0.0
 10
80.100735
 20
179.885243
 30
0.0
  0
LWPOLYLINE
  5
10b
100
AcDbEntity
  8
Layer_1
 62
7
100
AcDbPolyline
 90
2
 70
0
 10
80.718988
 20
178.425469
 30
0.0
 10
80.718988
 20
179.885243
 30
0.0
  0
SPLINE
  5
10c
100
AcDbEntity
  8
Layer_1
 62
7
100
AcDbSpline
 70
8
 71
3
 72
8
 73
4
 74
0
 40
0
 40
0
 40
0
 40
0
 40
1
 40
1
 40
1
 40
1
 10
79.688548
 20
179.885243
 30
0.0
 10
79.688548
 20
180.284521
 30
0.0
 10
80.010597
 20
180.606515
 30
0.0
 10
80.409848
 20
180.606515
 30
0.0
  0
SPLINE
  5
10d
100
AcDbEntity
  8
Layer_1
 62
7
100
AcDbSpline
 70
8
 71
3
 72
8
 73
4
 74
0
 40
0
 40
0
 40
0
 40
0
 40
1
 40
1
 40
1
 40
1
 10
80.409848
 20
180.606515
 30
0.0
 10
80.809154
 20
180.606515
 30
0.0
 10
81.131176
 20
180.284521
 30
0.0
 10
81.131176
 20
179.885243
 30
0.0
  0
LWPOLYLINE
  5
10e
100
AcDbEntity
  8
Layer_1
 62
7
100
AcDbPolyline
 90
2
 70
0
 10
79.688548
 20
178.425469
 30
0.0
 10
79.688548
 20
179.885243
 30
0.0
  0
SPLINE
  5
10f
100
AcDbEntity
  8
Layer_1
 62
7
100
AcDbSpline
 70
8
 71
3
 72
8
 73
4
 74
0
 40
0
 40
0
 40
0
 40
0
 40
1
 40
1
 40
1
 40
1
 10
81.131176
 20
178.425469
 30
0.0
 10
81.131176
 20
178.026190
 30
0.0
 10
80.809154
 20
177.704169
 30
0.0
 10
80.409848
 20
177.704169
 30
0.0
  0
SPLINE
  5
110
100
AcDbEntity
  8
Layer_1
 62
7
100
AcDbSpline
 70
8
 71
3
 72
8
 73
4
 74
0
 40
0
 40
0
 40
0
 40
0
 40
1
 40
1
 40
1
 40
1
 10
80.409848
 20
177.704169
 30
0.0
 10
80.010597
 20
177.704169
 30
0.0
 10
79.688548
 20
178.026190
 30
0.0
 10
79.688548
 20
178.425469
 30
0.0
  0
SPLINE
  5
111
100
AcDbEntity
  8
Layer_1
 62
7
100
AcDbSpline
 70
8
 71
3
 72
8
 73
4
 74
0
 40
0
 40
0
 40
0
 40
0
 40
1
 40
1
 40
1
 40
1
 10
82.913028
 20
180.589368
 30
0.0
 10
83.028956
 20
180.589368
 30
0.0
 10
83.119122
 20
180.494909
 30
0.0
 10
83.119122
 20
180.383303
 30
0.0
  0
SPLINE
  5
112
100
AcDbEntity
  8
Layer_1
 62
7
100
AcDbSpline
 70
8
 71
3
 72
8
 73
4
 74
0
 40
0
 40
0
 40
0
 40
0
 40
1
 40
1
 40
1
 40
1
 10
83.119122
 20
180.383303
 30
0.0
 10
83.119122
 20
180.267375
 30
0.0
 10
83.028956
 20
180.177209
 30
0.0
 10
82.913028
 20
180.177209
 30
0.0
  0
LWPOLYLINE
  5
113
100
AcDbEntity
  8
Layer_1
 62
7
100
AcDbPolyline
 90
2
 70
0
 10
81.131176
 20
179.885243
 30
0.0
 10
81.131176
 20
178.425469
 30
0.0
  0
SPLINE
  5
114
100
AcDbEntity
  8
Layer_1
 62
7
100
AcDbSpline
 70
8
 71
3
 72
8
 73
4
 74
0
 40
0
 40
0
 40
0
 40
0
 40
1
 40
1
 40
1
 40
1
 10
82.560979
 20
177.910291
 30
0.0
 10
82.560979
 20
177.794391
 30
0.0
 10
82.470813
 20
177.704169
 30
0.0
 10
82.354857
 20
177.704169
 30
0.0
  0
SPLINE
  5
115
100
AcDbEntity
  8
Layer_1
 62
7
100
AcDbSpline
 70
8
 71
3
 72
8
 73
4
 74
0
 40
0
 40
0
 40
0
 40
0
 40
1
 40
1
 40
1
 40
1
 10
82.354857
 20
177.704169
 30
0.0
 10
82.243252
 20
177.704169
 30
0.0
 10
82.148792
 20
177.794391
 30
0.0
 10
82.148792
 20
177.910291
 30
0.0
  0
LWPOLYLINE
  5
116
100
AcDbEntity
  8
Layer_1
 62
7
100
AcDbPolyline
 90
3
 70
0
 10
82.913028
 20
180.177209
 30
0.0
 10
82.560979
 20
180.177209
 30
0.0
 10
82.560979
 20
177.910291
 30
0.0
  0
SPLINE
  5
117
100
AcDbEntity
  8
Layer_1
 62
7
100
AcDbSpline
 70
8
 71
3
 72
8
 73
4
 74
0
 40
0
 40
0
 40
0
 40
0
 40
1
 40
1
 40
1
 40
1
 10
81.796743
 20
180.177209
 30
0.0
 10
81.685109
 20
180.177209
 30
0.0
 10
81.590650
 20
180.267375
 30
0.0
 10
81.590650
 20
180.383303
 30
0.0
  0
SPLINE
  5
118
100
AcDbEntity
  8
Layer_1
 62
7
100
AcDbSpline
 70
8
 71
3
 72
8
 73
4
 74
0
 40
0
 40
0
 40
0
 40
0
 40
1
 40
1
 40
1
 40
1
 10
81.590650
 20
180.383303
 30
0.0
 10
81.590650
 20
180.494909
 30
0.0
 10
81.685109
 20
180.589368
 30
0.0
 10
81.796743
 20
180.589368
 30
0.0
  0
LWPOLYLINE
  5
119
100
AcDbEntity
  8
Layer_1
 62
7
100
AcDbPolyline
 90
3
 70
0
 10
82.148792
 20
177.910291
 30
0.0
 10
82.148792
 20
180.177209
 30
0.0
 10
81.796743
 20
180.177209
 30
0.0
  0
LWPOLYLINE
  5
11a
100
AcDbEntity
  8
Layer_1
 62
7
100
AcDbPolyline
 90
2
 70
0
 10
81.796743
 20
180.589368
 30
0.0
 10
82.913028
 20
180.589368
 30
0.0
  0
SPLINE
  5
11b
100
AcDbEntity
  8
Layer_1
 62
7
100
AcDbSpline
 70
8
 71
3
 72
8
 73
4
 74
0
 40
0
 40
0
 40
0
 40
0
 40
1
 40
1
 40
1
 40
1
 10
78.559382
 20
180.400449
 30
0.0
 10
78.559382
 20
180.512083
 30
0.0
 10
78.653842
 20
180.606543
 30
0.0
 10
78.765448
 20
180.606543
 30
0.0
  0
SPLINE
  5
11c
100
AcDbEntity
  8
Layer_1
 62
7
100
AcDbSpline
 70
8
 71
3
 72
8
 73
4
 74
0
 40
0
 40
0
 40
0
 40
0
 40
1
 40
1
 40
1
 40
1
 10
78.765448
 20
180.606543
 30
0.0
 10
78.881375
 20
180.606543
 30
0.0
 10
78.971570
 20
180.512083
 30
0.0
 10
78.971570
 20
180.400449
 30
0.0
  0
LWPOLYLINE
  5
11d
100
AcDbEntity
  8
Layer_1
 62
7
100
AcDbPolyline
 90
2
 70
0
 10
78.559382
 20
177.910291
 30
0.0
 10
78.559382
 20
180.400449
 30
0.0
  0
SPLINE
  5
11e
100
AcDbEntity
  8
Layer_1
 62
7
100
AcDbSpline
 70
8
 71
3
 72
8
 73
4
 74
0
 40
0
 40
0
 40
0
 40
0
 40
1
 40
1
 40
1
 40
1
 10
78.971570
 20
177.910291
 30
0.0
 10
78.971570
 20
177.794363
 30
0.0
 10
78.881375
 20
177.704169
 30
0.0
 10
78.765448
 20
177.704169
 30
0.0
  0
SPLINE
  5
11f
100
AcDbEntity
  8
Layer_1
 62
7
100
AcDbSpline
 70
8
 71
3
 72
8
 73
4
 74
0
 40
0
 40
0
 40
0
 40
0
 40
1
 40
1
 40
1
 40
1
 10
78.765448
 20
177.704169
 30
0.0
 10
78.653842
 20
177.704169
 30
0.0
 10
78.559382
 20
177.794363
 30
0.0
 10
78.559382
 20
177.910291
 30
0.0
  0
LWPOLYLINE
  5
120
100
AcDbEntity
  8
Layer_1
 62
7
100
AcDbPolyline
 90
2
 70
0
 10
78.971570
 20
180.400449
 30
0.0
 10
78.971570
 20
177.910291
 30
0.0
  0
SPLINE
  5
121
100
AcDbEntity
  8
Layer_1
 62
7
100
AcDbSpline
 70
8
 71
3
 72
8
 73
4
 74
0
 40
0
 40
0
 40
0
 40
0
 40
1
 40
1
 40
1
 40
1
 10
80.100735
 20
178.425469
 30
0.0
 10
80.100735
 20
178.253724
 30
0.0
 10
80.238103
 20
178.116328
 30
0.0
 10
80.409848
 20
178.116328
 30
0.0
  0
SPLINE
  5
122
100
AcDbEntity
  8
Layer_1
 62
7
100
AcDbSpline
 70
8
 71
3
 72
8
 73
4
 74
0
 40
0
 40
0
 40
0
 40
0
 40
1
 40
1
 40
1
 40
1
 10
80.409848
 20
178.116328
 30
0.0
 10
80.581592
 20
178.116328
 30
0.0
 10
80.718988
 20
178.253724
 30
0.0
 10
80.718988
 20
178.425469
 30
0.0
  0
LWPOLYLINE
  5
123
100
AcDbEntity
  8
Layer_1
 62
7
100
AcDbPolyline
 90
2
 70
0
 10
80.100735
 20
179.885243
 30
0.0
 10
80.100735
 20
178.425469
 30
0.0
  0
SPLINE
  5
124
100
AcDbEntity
  8
Layer_1
 62
7
100
AcDbSpline
 70
8
 71
3
 72
8
 73
4
 74
0
 40
0
 40
0
 40
0
 40
0
 40
1
 40
1
 40
1
 40
1
 10
80.718988
 20
179.885243
 30
0.0
 10
80.718988
 20
180.056959
 30
0.0
 10
80.581592
 20
180.194355
 30
0.0
 10
80.409848
 20
180.194355
 30
0.0
  0
SPLINE
  5
125
100
AcDbEntity
  8
Layer_1
 62
7
100
AcDbSpline
 70
8
 71
3
 72
8
 73
4
 74
0
 40
0
 40
0
 40
0
 40
0
 40
1
 40
1
 40
1
 40
1
 10
80.409848
 20
180.194355
 30
0.0
 10
80.238103
 20
180.194355
 30
0.0
 10
80.100735
 20
180.056959
 30
0.0
 10
80.100735
 20
179.885243
 30
0.0
  0
LWPOLYLINE
  5
126
100
AcDbEntity
  8
Layer_1
 62
7
100
AcDbPolyline
 90
2
 70
0
 10
80.718988
 20
178.425469
 30
0.0
 10
80.718988
 20
179.885243
 30
0.0
  0
SPLINE
  5
127
100
AcDbEntity
  8
Layer_1
 62
7
100
AcDbSpline
 70
8
 71
3
 72
8
 73
4
 74
0
 40
0
 40
0
 40
0
 40
0
 40
1
 40
1
 40
1
 40
1
 10
79.688548
 20
179.885243
 30
0.0
 10
79.688548
 20
180.284521
 30
0.0
 10
80.010597
 20
180.606515
 30
0.0
 10
80.409848
 20
180.606515
 30
0.0
  0
SPLINE
  5
128
100
AcDbEntity
  8
Layer_1
 62
7
100
AcDbSpline
 70
8
 71
3
 72
8
 73
4
 74
0
 40
0
 40
0
 40
0
 40
0
 40
1
 40
1
 40
1
 40
1
 10
80.409848
 20
180.606515
 30
0.0
 10
80.809154
 20
180.606515
 30
0.0
 10
81.131176
 20
180.284521
 30
0.0
 10
81.131176
 20
179.885243
 30
0.0
  0
LWPOLYLINE
  5
129
100
AcDbEntity
  8
Layer_1
 62
7
100
AcDbPolyline
 90
2
 70
0
 10
79.688548
 20
178.425469
 30
0.0
 10
79.688548
 20
179.885243
 30
0.0
  0
SPLINE
  5
12a
100
AcDbEntity
  8
Layer_1
 62
7
100
AcDbSpline
 70
8
 71
3
 72
8
 73
4
 74
0
 40
0
 40
0
 40
0
 40
0
 40
1
 40
1
 40
1
 40
1
 10
81.131176
 20
178.425469
 30
0.0
 10
81.131176
 20
178.026190
 30
0.0
 10
80.809154
 20
177.704169
 30
0.0
 10
80.409848
 20
177.704169
 30
0.0
  0
SPLINE
  5
12b
100
AcDbEntity
  8
Layer_1
 62
7
100
AcDbSpline
 70
8
 71
3
 72
8
 73
4
 74
0
 40
0
 40
0
 40
0
 40
0
 40
1
 40
1
 40
1
 40
1
 10
80.409848
 20
177.704169
 30
0.0
 10
80.010597
 20
177.704169
 30
0.0
 10
79.688548
 20
178.026190
 30
0.0
 10
79.688548
 20
178.425469
 30
0.0
  0
SPLINE
  5
12c
100
AcDbEntity
  8
Layer_1
 62
7
100
AcDbSpline
 70
8
 71
3
 72
8
 73
4
 74
0
 40
0
 40
0
 40
0
 40
0
 40
1
 40
1
 40
1
 40
1
 10
82.913028
 20
180.589368
 30
0.0
 10
83.028956
 20
180.589368
 30
0.0
 10
83.119122
 20
180.494909
 30
0.0
 10
83.119122
 20
180.383303
 30
0.0
  0
SPLINE
  5
12d
100
AcDbEntity
  8
Layer_1
 62
7
100
AcDbSpline
 70
8
 71
3
 72
8
 73
4
 74
0
 40
0
 40
0
 40
0
 40
0
 40
1
 40
1
 40
1
 40
1
 10
83.119122
 20
180.383303
 30
0.0
 10
83.119122
 20
180.267375
 30
0.0
 10
83.028956
 20
180.177209
 30
0.0
 10
82.913028
 20
180.177209
 30
0.0
  0
LWPOLYLINE
  5
12e
100
AcDbEntity
  8
Layer_1
 62
7
100
AcDbPolyline
 90
2
 70
0
 10
81.131176
 20
179.885243
 30
0.0
 10
81.131176
 20
178.425469
 30
0.0
  0
SPLINE
  5
12f
100
AcDbEntity
  8
Layer_1
 62
7
100
AcDbSpline
 70
8
 71
3
 72
8
 73
4
 74
0
 40
0
 40
0
 40
0
 40
0
 40
1
 40
1
 40
1
 40
1
 10
82.560979
 20
177.910291
 30
0.0
 10
82.560979
 20
177.794391
 30
0.0
 10
82.470813
 20
177.704169
 30
0.0
 10
82.354857
 20
177.704169
 30
0.0
  0
SPLINE
  5
130
100
AcDbEntity
  8
Layer_1
 62
7
100
AcDbSpline
 70
8
 71
3
 72
8
 73
4
 74
0
 40
0
 40
0
 40
0
 40
0
 40
1
 40
1
 40
1
 40
1
 10
82.354857
 20
177.704169
 30
0.0
 10
82.243252
 20
177.704169
 30
0.0
 10
82.148792
 20
177.794391
 30
0.0
 10
82.148792
 20
177.910291
 30
0.0
  0
LWPOLYLINE
  5
131
100
AcDbEntity
  8
Layer_1
 62
7
100
AcDbPolyline
 90
3
 70
0
 10
82.913028
 20
180.177209
 30
0.0
 10
82.560979
 20
180.177209
 30
0.0
 10
82.560979
 20
177.910291
 30
0.0
  0
SPLINE
  5
132
100
AcDbEntity
  8
Layer_1
 62
7
100
AcDbSpline
 70
8
 71
3
 72
8
 73
4
 74
0
 40
0
 40
0
 40
0
 40
0
 40
1
 40
1
 40
1
 40
1
 10
81.796743
 20
180.177209
 30
0.0
 10
81.685109
 20
180.177209
 30
0.0
 10
81.590650
 20
180.267375
 30
0.0
 10
81.590650
 20
180.383303
 30
0.0
  0
SPLINE
  5
133
100
AcDbEntity
  8
Layer_1
 62
7
100
AcDbSpline
 70
8
 71
3
 72
8
 73
4
 74
0
 40
0
 40
0
 40
0
 40
0
 40
1
 40
1
 40
1
 40
1
 10
81.590650
 20
180.383303
 30
0.0
 10
81.590650
 20
180.494909
 30
0.0
 10
81.685109
 20
180.589368
 30
0.0
 10
81.796743
 20
180.589368
 30
0.0
  0
LWPOLYLINE
  5
134
100
AcDbEntity
  8
Layer_1
 62
7
100
AcDbPolyline
 90
3
 70
0
 10
82.148792
 20
177.910291
 30
0.0
 10
82.148792
 20
180.177209
 30
0.0
 10
81.796743
 20
180.177209
 30
0.0
  0
LWPOLYLINE
  5
135
100
AcDbEntity
  8
Layer_1
 62
7
100
AcDbPolyline
 90
2
 70
0
 10
81.796743
 20
180.589368
 30
0.0
 10
82.913028
 20
180.589368
 30
0.0
  0
SPLINE
  5
136
100
AcDbEntity
  8
Layer_1
 62
7
100
AcDbSpline
 70
8
 71
3
 72
8
 73
4
 74
0
 40
0
 40
0
 40
0
 40
0
 40
1
 40
1
 40
1
 40
1
 10
76.508077
 20
179.047055
 30
0.0
 10
76.439859
 20
179.176372
 30
0.0
 10
76.489405
 20
179.336507
 30
0.0
 10
76.618722
 20
179.404725
 30
0.0
  0
SPLINE
  5
137
100
AcDbEntity
  8
Layer_1
 62
7
100
AcDbSpline
 70
8
 71
3
 72
8
 73
4
 74
0
 40
0
 40
0
 40
0
 40
0
 40
1
 40
1
 40
1
 40
1
 10
76.618722
 20
179.404725
 30
0.0
 10
76.742475
 20
179.469976
 30
0.0
 10
76.894898
 20
179.426673
 30
0.0
 10
76.967523
 20
179.309587
 30
0.0
  0
LWPOLYLINE
  5
138
100
AcDbEntity
  8
Layer_1
 62
7
100
AcDbPolyline
 90
2
 70
0
 10
77.145962
 20
177.837779
 30
0.0
 10
76.508077
 20
179.047055
 30
0.0
  0
SPLINE
  5
139
100
AcDbEntity
  8
Layer_1
 62
7
100
AcDbSpline
 70
8
 71
3
 72
8
 73
4
 74
0
 40
0
 40
0
 40
0
 40
0
 40
1
 40
1
 40
1
 40
1
 10
77.685546
 20
178.146073
 30
0.0
 10
77.775683
 20
177.999948
 30
0.0
 10
77.730346
 20
177.808402
 30
0.0
 10
77.584222
 20
177.718264
 30
0.0
  0
SPLINE
  5
13a
100
AcDbEntity
  8
Layer_1
 62
7
100
AcDbSpline
 70
8
 71
3
 72
8
 73
4
 74
0
 40
0
 40
0
 40
0
 40
0
 40
1
 40
1
 40
1
 40
1
 10
77.584222
 20
177.718264
 30
0.0
 10
77.438098
 20
177.628070
 30
0.0
 10
77.246551
 20
177.673435
 30
0.0
 10
77.156385
 20
177.819531
 30
0.0
  0
SPLINE
  5
13b
100
AcDbEntity
  8
Layer_1
 62
7
100
AcDbSpline
 70
8
 71
3
 72
8
 73
4
 74
0
 40
0
 40
0
 40
0
 40
0
 40
1
 40
1
 40
1
 40
1
 10
77.156385
 20
177.819531
 30
0.0
 10
77.152826
 20
177.825322
 30
0.0
 10
77.149097
 20
177.831876
 30
0.0
 10
77.145962
 20
177.837779
 30
0.0
  0
SPLINE
  5
13c
100
AcDbEntity
  8
Layer_1
 62
7
100
AcDbSpline
 70
8
 71
3
 72
8
 73
4
 74
0
 40
0
 40
0
 40
0
 40
0
 40
1
 40
1
 40
1
 40
1
 10
76.336247
 20
180.521857
 30
0.0
 10
76.336247
 20
180.521857
 30
0.0
 10
76.347801
 20
180.524879
 30
0.0
 10
76.370144
 20
180.530755
 30
0.0
  0
SPLINE
  5
13d
100
AcDbEntity
  8
Layer_1
 62
7
100
AcDbSpline
 70
8
 71
3
 72
8
 73
4
 74
0
 40
0
 40
0
 40
0
 40
0
 40
1
 40
1
 40
1
 40
1
 10
76.370144
 20
180.530755
 30
0.0
 10
76.374297
 20
180.531941
 30
0.0
 10
76.378958
 20
180.533241
 30
0.0
 10
76.384127
 20
180.534681
 30
0.0
  0
SPLINE
  5
13e
100
AcDbEntity
  8
Layer_1
 62
7
100
AcDbSpline
 70
8
 71
3
 72
8
 73
4
 74
0
 40
0
 40
0
 40
0
 40
0
 40
1
 40
1
 40
1
 40
1
 10
76.384127
 20
180.534681
 30
0.0
 10
76.390087
 20
180.536489
 30
0.0
 10
76.396641
 20
180.538438
 30
0.0
 10
76.403731
 20
180.540585
 30
0.0
  0
SPLINE
  5
13f
100
AcDbEntity
  8
Layer_1
 62
7
100
AcDbSpline
 70
8
 71
3
 72
8
 73
4
 74
0
 40
0
 40
0
 40
0
 40
0
 40
1
 40
1
 40
1
 40
1
 10
76.403731
 20
180.540585
 30
0.0
 10
76.417967
 20
180.544991
 30
0.0
 10
76.434520
 20
180.550415
 30
0.0
 10
76.453305
 20
180.556912
 30
0.0
  0
SPLINE
  5
140
100
AcDbEntity
  8
Layer_1
 62
7
100
AcDbSpline
 70
8
 71
3
 72
8
 73
4
 74
0
 40
0
 40
0
 40
0
 40
0
 40
1
 40
1
 40
1
 40
1
 10
76.453305
 20
180.556912
 30
0.0
 10
76.527991
 20
180.583436
 30
0.0
 10
76.640529
 20
180.629423
 30
0.0
 10
76.770892
 20
180.710155
 30
0.0
  0
SPLINE
  5
141
100
AcDbEntity
  8
Layer_1
 62
7
100
AcDbSpline
 70
8
 71
3
 72
8
 73
4
 74
0
 40
0
 40
0
 40
0
 40
0
 40
1
 40
1
 40
1
 40
1
 10
76.770892
 20
180.710155
 30
0.0
 10
76.899898
 20
180.790349
 30
0.0
 10
77.049130
 20
180.906644
 30
0.0
 10
77.162543
 20
181.064548
 30
0.0
  0
SPLINE
  5
142
100
AcDbEntity
  8
Layer_1
 62
7
100
AcDbSpline
 70
8
 71
3
 72
8
 73
4
 74
0
 40
0
 40
0
 40
0
 40
0
 40
1
 40
1
 40
1
 40
1
 10
77.162543
 20
181.064548
 30
0.0
 10
77.275816
 20
181.222734
 30
0.0
 10
77.343807
 20
181.415071
 30
0.0
 10
77.306973
 20
181.638537
 30
0.0
  0
SPLINE
  5
143
100
AcDbEntity
  8
Layer_1
 62
7
100
AcDbSpline
 70
8
 71
3
 72
8
 73
4
 74
0
 40
0
 40
0
 40
0
 40
0
 40
1
 40
1
 40
1
 40
1
 10
77.306973
 20
181.638537
 30
0.0
 10
77.298414
 20
181.694467
 30
0.0
 10
77.282680
 20
181.752374
 30
0.0
 10
77.261409
 20
181.811553
 30
0.0
  0
SPLINE
  5
144
100
AcDbEntity
  8
Layer_1
 62
7
100
AcDbSpline
 70
8
 71
3
 72
8
 73
4
 74
0
 40
0
 40
0
 40
0
 40
0
 40
1
 40
1
 40
1
 40
1
 10
77.261409
 20
181.811553
 30
0.0
 10
77.259008
 20
181.818954
 30
0.0
 10
77.255760
 20
181.826355
 30
0.0
 10
77.252963
 20
181.833784
 30
0.0
  0
LWPOLYLINE
  5
145
100
AcDbEntity
  8
Layer_1
 62
7
100
AcDbPolyline
 90
2
 70
0
 10
76.967523
 20
179.309587
 30
0.0
 10
77.685546
 20
178.146073
 30
0.0
  0
SPLINE
  5
146
100
AcDbEntity
  8
Layer_1
 62
7
100
AcDbSpline
 70
8
 71
3
 72
8
 73
4
 74
0
 40
0
 40
0
 40
0
 40
0
 40
1
 40
1
 40
1
 40
1
 10
77.246467
 20
181.850563
 30
0.0
 10
77.250958
 20
181.840930
 30
0.0
 10
77.234857
 20
181.876070
 30
0.0
 10
77.256268
 20
181.829660
 30
0.0
  0
LWPOLYLINE
  5
147
100
AcDbEntity
  8
Layer_1
 62
7
100
AcDbPolyline
 90
3
 70
0
 10
77.252963
 20
181.833784
 30
0.0
 10
77.248613
 20
181.844941
 30
0.0
 10
77.246467
 20
181.850563
 30
0.0
  0
SPLINE
  5
148
100
AcDbEntity
  8
Layer_1
 62
7
100
AcDbSpline
 70
8
 71
3
 72
8
 73
4
 74
0
 40
0
 40
0
 40
0
 40
0
 40
1
 40
1
 40
1
 40
1
 10
77.227428
 20
181.885138
 30
0.0
 10
77.220083
 20
181.897058
 30
0.0
 10
77.215197
 20
181.907566
 30
0.0
 10
77.206299
 20
181.921181
 30
0.0
  0
SPLINE
  5
149
100
AcDbEntity
  8
Layer_1
 62
7
100
AcDbSpline
 70
8
 71
3
 72
8
 73
4
 74
0
 40
0
 40
0
 40
0
 40
0
 40
1
 40
1
 40
1
 40
1
 10
77.206299
 20
181.921181
 30
0.0
 10
77.197909
 20
181.934288
 30
0.0
 10
77.189972
 20
181.948017
 30
0.0
 10
77.180876
 20
181.960389
 30
0.0
  0
SPLINE
  5
14a
100
AcDbEntity
  8
Layer_1
 62
7
100
AcDbSpline
 70
8
 71
3
 72
8
 73
4
 74
0
 40
0
 40
0
 40
0
 40
0
 40
1
 40
1
 40
1
 40
1
 10
77.180876
 20
181.960389
 30
0.0
 10
77.110992
 20
182.063125
 30
0.0
 10
77.022662
 20
182.143772
 30
0.0
 10
76.917411
 20
182.193233
 30
0.0
  0
SPLINE
  5
14b
100
AcDbEntity
  8
Layer_1
 62
7
100
AcDbSpline
 70
8
 71
3
 72
8
 73
4
 74
0
 40
0
 40
0
 40
0
 40
0
 40
1
 40
1
 40
1
 40
1
 10
76.917411
 20
182.193233
 30
0.0
 10
76.812444
 20
182.242779
 30
0.0
 10
76.686940
 20
182.261394
 30
0.0
 10
76.552510
 20
182.243429
 30
0.0
  0
SPLINE
  5
14c
100
AcDbEntity
  8
Layer_1
 62
7
100
AcDbSpline
 70
8
 71
3
 72
8
 73
4
 74
0
 40
0
 40
0
 40
0
 40
0
 40
1
 40
1
 40
1
 40
1
 10
76.552510
 20
182.243429
 30
0.0
 10
76.418476
 20
182.226057
 30
0.0
 10
76.278284
 20
182.171031
 30
0.0
 10
76.153910
 20
182.087051
 30
0.0
  0
SPLINE
  5
14d
100
AcDbEntity
  8
Layer_1
 62
7
100
AcDbSpline
 70
8
 71
3
 72
8
 73
4
 74
0
 40
0
 40
0
 40
0
 40
0
 40
1
 40
1
 40
1
 40
1
 10
76.153910
 20
182.087051
 30
0.0
 10
76.029282
 20
182.003297
 30
0.0
 10
75.920642
 20
181.889798
 30
0.0
 10
75.847198
 20
181.760142
 30
0.0
  0
SPLINE
  5
14e
100
AcDbEntity
  8
Layer_1
 62
7
100
AcDbSpline
 70
8
 71
3
 72
8
 73
4
 74
0
 40
0
 40
0
 40
0
 40
0
 40
1
 40
1
 40
1
 40
1
 10
75.847198
 20
181.760142
 30
0.0
 10
75.809968
 20
181.695540
 30
0.0
 10
75.782483
 20
181.626786
 30
0.0
 10
75.763981
 20
181.556421
 30
0.0
  0
SPLINE
  5
14f
100
AcDbEntity
  8
Layer_1
 62
7
100
AcDbSpline
 70
8
 71
3
 72
8
 73
4
 74
0
 40
0
 40
0
 40
0
 40
0
 40
1
 40
1
 40
1
 40
1
 10
75.763981
 20
181.556421
 30
0.0
 10
75.755055
 20
181.521140
 30
0.0
 10
75.748784
 20
181.485407
 30
0.0
 10
75.744745
 20
181.449363
 30
0.0
  0
SPLINE
  5
150
100
AcDbEntity
  8
Layer_1
 62
7
100
AcDbSpline
 70
8
 71
3
 72
8
 73
4
 74
0
 40
0
 40
0
 40
0
 40
0
 40
1
 40
1
 40
1
 40
1
 10
75.744745
 20
181.449363
 30
0.0
 10
75.742598
 20
181.431370
 30
0.0
 10
75.741609
 20
181.413263
 30
0.0
 10
75.740734
 20
181.395100
 30
0.0
  0
LWPOLYLINE
  5
151
100
AcDbEntity
  8
Layer_1
 62
7
100
AcDbPolyline
 90
6
 70
0
 10
77.256268
 20
181.829660
 30
0.0
 10
77.254517
 20
181.833077
 30
0.0
 10
77.240535
 20
181.860336
 30
0.0
 10
77.233501
 20
181.874036
 30
0.0
 10
77.230027
 20
181.880788
 30
0.0
 10
77.227428
 20
181.885138
 30
0.0
  0
SPLINE
  5
152
100
AcDbEntity
  8
Layer_1
 62
7
100
AcDbSpline
 70
8
 71
3
 72
8
 73
4
 74
0
 40
0
 40
0
 40
0
 40
0
 40
1
 40
1
 40
1
 40
1
 10
75.739180
 20
181.322052
 30
0.0
 10
75.737513
 20
181.270190
 30
0.0
 10
75.739321
 20
181.222762
 30
0.0
 10
75.739321
 20
181.172933
 30
0.0
  0
SPLINE
  5
153
100
AcDbEntity
  8
Layer_1
 62
7
100
AcDbSpline
 70
8
 71
3
 72
8
 73
4
 74
0
 40
0
 40
0
 40
0
 40
0
 40
1
 40
1
 40
1
 40
1
 10
75.739321
 20
181.172933
 30
0.0
 10
75.739717
 20
181.123613
 30
0.0
 10
75.740112
 20
181.074208
 30
0.0
 10
75.740508
 20
181.024747
 30
0.0
  0
SPLINE
  5
154
100
AcDbEntity
  8
Layer_1
 62
7
100
AcDbSpline
 70
8
 71
3
 72
8
 73
4
 74
0
 40
0
 40
0
 40
0
 40
0
 40
1
 40
1
 40
1
 40
1
 10
75.740508
 20
181.024747
 30
0.0
 10
75.740225
 20
180.926954
 30
0.0
 10
75.744236
 20
180.824049
 30
0.0
 10
75.747372
 20
180.721934
 30
0.0
  0
SPLINE
  5
155
100
AcDbEntity
  8
Layer_1
 62
7
100
AcDbSpline
 70
8
 71
3
 72
8
 73
4
 74
0
 40
0
 40
0
 40
0
 40
0
 40
1
 40
1
 40
1
 40
1
 10
75.747372
 20
180.721934
 30
0.0
 10
75.750564
 20
180.619734
 30
0.0
 10
75.753727
 20
180.517337
 30
0.0
 10
75.756919
 20
180.414855
 30
0.0
  0
SPLINE
  5
156
100
AcDbEntity
  8
Layer_1
 62
7
100
AcDbSpline
 70
8
 71
3
 72
8
 73
4
 74
0
 40
0
 40
0
 40
0
 40
0
 40
1
 40
1
 40
1
 40
1
 10
75.756919
 20
180.414855
 30
0.0
 10
75.760337
 20
180.312345
 30
0.0
 10
75.762456
 20
180.209948
 30
0.0
 10
75.768444
 20
180.106816
 30
0.0
  0
SPLINE
  5
157
100
AcDbEntity
  8
Layer_1
 62
7
100
AcDbSpline
 70
8
 71
3
 72
8
 73
4
 74
0
 40
0
 40
0
 40
0
 40
0
 40
1
 40
1
 40
1
 40
1
 10
75.768444
 20
180.106816
 30
0.0
 10
75.778755
 20
179.900892
 30
0.0
 10
75.789037
 20
179.694968
 30
0.0
 10
75.799319
 20
179.489834
 30
0.0
  0
SPLINE
  5
158
100
AcDbEntity
  8
Layer_1
 62
7
100
AcDbSpline
 70
8
 71
3
 72
8
 73
4
 74
0
 40
0
 40
0
 40
0
 40
0
 40
1
 40
1
 40
1
 40
1
 10
75.799319
 20
179.489834
 30
0.0
 10
75.804432
 20
179.387268
 30
0.0
 10
75.809544
 20
179.284899
 30
0.0
 10
75.814657
 20
179.182841
 30
0.0
  0
LWPOLYLINE
  5
159
100
AcDbEntity
  8
Layer_1
 62
7
100
AcDbPolyline
 90
2
 70
0
 10
75.740734
 20
181.395100
 30
0.0
 10
75.739180
 20
181.322052
 30
0.0
  0
SPLINE
  5
15a
100
AcDbEntity
  8
Layer_1
 62
7
100
AcDbSpline
 70
8
 71
3
 72
8
 73
4
 74
0
 40
0
 40
0
 40
0
 40
0
 40
1
 40
1
 40
1
 40
1
 10
75.820815
 20
178.928839
 30
0.0
 10
75.819516
 20
178.899377
 30
0.0
 10
75.818640
 20
178.870084
 30
0.0
 10
75.816776
 20
178.840622
 30
0.0
  0
SPLINE
  5
15b
100
AcDbEntity
  8
Layer_1
 62
7
100
AcDbSpline
 70
8
 71
3
 72
8
 73
4
 74
0
 40
0
 40
0
 40
0
 40
0
 40
1
 40
1
 40
1
 40
1
 10
75.816776
 20
178.840622
 30
0.0
 10
75.801296
 20
178.605546
 30
0.0
 10
75.745394
 20
178.362674
 30
0.0
 10
75.626953
 20
178.141920
 30
0.0
  0
SPLINE
  5
15c
100
AcDbEntity
  8
Layer_1
 62
7
100
AcDbSpline
 70
8
 71
3
 72
8
 73
4
 74
0
 40
0
 40
0
 40
0
 40
0
 40
1
 40
1
 40
1
 40
1
 10
75.626953
 20
178.141920
 30
0.0
 10
75.567520
 20
178.032179
 30
0.0
 10
75.493822
 20
177.928652
 30
0.0
 10
75.406283
 20
177.838429
 30
0.0
  0
SPLINE
  5
15d
100
AcDbEntity
  8
Layer_1
 62
7
100
AcDbSpline
 70
8
 71
3
 72
8
 73
4
 74
0
 40
0
 40
0
 40
0
 40
0
 40
1
 40
1
 40
1
 40
1
 10
75.406283
 20
177.838429
 30
0.0
 10
75.319253
 20
177.747839
 30
0.0
 10
75.219285
 20
177.670385
 30
0.0
 10
75.112340
 20
177.609144
 30
0.0
  0
SPLINE
  5
15e
100
AcDbEntity
  8
Layer_1
 62
7
100
AcDbSpline
 70
8
 71
3
 72
8
 73
4
 74
0
 40
0
 40
0
 40
0
 40
0
 40
1
 40
1
 40
1
 40
1
 10
75.112340
 20
177.609144
 30
0.0
 10
74.897969
 20
177.485844
 30
0.0
 10
74.658515
 20
177.427682
 30
0.0
 10
74.427140
 20
177.425761
 30
0.0
  0
SPLINE
  5
15f
100
AcDbEntity
  8
Layer_1
 62
7
100
AcDbSpline
 70
8
 71
3
 72
8
 73
4
 74
0
 40
0
 40
0
 40
0
 40
0
 40
1
 40
1
 40
1
 40
1
 10
74.427140
 20
177.425761
 30
0.0
 10
74.195313
 20
177.423812
 30
0.0
 10
73.968627
 20
177.476635
 30
0.0
 10
73.768069
 20
177.579512
 30
0.0
  0
SPLINE
  5
160
100
AcDbEntity
  8
Layer_1
 62
7
100
AcDbSpline
 70
8
 71
3
 72
8
 73
4
 74
0
 40
0
 40
0
 40
0
 40
0
 40
1
 40
1
 40
1
 40
1
 10
73.768069
 20
177.579512
 30
0.0
 10
73.567682
 20
177.681627
 30
0.0
 10
73.394440
 20
177.838288
 30
0.0
 10
73.279529
 20
178.026077
 30
0.0
  0
SPLINE
  5
161
100
AcDbEntity
  8
Layer_1
 62
7
100
AcDbSpline
 70
8
 71
3
 72
8
 73
4
 74
0
 40
0
 40
0
 40
0
 40
0
 40
1
 40
1
 40
1
 40
1
 10
73.279529
 20
178.026077
 30
0.0
 10
73.251197
 20
178.073081
 30
0.0
 10
73.225491
 20
178.121215
 30
0.0
 10
73.204221
 20
178.170620
 30
0.0
  0
SPLINE
  5
162
100
AcDbEntity
  8
Layer_1
 62
7
100
AcDbSpline
 70
8
 71
3
 72
8
 73
4
 74
0
 40
0
 40
0
 40
0
 40
0
 40
1
 40
1
 40
1
 40
1
 10
73.204221
 20
178.170620
 30
0.0
 10
73.198515
 20
178.182823
 30
0.0
 10
73.193713
 20
178.195308
 30
0.0
 10
73.188854
 20
178.207765
 30
0.0
  0
LWPOLYLINE
  5
163
100
AcDbEntity
  8
Layer_1
 62
7
100
AcDbPolyline
 90
4
 70
0
 10
75.814657
 20
179.182841
 30
0.0
 10
75.818471
 20
179.106346
 30
0.0
 10
75.821182
 20
179.021547
 30
0.0
 10
75.820815
 20
178.928839
 30
0.0
  0
SPLINE
  5
164
100
AcDbEntity
  8
Layer_1
 62
7
100
AcDbSpline
 70
8
 71
3
 72
8
 73
4
 74
0
 40
0
 40
0
 40
0
 40
0
 40
1
 40
1
 40
1
 40
1
 10
73.173205
 20
178.248611
 30
0.0
 10
73.166652
 20
178.267932
 30
0.0
 10
73.160098
 20
178.287141
 30
0.0
 10
73.153573
 20
178.306264
 30
0.0
  0
SPLINE
  5
165
100
AcDbEntity
  8
Layer_1
 62
7
100
AcDbSpline
 70
8
 71
3
 72
8
 73
4
 74
0
 40
0
 40
0
 40
0
 40
0
 40
1
 40
1
 40
1
 40
1
 10
73.153573
 20
178.306264
 30
0.0
 10
73.146201
 20
178.330077
 30
0.0
 10
73.138376
 20
178.358211
 30
0.0
 10
73.131286
 20
178.383888
 30
0.0
  0
SPLINE
  5
166
100
AcDbEntity
  8
Layer_1
 62
7
100
AcDbSpline
 70
8
 71
3
 72
8
 73
4
 74
0
 40
0
 40
0
 40
0
 40
0
 40
1
 40
1
 40
1
 40
1
 10
73.131286
 20
178.383888
 30
0.0
 10
73.124196
 20
178.410017
 30
0.0
 10
73.120128
 20
178.432446
 30
0.0
 10
73.114620
 20
178.456767
 30
0.0
  0
SPLINE
  5
167
100
AcDbEntity
  8
Layer_1
 62
7
100
AcDbSpline
 70
8
 71
3
 72
8
 73
4
 74
0
 40
0
 40
0
 40
0
 40
0
 40
1
 40
1
 40
1
 40
1
 10
73.114620
 20
178.456767
 30
0.0
 10
73.108970
 20
178.480523
 30
0.0
 10
73.106033
 20
178.504420
 30
0.0
 10
73.101993
 20
178.528120
 30
0.0
  0
SPLINE
  5
168
100
AcDbEntity
  8
Layer_1
 62
7
100
AcDbSpline
 70
8
 71
3
 72
8
 73
4
 74
0
 40
0
 40
0
 40
0
 40
0
 40
1
 40
1
 40
1
 40
1
 10
73.101993
 20
178.528120
 30
0.0
 10
73.097784
 20
178.551820
 30
0.0
 10
73.095214
 20
178.575463
 30
0.0
 10
73.092869
 20
178.598965
 30
0.0
  0
SPLINE
  5
169
100
AcDbEntity
  8
Layer_1
 62
7
100
AcDbSpline
 70
8
 71
3
 72
8
 73
4
 74
0
 40
0
 40
0
 40
0
 40
0
 40
1
 40
1
 40
1
 40
1
 10
73.092869
 20
178.598965
 30
0.0
 10
73.053831
 20
178.976267
 30
0.0
 10
73.151935
 20
179.318626
 30
0.0
 10
73.306082
 20
179.580142
 30
0.0
  0
SPLINE
  5
16a
100
AcDbEntity
  8
Layer_1
 62
7
100
AcDbSpline
 70
8
 71
3
 72
8
 73
4
 74
0
 40
0
 40
0
 40
0
 40
0
 40
1
 40
1
 40
1
 40
1
 10
73.306082
 20
179.580142
 30
0.0
 10
73.382406
 20
179.711916
 30
0.0
 10
73.474578
 20
179.823268
 30
0.0
 10
73.569857
 20
179.914903
 30
0.0
  0
SPLINE
  5
16b
100
AcDbEntity
  8
Layer_1
 62
7
100
AcDbSpline
 70
8
 71
3
 72
8
 73
4
 74
0
 40
0
 40
0
 40
0
 40
0
 40
1
 40
1
 40
1
 40
1
 10
73.569857
 20
179.914903
 30
0.0
 10
73.665333
 20
180.006651
 30
0.0
 10
73.764595
 20
180.078117
 30
0.0
 10
73.858603
 20
180.133369
 30
0.0
  0
SPLINE
  5
16c
100
AcDbEntity
  8
Layer_1
 62
7
100
AcDbSpline
 70
8
 71
3
 72
8
 73
4
 74
0
 40
0
 40
0
 40
0
 40
0
 40
1
 40
1
 40
1
 40
1
 10
73.858603
 20
180.133369
 30
0.0
 10
73.905409
 20
180.161616
 30
0.0
 10
73.951650
 20
180.184073
 30
0.0
 10
73.995123
 20
180.205344
 30
0.0
  0
SPLINE
  5
16d
100
AcDbEntity
  8
Layer_1
 62
7
100
AcDbSpline
 70
8
 71
3
 72
8
 73
4
 74
0
 40
0
 40
0
 40
0
 40
0
 40
1
 40
1
 40
1
 40
1
 10
73.995123
 20
180.205344
 30
0.0
 10
74.017043
 20
180.215343
 30
0.0
 10
74.038680
 20
180.224128
 30
0.0
 10
74.059414
 20
180.232998
 30
0.0
  0
SPLINE
  5
16e
100
AcDbEntity
  8
Layer_1
 62
7
100
AcDbSpline
 70
8
 71
3
 72
8
 73
4
 74
0
 40
0
 40
0
 40
0
 40
0
 40
1
 40
1
 40
1
 40
1
 10
74.059414
 20
180.232998
 30
0.0
 10
74.080091
 20
180.242094
 30
0.0
 10
74.100345
 20
180.250031
 30
0.0
 10
74.120090
 20
180.256698
 30
0.0
  0
SPLINE
  5
16f
100
AcDbEntity
  8
Layer_1
 62
7
100
AcDbSpline
 70
8
 71
3
 72
8
 73
4
 74
0
 40
0
 40
0
 40
0
 40
0
 40
1
 40
1
 40
1
 40
1
 10
74.120090
 20
180.256698
 30
0.0
 10
74.159410
 20
180.270962
 30
0.0
 10
74.195906
 20
180.283674
 30
0.0
 10
74.229831
 20
180.292741
 30
0.0
  0
SPLINE
  5
170
100
AcDbEntity
  8
Layer_1
 62
7
100
AcDbSpline
 70
8
 71
3
 72
8
 73
4
 74
0
 40
0
 40
0
 40
0
 40
0
 40
1
 40
1
 40
1
 40
1
 10
74.229831
 20
180.292741
 30
0.0
 10
74.263615
 20
180.302797
 30
0.0
 10
74.294377
 20
180.311328
 30
0.0
 10
74.322144
 20
180.317062
 30
0.0
  0
SPLINE
  5
171
100
AcDbEntity
  8
Layer_1
 62
7
100
AcDbSpline
 70
8
 71
3
 72
8
 73
4
 74
0
 40
0
 40
0
 40
0
 40
0
 40
1
 40
1
 40
1
 40
1
 10
74.322144
 20
180.317062
 30
0.0
 10
74.349883
 20
180.323192
 30
0.0
 10
74.374346
 20
180.329322
 30
0.0
 10
74.395531
 20
180.333135
 30
0.0
  0
SPLINE
  5
172
100
AcDbEntity
  8
Layer_1
 62
7
100
AcDbSpline
 70
8
 71
3
 72
8
 73
4
 74
0
 40
0
 40
0
 40
0
 40
0
 40
1
 40
1
 40
1
 40
1
 10
74.395531
 20
180.333135
 30
0.0
 10
74.416745
 20
180.336723
 30
0.0
 10
74.434597
 20
180.339717
 30
0.0
 10
74.448947
 20
180.342146
 30
0.0
  0
SPLINE
  5
173
100
AcDbEntity
  8
Layer_1
 62
7
100
AcDbSpline
 70
8
 71
3
 72
8
 73
4
 74
0
 40
0
 40
0
 40
0
 40
0
 40
1
 40
1
 40
1
 40
1
 10
74.448947
 20
180.342146
 30
0.0
 10
74.477703
 20
180.346920
 30
0.0
 10
74.492533
 20
180.349349
 30
0.0
 10
74.492533
 20
180.349349
 30
0.0
  0
SPLINE
  5
174
100
AcDbEntity
  8
Layer_1
 62
7
100
AcDbSpline
 70
8
 71
3
 72
8
 73
4
 74
0
 40
0
 40
0
 40
0
 40
0
 40
1
 40
1
 40
1
 40
1
 10
74.492533
 20
180.349349
 30
0.0
 10
74.636624
 20
180.373162
 30
0.0
 10
74.772720
 20
180.275652
 30
0.0
 10
74.796533
 20
180.131561
 30
0.0
  0
SPLINE
  5
175
100
AcDbEntity
  8
Layer_1
 62
7
100
AcDbSpline
 70
8
 71
3
 72
8
 73
4
 74
0
 40
0
 40
0
 40
0
 40
0
 40
1
 40
1
 40
1
 40
1
 10
74.796533
 20
180.131561
 30
0.0
 10
74.820091
 20
179.988883
 30
0.0
 10
74.724699
 20
179.854029
 30
0.0
 10
74.582925
 20
179.828324
 30
0.0
  0
LWPOLYLINE
  5
176
100
AcDbEntity
  8
Layer_1
 62
7
100
AcDbPolyline
 90
2
 70
0
 10
73.188854
 20
178.207765
 30
0.0
 10
73.173205
 20
178.248611
 30
0.0
  0
SPLINE
  5
177
100
AcDbEntity
  8
Layer_1
 62
7
100
AcDbSpline
 70
8
 71
3
 72
8
 73
4
 74
0
 40
0
 40
0
 40
0
 40
0
 40
1
 40
1
 40
1
 40
1
 10
74.567502
 20
179.825528
 30
0.0
 10
74.567502
 20
179.825528
 30
0.0
 10
74.556824
 20
179.823607
 30
0.0
 10
74.536119
 20
179.819850
 30
0.0
  0
SPLINE
  5
178
100
AcDbEntity
  8
Layer_1
 62
7
100
AcDbSpline
 70
8
 71
3
 72
8
 73
4
 74
0
 40
0
 40
0
 40
0
 40
0
 40
1
 40
1
 40
1
 40
1
 10
74.536119
 20
179.819850
 30
0.0
 10
74.525780
 20
179.818042
 30
0.0
 10
74.512928
 20
179.815782
 30
0.0
 10
74.497646
 20
179.813099
 30
0.0
  0
SPLINE
  5
179
100
AcDbEntity
  8
Layer_1
 62
7
100
AcDbSpline
 70
8
 71
3
 72
8
 73
4
 74
0
 40
0
 40
0
 40
0
 40
0
 40
1
 40
1
 40
1
 40
1
 10
74.497646
 20
179.813099
 30
0.0
 10
74.482449
 20
179.810274
 30
0.0
 10
74.465359
 20
179.805500
 30
0.0
 10
74.445727
 20
179.801065
 30
0.0
  0
SPLINE
  5
17a
100
AcDbEntity
  8
Layer_1
 62
7
100
AcDbSpline
 70
8
 71
3
 72
8
 73
4
 74
0
 40
0
 40
0
 40
0
 40
0
 40
1
 40
1
 40
1
 40
1
 10
74.445727
 20
179.801065
 30
0.0
 10
74.425897
 20
179.796998
 30
0.0
 10
74.404570
 20
179.790642
 30
0.0
 10
74.381210
 20
179.783382
 30
0.0
  0
SPLINE
  5
17b
100
AcDbEntity
  8
Layer_1
 62
7
100
AcDbSpline
 70
8
 71
3
 72
8
 73
4
 74
0
 40
0
 40
0
 40
0
 40
0
 40
1
 40
1
 40
1
 40
1
 10
74.381210
 20
179.783382
 30
0.0
 10
74.357425
 20
179.777055
 30
0.0
 10
74.332596
 20
179.767818
 30
0.0
 10
74.305817
 20
179.757847
 30
0.0
  0
SPLINE
  5
17c
100
AcDbEntity
  8
Layer_1
 62
7
100
AcDbSpline
 70
8
 71
3
 72
8
 73
4
 74
0
 40
0
 40
0
 40
0
 40
0
 40
1
 40
1
 40
1
 40
1
 10
74.305817
 20
179.757847
 30
0.0
 10
74.292174
 20
179.753299
 30
0.0
 10
74.278502
 20
179.747734
 30
0.0
 10
74.264689
 20
179.741350
 30
0.0
  0
SPLINE
  5
17d
100
AcDbEntity
  8
Layer_1
 62
7
100
AcDbSpline
 70
8
 71
3
 72
8
 73
4
 74
0
 40
0
 40
0
 40
0
 40
0
 40
1
 40
1
 40
1
 40
1
 10
74.264689
 20
179.741350
 30
0.0
 10
74.250734
 20
179.735220
 30
0.0
 10
74.236328
 20
179.728893
 30
0.0
 10
74.221442
 20
179.722368
 30
0.0
  0
SPLINE
  5
17e
100
AcDbEntity
  8
Layer_1
 62
7
100
AcDbSpline
 70
8
 71
3
 72
8
 73
4
 74
0
 40
0
 40
0
 40
0
 40
0
 40
1
 40
1
 40
1
 40
1
 10
74.221442
 20
179.722368
 30
0.0
 10
74.192686
 20
179.707594
 30
0.0
 10
74.161727
 20
179.692623
 30
0.0
 10
74.131163
 20
179.673500
 30
0.0
  0
SPLINE
  5
17f
100
AcDbEntity
  8
Layer_1
 62
7
100
AcDbSpline
 70
8
 71
3
 72
8
 73
4
 74
0
 40
0
 40
0
 40
0
 40
0
 40
1
 40
1
 40
1
 40
1
 10
74.131163
 20
179.673500
 30
0.0
 10
74.008314
 20
179.599576
 30
0.0
 10
73.873263
 20
179.483281
 30
0.0
 10
73.773606
 20
179.308316
 30
0.0
  0
SPLINE
  5
180
100
AcDbEntity
  8
Layer_1
 62
7
100
AcDbSpline
 70
8
 71
3
 72
8
 73
4
 74
0
 40
0
 40
0
 40
0
 40
0
 40
1
 40
1
 40
1
 40
1
 10
73.773606
 20
179.308316
 30
0.0
 10
73.747788
 20
179.265380
 30
0.0
 10
73.726715
 20
179.217698
 30
0.0
 10
73.706236
 20
179.168350
 30
0.0
  0
SPLINE
  5
181
100
AcDbEntity
  8
Layer_1
 62
7
100
AcDbSpline
 70
8
 71
3
 72
8
 73
4
 74
0
 40
0
 40
0
 40
0
 40
0
 40
1
 40
1
 40
1
 40
1
 10
73.706236
 20
179.168350
 30
0.0
 10
73.686801
 20
179.118436
 30
0.0
 10
73.670870
 20
179.065529
 30
0.0
 10
73.657763
 20
179.010446
 30
0.0
  0
SPLINE
  5
182
100
AcDbEntity
  8
Layer_1
 62
7
100
AcDbSpline
 70
8
 71
3
 72
8
 73
4
 74
0
 40
0
 40
0
 40
0
 40
0
 40
1
 40
1
 40
1
 40
1
 10
73.657763
 20
179.010446
 30
0.0
 10
73.633724
 20
178.899970
 30
0.0
 10
73.623866
 20
178.779579
 30
0.0
 10
73.638526
 20
178.658793
 30
0.0
  0
SPLINE
  5
183
100
AcDbEntity
  8
Layer_1
 62
7
100
AcDbSpline
 70
8
 71
3
 72
8
 73
4
 74
0
 40
0
 40
0
 40
0
 40
0
 40
1
 40
1
 40
1
 40
1
 10
73.638526
 20
178.658793
 30
0.0
 10
73.640136
 20
178.643681
 30
0.0
 10
73.641775
 20
178.628512
 30
0.0
 10
73.644769
 20
178.613569
 30
0.0
  0
SPLINE
  5
184
100
AcDbEntity
  8
Layer_1
 62
7
100
AcDbSpline
 70
8
 71
3
 72
8
 73
4
 74
0
 40
0
 40
0
 40
0
 40
0
 40
1
 40
1
 40
1
 40
1
 10
73.644769
 20
178.613569
 30
0.0
 10
73.647650
 20
178.598682
 30
0.0
 10
73.649204
 20
178.583259
 30
0.0
 10
73.653187
 20
178.568599
 30
0.0
  0
SPLINE
  5
185
100
AcDbEntity
  8
Layer_1
 62
7
100
AcDbSpline
 70
8
 71
3
 72
8
 73
4
 74
0
 40
0
 40
0
 40
0
 40
0
 40
1
 40
1
 40
1
 40
1
 10
73.653187
 20
178.568599
 30
0.0
 10
73.656746
 20
178.554305
 30
0.0
 10
73.659797
 20
178.537442
 30
0.0
 10
73.663497
 20
178.525069
 30
0.0
  0
SPLINE
  5
186
100
AcDbEntity
  8
Layer_1
 62
7
100
AcDbSpline
 70
8
 71
3
 72
8
 73
4
 74
0
 40
0
 40
0
 40
0
 40
0
 40
1
 40
1
 40
1
 40
1
 10
73.663497
 20
178.525069
 30
0.0
 10
73.667113
 20
178.512330
 30
0.0
 10
73.670757
 20
178.499534
 30
0.0
 10
73.674401
 20
178.486709
 30
0.0
  0
SPLINE
  5
187
100
AcDbEntity
  8
Layer_1
 62
7
100
AcDbSpline
 70
8
 71
3
 72
8
 73
4
 74
0
 40
0
 40
0
 40
0
 40
0
 40
1
 40
1
 40
1
 40
1
 10
73.674401
 20
178.486709
 30
0.0
 10
73.681095
 20
178.467642
 30
0.0
 10
73.687818
 20
178.448519
 30
0.0
 10
73.694598
 20
178.429282
 30
0.0
  0
SPLINE
  5
188
100
AcDbEntity
  8
Layer_1
 62
7
100
AcDbSpline
 70
8
 71
3
 72
8
 73
4
 74
0
 40
0
 40
0
 40
0
 40
0
 40
1
 40
1
 40
1
 40
1
 10
73.694598
 20
178.429282
 30
0.0
 10
73.695360
 20
178.427050
 30
0.0
 10
73.692677
 20
178.434734
 30
0.0
 10
73.694287
 20
178.430355
 30
0.0
  0
LWPOLYLINE
  5
189
100
AcDbEntity
  8
Layer_1
 62
7
100
AcDbPolyline
 90
2
 70
0
 10
74.582925
 20
179.828324
 30
0.0
 10
74.567502
 20
179.825528
 30
0.0
  0
SPLINE
  5
18a
100
AcDbEntity
  8
Layer_1
 62
7
100
AcDbSpline
 70
8
 71
3
 72
8
 73
4
 74
0
 40
0
 40
0
 40
0
 40
0
 40
1
 40
1
 40
1
 40
1
 10
73.701321
 20
178.413068
 30
0.0
 10
73.703919
 20
178.406430
 30
0.0
 10
73.706433
 20
178.399735
 30
0.0
 10
73.709682
 20
178.393379
 30
0.0
  0
SPLINE
  5
18b
100
AcDbEntity
  8
Layer_1
 62
7
100
AcDbSpline
 70
8
 71
3
 72
8
 73
4
 74
0
 40
0
 40
0
 40
0
 40
0
 40
1
 40
1
 40
1
 40
1
 10
73.709682
 20
178.393379
 30
0.0
 10
73.721094
 20
178.367250
 30
0.0
 10
73.735133
 20
178.342280
 30
0.0
 10
73.750076
 20
178.317620
 30
0.0
  0
SPLINE
  5
18c
100
AcDbEntity
  8
Layer_1
 62
7
100
AcDbSpline
 70
8
 71
3
 72
8
 73
4
 74
0
 40
0
 40
0
 40
0
 40
0
 40
1
 40
1
 40
1
 40
1
 10
73.750076
 20
178.317620
 30
0.0
 10
73.811429
 20
178.220250
 30
0.0
 10
73.904081
 20
178.135819
 30
0.0
 10
74.021365
 20
178.077262
 30
0.0
  0
SPLINE
  5
18d
100
AcDbEntity
  8
Layer_1
 62
7
100
AcDbSpline
 70
8
 71
3
 72
8
 73
4
 74
0
 40
0
 40
0
 40
0
 40
0
 40
1
 40
1
 40
1
 40
1
 10
74.021365
 20
178.077262
 30
0.0
 10
74.138112
 20
178.018592
 30
0.0
 10
74.277993
 20
177.986559
 30
0.0
 10
74.419937
 20
177.989440
 30
0.0
  0
SPLINE
  5
18e
100
AcDbEntity
  8
Layer_1
 62
7
100
AcDbSpline
 70
8
 71
3
 72
8
 73
4
 74
0
 40
0
 40
0
 40
0
 40
0
 40
1
 40
1
 40
1
 40
1
 10
74.419937
 20
177.989440
 30
0.0
 10
74.561824
 20
177.991954
 30
0.0
 10
74.704954
 20
178.029552
 30
0.0
 10
74.826927
 20
178.101554
 30
0.0
  0
SPLINE
  5
18f
100
AcDbEntity
  8
Layer_1
 62
7
100
AcDbSpline
 70
8
 71
3
 72
8
 73
4
 74
0
 40
0
 40
0
 40
0
 40
0
 40
1
 40
1
 40
1
 40
1
 10
74.826927
 20
178.101554
 30
0.0
 10
74.949295
 20
178.173331
 30
0.0
 10
75.049828
 20
178.279175
 30
0.0
 10
75.119571
 20
178.412079
 30
0.0
  0
SPLINE
  5
190
100
AcDbEntity
  8
Layer_1
 62
7
100
AcDbSpline
 70
8
 71
3
 72
8
 73
4
 74
0
 40
0
 40
0
 40
0
 40
0
 40
1
 40
1
 40
1
 40
1
 10
75.119571
 20
178.412079
 30
0.0
 10
75.189286
 20
178.545068
 30
0.0
 10
75.227674
 20
178.704978
 30
0.0
 10
75.237250
 20
178.876129
 30
0.0
  0
LWPOLYLINE
  5
191
100
AcDbEntity
  8
Layer_1
 62
7
100
AcDbPolyline
 90
4
 70
0
 10
73.694287
 20
178.430355
 30
0.0
 10
73.695304
 20
178.427898
 30
0.0
 10
73.697338
 20
178.422955
 30
0.0
 10
73.701321
 20
178.413068
 30
0.0
  0
SPLINE
  5
192
100
AcDbEntity
  8
Layer_1
 62
7
100
AcDbSpline
 70
8
 71
3
 72
8
 73
4
 74
0
 40
0
 40
0
 40
0
 40
0
 40
1
 40
1
 40
1
 40
1
 10
75.232250
 20
179.147362
 30
0.0
 10
75.226205
 20
179.250296
 30
0.0
 10
75.220132
 20
179.353540
 30
0.0
 10
75.214059
 20
179.456983
 30
0.0
  0
SPLINE
  5
193
100
AcDbEntity
  8
Layer_1
 62
7
100
AcDbSpline
 70
8
 71
3
 72
8
 73
4
 74
0
 40
0
 40
0
 40
0
 40
0
 40
1
 40
1
 40
1
 40
1
 10
75.214059
 20
179.456983
 30
0.0
 10
75.201913
 20
179.663895
 30
0.0
 10
75.189710
 20
179.871599
 30
0.0
 10
75.177507
 20
180.079303
 30
0.0
  0
SPLINE
  5
194
100
AcDbEntity
  8
Layer_1
 62
7
100
AcDbSpline
 70
8
 71
3
 72
8
 73
4
 74
0
 40
0
 40
0
 40
0
 40
0
 40
1
 40
1
 40
1
 40
1
 10
75.177507
 20
180.079303
 30
0.0
 10
75.170558
 20
180.182943
 30
0.0
 10
75.167451
 20
180.287629
 30
0.0
 10
75.163072
 20
180.391890
 30
0.0
  0
SPLINE
  5
195
100
AcDbEntity
  8
Layer_1
 62
7
100
AcDbSpline
 70
8
 71
3
 72
8
 73
4
 74
0
 40
0
 40
0
 40
0
 40
0
 40
1
 40
1
 40
1
 40
1
 10
75.163072
 20
180.391890
 30
0.0
 10
75.158920
 20
180.496180
 30
0.0
 10
75.154767
 20
180.600385
 30
0.0
 10
75.150615
 20
180.704392
 30
0.0
  0
SPLINE
  5
196
100
AcDbEntity
  8
Layer_1
 62
7
100
AcDbSpline
 70
8
 71
3
 72
8
 73
4
 74
0
 40
0
 40
0
 40
0
 40
0
 40
1
 40
1
 40
1
 40
1
 10
75.150615
 20
180.704392
 30
0.0
 10
75.146547
 20
180.808456
 30
0.0
 10
75.141576
 20
180.911305
 30
0.0
 10
75.140841
 20
181.018843
 30
0.0
  0
SPLINE
  5
197
100
AcDbEntity
  8
Layer_1
 62
7
100
AcDbSpline
 70
8
 71
3
 72
8
 73
4
 74
0
 40
0
 40
0
 40
0
 40
0
 40
1
 40
1
 40
1
 40
1
 10
75.140841
 20
181.018843
 30
0.0
 10
75.139994
 20
181.072005
 30
0.0
 10
75.139147
 20
181.125110
 30
0.0
 10
75.138299
 20
181.178103
 30
0.0
  0
SPLINE
  5
198
100
AcDbEntity
  8
Layer_1
 62
7
100
AcDbSpline
 70
8
 71
3
 72
8
 73
4
 74
0
 40
0
 40
0
 40
0
 40
0
 40
1
 40
1
 40
1
 40
1
 10
75.138299
 20
181.178103
 30
0.0
 10
75.137847
 20
181.230587
 30
0.0
 10
75.135729
 20
181.285330
 30
0.0
 10
75.136943
 20
181.335385
 30
0.0
  0
LWPOLYLINE
  5
199
100
AcDbEntity
  8
Layer_1
 62
7
100
AcDbPolyline
 90
5
 70
0
 10
75.237250
 20
178.876129
 30
0.0
 10
75.239595
 20
178.940844
 30
0.0
 10
75.239453
 20
179.001520
 30
0.0
 10
75.236798
 20
179.070218
 30
0.0
 10
75.232250
 20
179.147362
 30
0.0
  0
SPLINE
  5
19a
100
AcDbEntity
  8
Layer_1
 62
7
100
AcDbSpline
 70
8
 71
3
 72
8
 73
4
 74
0
 40
0
 40
0
 40
0
 40
0
 40
1
 40
1
 40
1
 40
1
 10
75.138045
 20
181.415071
 30
0.0
 10
75.139316
 20
181.447753
 30
0.0
 10
75.141209
 20
181.480351
 30
0.0
 10
75.144796
 20
181.512807
 30
0.0
  0
SPLINE
  5
19b
100
AcDbEntity
  8
Layer_1
 62
7
100
AcDbSpline
 70
8
 71
3
 72
8
 73
4
 74
0
 40
0
 40
0
 40
0
 40
0
 40
1
 40
1
 40
1
 40
1
 10
75.144796
 20
181.512807
 30
0.0
 10
75.151717
 20
181.577664
 30
0.0
 10
75.162931
 20
181.641898
 30
0.0
 10
75.178637
 20
181.704664
 30
0.0
  0
SPLINE
  5
19c
100
AcDbEntity
  8
Layer_1
 62
7
100
AcDbSpline
 70
8
 71
3
 72
8
 73
4
 74
0
 40
0
 40
0
 40
0
 40
0
 40
1
 40
1
 40
1
 40
1
 10
75.178637
 20
181.704664
 30
0.0
 10
75.210641
 20
181.829914
 30
0.0
 10
75.258888
 20
181.949288
 30
0.0
 10
75.320863
 20
182.058182
 30
0.0
  0
SPLINE
  5
19d
100
AcDbEntity
  8
Layer_1
 62
7
100
AcDbSpline
 70
8
 71
3
 72
8
 73
4
 74
0
 40
0
 40
0
 40
0
 40
0
 40
1
 40
1
 40
1
 40
1
 10
75.320863
 20
182.058182
 30
0.0
 10
75.444389
 20
182.276846
 30
0.0
 10
75.616558
 20
182.455511
 30
0.0
 10
75.813217
 20
182.589320
 30
0.0
  0
SPLINE
  5
19e
100
AcDbEntity
  8
Layer_1
 62
7
100
AcDbSpline
 70
8
 71
3
 72
8
 73
4
 74
0
 40
0
 40
0
 40
0
 40
0
 40
1
 40
1
 40
1
 40
1
 10
75.813217
 20
182.589320
 30
0.0
 10
76.010130
 20
182.722817
 30
0.0
 10
76.233596
 20
182.814226
 30
0.0
 10
76.470395
 20
182.846767
 30
0.0
  0
SPLINE
  5
19f
100
AcDbEntity
  8
Layer_1
 62
7
100
AcDbSpline
 70
8
 71
3
 72
8
 73
4
 74
0
 40
0
 40
0
 40
0
 40
0
 40
1
 40
1
 40
1
 40
1
 10
76.470395
 20
182.846767
 30
0.0
 10
76.588554
 20
182.862784
 30
0.0
 10
76.709792
 20
182.864620
 30
0.0
 10
76.829477
 20
182.847784
 30
0.0
  0
SPLINE
  5
1a0
100
AcDbEntity
  8
Layer_1
 62
7
100
AcDbSpline
 70
8
 71
3
 72
8
 73
4
 74
0
 40
0
 40
0
 40
0
 40
0
 40
1
 40
1
 40
1
 40
1
 10
76.829477
 20
182.847784
 30
0.0
 10
76.949105
 20
182.831768
 30
0.0
 10
77.066784
 20
182.797249
 30
0.0
 10
77.175424
 20
182.746856
 30
0.0
  0
SPLINE
  5
1a1
100
AcDbEntity
  8
Layer_1
 62
7
100
AcDbSpline
 70
8
 71
3
 72
8
 73
4
 74
0
 40
0
 40
0
 40
0
 40
0
 40
1
 40
1
 40
1
 40
1
 10
77.175424
 20
182.746856
 30
0.0
 10
77.394116
 20
182.645956
 30
0.0
 10
77.567358
 20
182.480990
 30
0.0
 10
77.685517
 20
182.307664
 30
0.0
  0
SPLINE
  5
1a2
100
AcDbEntity
  8
Layer_1
 62
7
100
AcDbSpline
 70
8
 71
3
 72
8
 73
4
 74
0
 40
0
 40
0
 40
0
 40
0
 40
1
 40
1
 40
1
 40
1
 10
77.685517
 20
182.307664
 30
0.0
 10
77.700997
 20
182.286111
 30
0.0
 10
77.714471
 20
182.264021
 30
0.0
 10
77.728341
 20
182.242101
 30
0.0
  0
SPLINE
  5
1a3
100
AcDbEntity
  8
Layer_1
 62
7
100
AcDbSpline
 70
8
 71
3
 72
8
 73
4
 74
0
 40
0
 40
0
 40
0
 40
0
 40
1
 40
1
 40
1
 40
1
 10
77.728341
 20
182.242101
 30
0.0
 10
77.742069
 20
182.220887
 30
0.0
 10
77.756221
 20
182.194589
 30
0.0
 10
77.769695
 20
182.171059
 30
0.0
  0
LWPOLYLINE
  5
1a4
100
AcDbEntity
  8
Layer_1
 62
7
100
AcDbPolyline
 90
2
 70
0
 10
75.136943
 20
181.335385
 30
0.0
 10
75.138045
 20
181.415071
 30
0.0
  0
SPLINE
  5
1a5
100
AcDbEntity
  8
Layer_1
 62
7
100
AcDbSpline
 70
8
 71
3
 72
8
 73
4
 74
0
 40
0
 40
0
 40
0
 40
0
 40
1
 40
1
 40
1
 40
1
 10
77.801276
 20
182.110807
 30
0.0
 10
77.823874
 20
182.062165
 30
0.0
 10
77.808535
 20
182.094847
 30
0.0
 10
77.813987
 20
182.082870
 30
0.0
  0
LWPOLYLINE
  5
1a6
100
AcDbEntity
  8
Layer_1
 62
7
100
AcDbPolyline
 90
6
 70
0
 10
77.769695
 20
182.171059
 30
0.0
 10
77.774751
 20
182.161991
 30
0.0
 10
77.778339
 20
182.155071
 30
0.0
 10
77.785429
 20
182.141427
 30
0.0
 10
77.799524
 20
182.114197
 30
0.0
 10
77.801276
 20
182.110807
 30
0.0
  0
SPLINE
  5
1a7
100
AcDbEntity
  8
Layer_1
 62
7
100
AcDbSpline
 70
8
 71
3
 72
8
 73
4
 74
0
 40
0
 40
0
 40
0
 40
0
 40
1
 40
1
 40
1
 40
1
 10
77.824213
 20
182.057080
 30
0.0
 10
77.828648
 20
182.045527
 30
0.0
 10
77.833393
 20
182.034284
 30
0.0
 10
77.837433
 20
182.022562
 30
0.0
  0
SPLINE
  5
1a8
100
AcDbEntity
  8
Layer_1
 62
7
100
AcDbSpline
 70
8
 71
3
 72
8
 73
4
 74
0
 40
0
 40
0
 40
0
 40
0
 40
1
 40
1
 40
1
 40
1
 10
77.837433
 20
182.022562
 30
0.0
 10
77.871273
 20
181.929882
 30
0.0
 10
77.897769
 20
181.834179
 30
0.0
 10
77.913362
 20
181.736584
 30
0.0
  0
SPLINE
  5
1a9
100
AcDbEntity
  8
Layer_1
 62
7
100
AcDbSpline
 70
8
 71
3
 72
8
 73
4
 74
0
 40
0
 40
0
 40
0
 40
0
 40
1
 40
1
 40
1
 40
1
 10
77.913362
 20
181.736584
 30
0.0
 10
77.945931
 20
181.541874
 30
0.0
 10
77.934350
 20
181.341458
 30
0.0
 10
77.885058
 20
181.164431
 30
0.0
  0
SPLINE
  5
1aa
100
AcDbEntity
  8
Layer_1
 62
7
100
AcDbSpline
 70
8
 71
3
 72
8
 73
4
 74
0
 40
0
 40
0
 40
0
 40
0
 40
1
 40
1
 40
1
 40
1
 10
77.885058
 20
181.164431
 30
0.0
 10
77.836444
 20
180.986726
 30
0.0
 10
77.755458
 20
180.833229
 30
0.0
 10
77.665462
 20
180.706737
 30
0.0
  0
SPLINE
  5
1ab
100
AcDbEntity
  8
Layer_1
 62
7
100
AcDbSpline
 70
8
 71
3
 72
8
 73
4
 74
0
 40
0
 40
0
 40
0
 40
0
 40
1
 40
1
 40
1
 40
1
 10
77.665462
 20
180.706737
 30
0.0
 10
77.575098
 20
180.579764
 30
0.0
 10
77.476203
 20
180.477282
 30
0.0
 10
77.379428
 20
180.392483
 30
0.0
  0
SPLINE
  5
1ac
100
AcDbEntity
  8
Layer_1
 62
7
100
AcDbSpline
 70
8
 71
3
 72
8
 73
4
 74
0
 40
0
 40
0
 40
0
 40
0
 40
1
 40
1
 40
1
 40
1
 10
77.379428
 20
180.392483
 30
0.0
 10
77.282454
 20
180.307656
 30
0.0
 10
77.187316
 20
180.239975
 30
0.0
 10
77.098506
 20
180.184384
 30
0.0
  0
SPLINE
  5
1ad
100
AcDbEntity
  8
Layer_1
 62
7
100
AcDbSpline
 70
8
 71
3
 72
8
 73
4
 74
0
 40
0
 40
0
 40
0
 40
0
 40
1
 40
1
 40
1
 40
1
 10
77.098506
 20
180.184384
 30
0.0
 10
76.920716
 20
180.073512
 30
0.0
 10
76.768095
 20
180.010210
 30
0.0
 10
76.660303
 20
179.971511
 30
0.0
  0
SPLINE
  5
1ae
100
AcDbEntity
  8
Layer_1
 62
7
100
AcDbSpline
 70
8
 71
3
 72
8
 73
4
 74
0
 40
0
 40
0
 40
0
 40
0
 40
1
 40
1
 40
1
 40
1
 10
76.660303
 20
179.971511
 30
0.0
 10
76.633270
 20
179.961991
 30
0.0
 10
76.609062
 20
179.953969
 30
0.0
 10
76.587961
 20
179.947387
 30
0.0
  0
SPLINE
  5
1af
100
AcDbEntity
  8
Layer_1
 62
7
100
AcDbSpline
 70
8
 71
3
 72
8
 73
4
 74
0
 40
0
 40
0
 40
0
 40
0
 40
1
 40
1
 40
1
 40
1
 10
76.587961
 20
179.947387
 30
0.0
 10
76.577368
 20
179.944139
 30
0.0
 10
76.567566
 20
179.941173
 30
0.0
 10
76.558668
 20
179.938461
 30
0.0
  0
SPLINE
  5
1b0
100
AcDbEntity
  8
Layer_1
 62
7
100
AcDbSpline
 70
8
 71
3
 72
8
 73
4
 74
0
 40
0
 40
0
 40
0
 40
0
 40
1
 40
1
 40
1
 40
1
 10
76.558668
 20
179.938461
 30
0.0
 10
76.548838
 20
179.935693
 30
0.0
 10
76.539997
 20
179.933179
 30
0.0
 10
76.532087
 20
179.930947
 30
0.0
  0
SPLINE
  5
1b1
100
AcDbEntity
  8
Layer_1
 62
7
100
AcDbSpline
 70
8
 71
3
 72
8
 73
4
 74
0
 40
0
 40
0
 40
0
 40
0
 40
1
 40
1
 40
1
 40
1
 10
76.532087
 20
179.930947
 30
0.0
 10
76.505958
 20
179.923942
 30
0.0
 10
76.492456
 20
179.920355
 30
0.0
 10
76.492456
 20
179.920355
 30
0.0
  0
SPLINE
  5
1b2
100
AcDbEntity
  8
Layer_1
 62
7
100
AcDbSpline
 70
8
 71
3
 72
8
 73
4
 74
0
 40
0
 40
0
 40
0
 40
0
 40
1
 40
1
 40
1
 40
1
 10
76.492456
 20
179.920355
 30
0.0
 10
76.326643
 20
179.876119
 30
0.0
 10
76.156367
 20
179.974674
 30
0.0
 10
76.112132
 20
180.140487
 30
0.0
  0
SPLINE
  5
1b3
100
AcDbEntity
  8
Layer_1
 62
7
100
AcDbSpline
 70
8
 71
3
 72
8
 73
4
 74
0
 40
0
 40
0
 40
0
 40
0
 40
1
 40
1
 40
1
 40
1
 10
76.112132
 20
180.140487
 30
0.0
 10
76.067896
 20
180.306300
 30
0.0
 10
76.166452
 20
180.476548
 30
0.0
 10
76.332264
 20
180.520812
 30
0.0
  0
LWPOLYLINE
  5
1b4
100
AcDbEntity
  8
Layer_1
 62
7
100
AcDbPolyline
 90
3
 70
0
 10
77.813987
 20
182.082870
 30
0.0
 10
77.817433
 20
182.074283
 30
0.0
 10
77.824213
 20
182.057080
 30
0.0
  0
LWPOLYLINE
  5
1b5
100
AcDbEntity
  8
Layer_1
 62
7
100
AcDbPolyline
 90
3
 70
0
 10
76.332264
 20
180.520812
 30
0.0
 10
76.333310
 20
180.521094
 30
0.0
 10
76.336247
 20
180.521857
 30
0.0
  0
ENDSEC
  0
SECTION
  2
OBJECTS
  0
DICTIONARY
  5
C
330
0
100
AcDbDictionary
  3
ACAD_GROUP
350
D
  3
ACAD_MLINESTYLE
350
17
  0
DICTIONARY
  5
D
330
C
100
AcDbDictionary
  0
DICTIONARY
  5
1A
330
C
100
AcDbDictionary
  0
DICTIONARY
  5
17
330
C
100
AcDbDictionary
  3
STANDARD
350
18
  0
DICTIONARY
  5
19
330
C
100
AcDbDictionary
  0
ENDSEC
  0
EOF
